<ttFont>
<head>
    <!-- Most of this table will be recalculated by the compiler -->
    <tableVersion value="1.0"/>
    <fontRevision value="2.202"/>
    <checkSumAdjustment value="0x35ad466c"/>
    <magicNumber value="0x5f0f3cf5"/>
    <flags value="00000000 00000001"/>
    <unitsPerEm value="1000"/>
    <created value="Thu Mar 17 16:29:00 2016"/>
    <modified value="Thu Mar 17 16:31:57 2016"/>
    <xMin value="-116"/>
    <yMin value="-219"/>
    <xMax value="879"/>
    <yMax value="995"/>
    <macStyle value="00000000 00000010"/>
    <lowestRecPPEM value="5"/>
    <fontDirectionHint value="2"/>
    <indexToLocFormat value="0"/>
    <glyphDataFormat value="0"/>
  </head>
    <TTGlyph name=".notdef" xMin="0" yMin="-200" xMax="500" yMax="800">
      <contour>
        <pt x="0" y="-200" on="1"/>
        <pt x="0" y="800" on="1"/>
        <pt x="500" y="800" on="1"/>
        <pt x="500" y="-200" on="1"/>
      </contour>
      <contour>
        <pt x="71" y="750" on="1"/>
        <pt x="250" y="360" on="1"/>
        <pt x="429" y="750" on="1"/>
      </contour>
      <contour>
        <pt x="450" y="676" on="1"/>
        <pt x="278" y="300" on="1"/>
        <pt x="450" y="-76" on="1"/>
      </contour>
      <contour>
        <pt x="50" y="-76" on="1"/>
        <pt x="222" y="300" on="1"/>
        <pt x="50" y="676" on="1"/>
      </contour>
      <contour>
        <pt x="250" y="240" on="1"/>
        <pt x="71" y="-150" on="1"/>
        <pt x="429" y="-150" on="1"/>
      </contour>
    </TTGlyph>
    <TTGlyph name="A" xMin="-2" yMin="-6" xMax="493" yMax="694">
      <contour>
        <pt x="448" y="-6" on="1"/>
        <pt x="408" y="237" on="1"/>
        <pt x="159" y="237" on="1"/>
        <pt x="49" y="0" on="1"/>
        <pt x="-2" y="0" on="1"/>
        <pt x="328" y="694" on="1"/>
        <pt x="372" y="694" on="1"/>
        <pt x="493" y="5" on="1"/>
      </contour>
      <contour>
        <pt x="342" y="629" on="1"/>
        <pt x="177" y="277" on="1"/>
        <pt x="401" y="277" on="1"/>
      </contour>
    </TTGlyph>
    <TTGlyph name="A.flat" xMin="-2" yMin="0" xMax="494" yMax="694">
      <contour>
        <pt x="342" y="629" on="1"/>
        <pt x="177" y="277" on="1"/>
        <pt x="401" y="277" on="1"/>
      </contour>
      <contour>
        <pt x="447" y="0" on="1"/>
        <pt x="408" y="237" on="1"/>
        <pt x="159" y="237" on="1"/>
        <pt x="49" y="0" on="1"/>
        <pt x="-2" y="0" on="1"/>
        <pt x="328" y="694" on="1"/>
        <pt x="372" y="694" on="1"/>
        <pt x="494" y="0" on="1"/>
      </contour>
    </TTGlyph>
    <TTGlyph name="AE" xMin="-14" yMin="0" xMax="778" yMax="690">
      <contour>
        <pt x="412" y="277" on="1"/>
        <pt x="469" y="655" on="1"/>
        <pt x="219" y="277" on="1"/>
      </contour>
      <contour>
        <pt x="371" y="0" on="1"/>
        <pt x="406" y="237" on="1"/>
        <pt x="192" y="237" on="1"/>
        <pt x="35" y="0" on="1"/>
        <pt x="-14" y="0" on="1"/>
        <pt x="444" y="690" on="1"/>
        <pt x="778" y="690" on="1"/>
        <pt x="771" y="649" on="1"/>
        <pt x="513" y="649" on="1"/>
        <pt x="474" y="382" on="1"/>
        <pt x="678" y="382" on="1"/>
        <pt x="678" y="341" on="1"/>
        <pt x="467" y="341" on="1"/>
        <pt x="422" y="41" on="1"/>
        <pt x="691" y="41" on="1"/>
        <pt x="684" y="0" on="1"/>
      </contour>
    </TTGlyph>
    <TTGlyph name="AE.flat" xMin="-14" yMin="0" xMax="778" yMax="690">
      <contour>
        <pt x="412" y="277" on="1"/>
        <pt x="469" y="655" on="1"/>
        <pt x="219" y="277" on="1"/>
      </contour>
      <contour>
        <pt x="371" y="0" on="1"/>
        <pt x="406" y="237" on="1"/>
        <pt x="192" y="237" on="1"/>
        <pt x="35" y="0" on="1"/>
        <pt x="-14" y="0" on="1"/>
        <pt x="444" y="690" on="1"/>
        <pt x="778" y="690" on="1"/>
        <pt x="771" y="649" on="1"/>
        <pt x="513" y="649" on="1"/>
        <pt x="474" y="382" on="1"/>
        <pt x="681" y="382" on="1"/>
        <pt x="675" y="341" on="1"/>
        <pt x="467" y="341" on="1"/>
        <pt x="422" y="41" on="1"/>
        <pt x="691" y="41" on="1"/>
        <pt x="684" y="0" on="1"/>
      </contour>
    </TTGlyph>
    <TTGlyph name="AEacute" xMin="-14" yMin="0" xMax="778" yMax="881">
      <component glyphName="AE" x="0" y="0" flags="0x204"/>
      <component glyphName="acute" x="359" y="205" flags="0x4"/>
    </TTGlyph>
    <TTGlyph name="AEacute.flat" xMin="-14" yMin="0" xMax="778" yMax="881">
      <component glyphName="AE.flat" x="0" y="0" flags="0x204"/>
      <component glyphName="acute" x="359" y="205" flags="0x4"/>
    </TTGlyph>
    <TTGlyph name="Aacute" xMin="-2" yMin="-6" xMax="511" yMax="891">
      <component glyphName="A" x="0" y="0" flags="0x204"/>
      <component glyphName="acute" x="163" y="215" flags="0x4"/>
    </TTGlyph>
    <TTGlyph name="Aacute.flat" xMin="-2" yMin="0" xMax="511" yMax="891">
      <component glyphName="A.flat" x="0" y="0" flags="0x204"/>
      <component glyphName="acute" x="163" y="215" flags="0x4"/>
    </TTGlyph>
    <TTGlyph name="Abreve" xMin="-2" yMin="-6" xMax="493" yMax="867">
      <component glyphName="A" x="0" y="0" flags="0x204"/>
      <component glyphName="breve" x="106" y="215" flags="0x4"/>
    </TTGlyph>
    <TTGlyph name="Abreve.flat" xMin="-2" yMin="0" xMax="494" yMax="867">
      <component glyphName="A.flat" x="0" y="0" flags="0x204"/>
      <component glyphName="breve" x="107" y="215" flags="0x4"/>
    </TTGlyph>
    <TTGlyph name="Acircumflex" xMin="-2" yMin="-6" xMax="493" yMax="883">
      <component glyphName="A" x="0" y="0" flags="0x204"/>
      <component glyphName="circumflex" x="108" y="208" flags="0x4"/>
    </TTGlyph>
    <TTGlyph name="Acircumflex.flat" xMin="-2" yMin="0" xMax="494" yMax="883">
      <component glyphName="A.flat" x="0" y="0" flags="0x204"/>
      <component glyphName="circumflex" x="108" y="208" flags="0x4"/>
    </TTGlyph>
    <TTGlyph name="Adieresis" xMin="-2" yMin="-6" xMax="493" yMax="836">
      <component glyphName="A" x="0" y="0" flags="0x204"/>
      <component glyphName="dieresis" x="108" y="215" flags="0x4"/>
    </TTGlyph>
    <TTGlyph name="Adieresis.flat" xMin="-2" yMin="0" xMax="494" yMax="836">
      <component glyphName="A.flat" x="0" y="0" flags="0x204"/>
      <component glyphName="dieresis" x="108" y="215" flags="0x4"/>
    </TTGlyph>
    <TTGlyph name="Agrave" xMin="-2" yMin="-6" xMax="493" yMax="892">
      <component glyphName="A" x="0" y="0" flags="0x204"/>
      <component glyphName="grave" x="53" y="215" flags="0x4"/>
    </TTGlyph>
    <TTGlyph name="Agrave.flat" xMin="-2" yMin="0" xMax="494" yMax="892">
      <component glyphName="A.flat" x="0" y="0" flags="0x204"/>
      <component glyphName="grave" x="53" y="215" flags="0x4"/>
    </TTGlyph>
    <TTGlyph name="Amacron" xMin="-2" yMin="-6" xMax="493" yMax="824">
      <component glyphName="A" x="0" y="0" flags="0x204"/>
      <component glyphName="macron" x="108" y="215" flags="0x4"/>
    </TTGlyph>
    <TTGlyph name="Amacron.flat" xMin="-2" yMin="0" xMax="494" yMax="824">
      <component glyphName="A.flat" x="0" y="0" flags="0x204"/>
      <component glyphName="macron" x="108" y="215" flags="0x4"/>
    </TTGlyph>
    <TTGlyph name="Aogonek" xMin="-2" yMin="-162" xMax="493" yMax="694">
      <component glyphName="A" x="0" y="0" flags="0x204"/>
      <component glyphName="ogonek" x="259" y="0" flags="0x4"/>
    </TTGlyph>
    <TTGlyph name="Aogonek.flat" xMin="-2" yMin="-162" xMax="494" yMax="694">
      <component glyphName="A.flat" x="0" y="0" flags="0x204"/>
      <component glyphName="ogonek" x="259" y="0" flags="0x4"/>
    </TTGlyph>
    <TTGlyph name="Aring" xMin="-2" yMin="-6" xMax="493" yMax="833">
      <contour>
        <pt x="448" y="-6" on="1"/>
        <pt x="408" y="237" on="1"/>
        <pt x="159" y="237" on="1"/>
        <pt x="49" y="0" on="1"/>
        <pt x="-2" y="0" on="1"/>
        <pt x="314" y="668" on="1"/>
        <pt x="293" y="678" on="0"/>
        <pt x="267" y="719" on="0"/>
        <pt x="267" y="745" on="1"/>
        <pt x="267" y="782" on="0"/>
        <pt x="319" y="833" on="0"/>
        <pt x="356" y="833" on="1"/>
        <pt x="393" y="833" on="0"/>
        <pt x="444" y="782" on="0"/>
        <pt x="444" y="745" on="1"/>
        <pt x="444" y="714" on="0"/>
        <pt x="407" y="668" on="0"/>
        <pt x="379" y="661" on="1"/>
        <pt x="493" y="5" on="1"/>
      </contour>
      <contour>
        <pt x="356" y="689" on="1"/>
        <pt x="379" y="689" on="0"/>
        <pt x="409" y="721" on="0"/>
        <pt x="409" y="745" on="1"/>
        <pt x="409" y="769" on="0"/>
        <pt x="379" y="801" on="0"/>
        <pt x="356" y="801" on="1"/>
        <pt x="333" y="801" on="0"/>
        <pt x="302" y="769" on="0"/>
        <pt x="302" y="745" on="1"/>
        <pt x="302" y="721" on="0"/>
        <pt x="333" y="689" on="0"/>
      </contour>
      <contour>
        <pt x="342" y="629" on="1"/>
        <pt x="177" y="277" on="1"/>
        <pt x="401" y="277" on="1"/>
      </contour>
    </TTGlyph>
    <TTGlyph name="Aring.flat" xMin="-2" yMin="0" xMax="494" yMax="833">
      <contour>
        <pt x="356" y="689" on="1"/>
        <pt x="379" y="689" on="0"/>
        <pt x="409" y="721" on="0"/>
        <pt x="409" y="745" on="1"/>
        <pt x="409" y="769" on="0"/>
        <pt x="379" y="801" on="0"/>
        <pt x="356" y="801" on="1"/>
        <pt x="333" y="801" on="0"/>
        <pt x="302" y="769" on="0"/>
        <pt x="302" y="745" on="1"/>
        <pt x="302" y="721" on="0"/>
        <pt x="333" y="689" on="0"/>
      </contour>
      <contour>
        <pt x="342" y="629" on="1"/>
        <pt x="177" y="277" on="1"/>
        <pt x="401" y="277" on="1"/>
      </contour>
      <contour>
        <pt x="447" y="0" on="1"/>
        <pt x="408" y="237" on="1"/>
        <pt x="159" y="237" on="1"/>
        <pt x="49" y="0" on="1"/>
        <pt x="-2" y="0" on="1"/>
        <pt x="314" y="668" on="1"/>
        <pt x="293" y="678" on="0"/>
        <pt x="267" y="719" on="0"/>
        <pt x="267" y="745" on="1"/>
        <pt x="267" y="782" on="0"/>
        <pt x="319" y="833" on="0"/>
        <pt x="356" y="833" on="1"/>
        <pt x="393" y="833" on="0"/>
        <pt x="444" y="782" on="0"/>
        <pt x="444" y="745" on="1"/>
        <pt x="444" y="714" on="0"/>
        <pt x="407" y="668" on="0"/>
        <pt x="379" y="661" on="1"/>
        <pt x="494" y="0" on="1"/>
      </contour>
    </TTGlyph>
    <TTGlyph name="Aringacute" xMin="-2" yMin="-6" xMax="518" yMax="995">
      <component glyphName="Aring" x="0" y="0" flags="0x204"/>
      <component glyphName="acute" x="170" y="319" flags="0x4"/>
    </TTGlyph>
    <TTGlyph name="Aringacute.flat" xMin="-2" yMin="0" xMax="518" yMax="995">
      <component glyphName="Aring.flat" x="0" y="0" flags="0x204"/>
      <component glyphName="acute" x="170" y="319" flags="0x4"/>
    </TTGlyph>
    <TTGlyph name="Atilde" xMin="-2" yMin="-6" xMax="506" yMax="858">
      <component glyphName="A" x="0" y="0" flags="0x204"/>
      <component glyphName="tilde" x="111" y="215" flags="0x4"/>
    </TTGlyph>
    <TTGlyph name="Atilde.flat" xMin="-2" yMin="0" xMax="506" yMax="858">
      <component glyphName="A.flat" x="0" y="0" flags="0x204"/>
      <component glyphName="tilde" x="111" y="215" flags="0x4"/>
    </TTGlyph>
    <TTGlyph name="B" xMin="45" yMin="1" xMax="455" yMax="691">
      <contour>
        <pt x="455" y="534" on="1"/>
        <pt x="455" y="502" on="0"/>
        <pt x="431" y="446" on="0"/>
        <pt x="392" y="402" on="0"/>
        <pt x="341" y="371" on="0"/>
        <pt x="314" y="363" on="1"/>
        <pt x="365" y="346" on="0"/>
        <pt x="435" y="267" on="0"/>
        <pt x="435" y="205" on="1"/>
        <pt x="435" y="156" on="0"/>
        <pt x="398" y="80" on="0"/>
        <pt x="332" y="28" on="0"/>
        <pt x="241" y="1" on="0"/>
        <pt x="188" y="1" on="1"/>
        <pt x="45" y="1" on="1"/>
        <pt x="148" y="691" on="1"/>
        <pt x="274" y="691" on="1"/>
        <pt x="355" y="691" on="0"/>
        <pt x="455" y="608" on="0"/>
      </contour>
      <contour>
        <pt x="406" y="534" on="1"/>
        <pt x="406" y="588" on="0"/>
        <pt x="333" y="650" on="0"/>
        <pt x="267" y="650" on="1"/>
        <pt x="188" y="650" on="1"/>
        <pt x="149" y="383" on="1"/>
        <pt x="225" y="383" on="1"/>
        <pt x="262" y="383" on="0"/>
        <pt x="328" y="406" on="0"/>
        <pt x="377" y="446" on="0"/>
        <pt x="406" y="502" on="0"/>
      </contour>
      <contour>
        <pt x="387" y="205" on="1"/>
        <pt x="387" y="268" on="0"/>
        <pt x="294" y="343" on="0"/>
        <pt x="218" y="343" on="1"/>
        <pt x="142" y="343" on="1"/>
        <pt x="97" y="42" on="1"/>
        <pt x="191" y="42" on="1"/>
        <pt x="278" y="42" on="0"/>
        <pt x="387" y="127" on="0"/>
      </contour>
    </TTGlyph>
    <TTGlyph name="C" xMin="58" yMin="-10" xMax="523" yMax="701">
      <contour>
        <pt x="523" y="649" on="1"/>
        <pt x="512" y="599" on="1"/>
        <pt x="482" y="626" on="0"/>
        <pt x="412" y="659" on="0"/>
        <pt x="371" y="659" on="1"/>
        <pt x="314" y="659" on="0"/>
        <pt x="216" y="595" on="0"/>
        <pt x="146" y="489" on="0"/>
        <pt x="106" y="348" on="0"/>
        <pt x="106" y="271" on="1"/>
        <pt x="106" y="219" on="0"/>
        <pt x="131" y="131" on="0"/>
        <pt x="177" y="68" on="0"/>
        <pt x="243" y="33" on="0"/>
        <pt x="283" y="33" on="1"/>
        <pt x="323" y="33" on="0"/>
        <pt x="400" y="60" on="0"/>
        <pt x="439" y="88" on="1"/>
        <pt x="439" y="39" on="1"/>
        <pt x="405" y="17" on="0"/>
        <pt x="327" y="-10" on="0"/>
        <pt x="279" y="-10" on="1"/>
        <pt x="180" y="-10" on="0"/>
        <pt x="58" y="144" on="0"/>
        <pt x="58" y="270" on="1"/>
        <pt x="58" y="355" on="0"/>
        <pt x="106" y="512" on="0"/>
        <pt x="190" y="630" on="0"/>
        <pt x="305" y="701" on="0"/>
        <pt x="371" y="701" on="1"/>
        <pt x="420" y="701" on="0"/>
        <pt x="495" y="671" on="0"/>
      </contour>
    </TTGlyph>
    <TTGlyph name="Cacute" xMin="58" yMin="-10" xMax="534" yMax="891">
      <component glyphName="C" x="0" y="0" flags="0x204"/>
      <component glyphName="acute" x="186" y="215" flags="0x4"/>
    </TTGlyph>
    <TTGlyph name="Ccaron" xMin="58" yMin="-10" xMax="523" yMax="890">
      <component glyphName="C" x="0" y="0" flags="0x204"/>
      <component glyphName="caron" x="134" y="215" flags="0x4"/>
    </TTGlyph>
    <TTGlyph name="Ccedilla" xMin="58" yMin="-184" xMax="523" yMax="701">
      <component glyphName="C" x="0" y="0" flags="0x204"/>
      <component glyphName="cedilla" x="89" y="0" flags="0x4"/>
    </TTGlyph>
    <TTGlyph name="Cdotaccent" xMin="58" yMin="-10" xMax="523" yMax="836">
      <component glyphName="C" x="0" y="0" flags="0x204"/>
      <component glyphName="dotaccent" x="133" y="215" flags="0x4"/>
    </TTGlyph>
    <TTGlyph name="D" xMin="45" yMin="0" xMax="535" yMax="690">
      <contour>
        <pt x="535" y="410" on="1"/>
        <pt x="535" y="317" on="0"/>
        <pt x="475" y="155" on="0"/>
        <pt x="419" y="99" on="1"/>
        <pt x="373" y="53" on="0"/>
        <pt x="254" y="0" on="0"/>
        <pt x="173" y="0" on="1"/>
        <pt x="45" y="0" on="1"/>
        <pt x="148" y="690" on="1"/>
        <pt x="270" y="690" on="1"/>
        <pt x="399" y="690" on="0"/>
        <pt x="535" y="537" on="0"/>
      </contour>
      <contour>
        <pt x="486" y="410" on="1"/>
        <pt x="486" y="523" on="0"/>
        <pt x="372" y="649" on="0"/>
        <pt x="264" y="649" on="1"/>
        <pt x="189" y="649" on="1"/>
        <pt x="98" y="41" on="1"/>
        <pt x="174" y="41" on="1"/>
        <pt x="243" y="41" on="0"/>
        <pt x="343" y="86" on="0"/>
        <pt x="382" y="125" on="1"/>
        <pt x="433" y="176" on="0"/>
        <pt x="486" y="325" on="0"/>
      </contour>
    </TTGlyph>
    <TTGlyph name="Dcaron" xMin="45" yMin="0" xMax="535" yMax="880">
      <component glyphName="D" x="0" y="0" flags="0x204"/>
      <component glyphName="caron" x="82" y="205" flags="0x4"/>
    </TTGlyph>
    <TTGlyph name="Dcroat" xMin="33" yMin="0" xMax="544" yMax="690">
      <component glyphName="Eth" x="0" y="0" flags="0x4"/>
    </TTGlyph>
    <TTGlyph name="Dcroat.flat" xMin="29" yMin="0" xMax="544" yMax="690">
      <component glyphName="Eth.flat" x="0" y="0" flags="0x4"/>
    </TTGlyph>
    <TTGlyph name="E" xMin="45" yMin="0" xMax="457" yMax="690">
      <contour>
        <pt x="457" y="690" on="1"/>
        <pt x="451" y="649" on="1"/>
        <pt x="188" y="649" on="1"/>
        <pt x="149" y="383" on="1"/>
        <pt x="358" y="383" on="1"/>
        <pt x="358" y="341" on="1"/>
        <pt x="142" y="341" on="1"/>
        <pt x="97" y="42" on="1"/>
        <pt x="370" y="42" on="1"/>
        <pt x="364" y="0" on="1"/>
        <pt x="45" y="0" on="1"/>
        <pt x="148" y="690" on="1"/>
      </contour>
    </TTGlyph>
    <TTGlyph name="E.flat" xMin="45" yMin="0" xMax="457" yMax="690">
      <contour>
        <pt x="457" y="690" on="1"/>
        <pt x="451" y="649" on="1"/>
        <pt x="188" y="649" on="1"/>
        <pt x="149" y="383" on="1"/>
        <pt x="361" y="383" on="1"/>
        <pt x="354" y="341" on="1"/>
        <pt x="142" y="341" on="1"/>
        <pt x="97" y="42" on="1"/>
        <pt x="370" y="42" on="1"/>
        <pt x="364" y="0" on="1"/>
        <pt x="45" y="0" on="1"/>
        <pt x="148" y="690" on="1"/>
      </contour>
    </TTGlyph>
    <TTGlyph name="Eacute" xMin="45" yMin="0" xMax="461" yMax="881">
      <component glyphName="E" x="0" y="0" flags="0x204"/>
      <component glyphName="acute" x="113" y="205" flags="0x4"/>
    </TTGlyph>
    <TTGlyph name="Eacute.flat" xMin="45" yMin="0" xMax="461" yMax="881">
      <component glyphName="E.flat" x="0" y="0" flags="0x204"/>
      <component glyphName="acute" x="113" y="205" flags="0x4"/>
    </TTGlyph>
    <TTGlyph name="Ebreve" xMin="45" yMin="0" xMax="457" yMax="857">
      <component glyphName="E" x="0" y="0" flags="0x204"/>
      <component glyphName="breve" x="57" y="205" flags="0x4"/>
    </TTGlyph>
    <TTGlyph name="Ebreve.flat" xMin="45" yMin="0" xMax="457" yMax="857">
      <component glyphName="E.flat" x="0" y="0" flags="0x204"/>
      <component glyphName="breve" x="57" y="205" flags="0x4"/>
    </TTGlyph>
    <TTGlyph name="Ecaron" xMin="45" yMin="0" xMax="457" yMax="880">
      <component glyphName="E" x="0" y="0" flags="0x204"/>
      <component glyphName="caron" x="60" y="205" flags="0x4"/>
    </TTGlyph>
    <TTGlyph name="Ecaron.flat" xMin="45" yMin="0" xMax="457" yMax="880">
      <component glyphName="E.flat" x="0" y="0" flags="0x204"/>
      <component glyphName="caron" x="60" y="205" flags="0x4"/>
    </TTGlyph>
    <TTGlyph name="Ecircumflex" xMin="45" yMin="0" xMax="457" yMax="880">
      <component glyphName="E" x="0" y="0" flags="0x204"/>
      <component glyphName="circumflex" x="60" y="205" flags="0x4"/>
    </TTGlyph>
    <TTGlyph name="Ecircumflex.flat" xMin="45" yMin="0" xMax="457" yMax="880">
      <component glyphName="E.flat" x="0" y="0" flags="0x204"/>
      <component glyphName="circumflex" x="60" y="205" flags="0x4"/>
    </TTGlyph>
    <TTGlyph name="Edieresis" xMin="45" yMin="0" xMax="457" yMax="826">
      <component glyphName="E" x="0" y="0" flags="0x204"/>
      <component glyphName="dieresis" x="59" y="205" flags="0x4"/>
    </TTGlyph>
    <TTGlyph name="Edieresis.flat" xMin="45" yMin="0" xMax="457" yMax="826">
      <component glyphName="E.flat" x="0" y="0" flags="0x204"/>
      <component glyphName="dieresis" x="59" y="205" flags="0x4"/>
    </TTGlyph>
    <TTGlyph name="Edotaccent" xMin="45" yMin="0" xMax="457" yMax="826">
      <component glyphName="E" x="0" y="0" flags="0x204"/>
      <component glyphName="dotaccent" x="60" y="205" flags="0x4"/>
    </TTGlyph>
    <TTGlyph name="Edotaccent.flat" xMin="45" yMin="0" xMax="457" yMax="826">
      <component glyphName="E.flat" x="0" y="0" flags="0x204"/>
      <component glyphName="dotaccent" x="60" y="205" flags="0x4"/>
    </TTGlyph>
    <TTGlyph name="Egrave" xMin="45" yMin="0" xMax="457" yMax="882">
      <component glyphName="E" x="0" y="0" flags="0x204"/>
      <component glyphName="grave" x="3" y="205" flags="0x4"/>
    </TTGlyph>
    <TTGlyph name="Egrave.flat" xMin="45" yMin="0" xMax="457" yMax="882">
      <component glyphName="E.flat" x="0" y="0" flags="0x204"/>
      <component glyphName="grave" x="3" y="205" flags="0x4"/>
    </TTGlyph>
    <TTGlyph name="Emacron" xMin="45" yMin="0" xMax="457" yMax="814">
      <component glyphName="E" x="0" y="0" flags="0x204"/>
      <component glyphName="macron" x="59" y="205" flags="0x4"/>
    </TTGlyph>
    <TTGlyph name="Emacron.flat" xMin="45" yMin="0" xMax="457" yMax="814">
      <component glyphName="E.flat" x="0" y="0" flags="0x204"/>
      <component glyphName="macron" x="59" y="205" flags="0x4"/>
    </TTGlyph>
    <TTGlyph name="Eogonek" xMin="45" yMin="-162" xMax="457" yMax="690">
      <component glyphName="E" x="0" y="0" flags="0x4"/>
      <component glyphName="ogonek" x="125" y="0" flags="0x4"/>
    </TTGlyph>
    <TTGlyph name="Eogonek.flat" xMin="45" yMin="-162" xMax="457" yMax="690">
      <component glyphName="E.flat" x="0" y="0" flags="0x4"/>
      <component glyphName="ogonek" x="125" y="0" flags="0x4"/>
    </TTGlyph>
    <TTGlyph name="Eth" xMin="33" yMin="0" xMax="544" yMax="690">
      <contour>
        <pt x="182" y="0" on="1"/>
        <pt x="54" y="0" on="1"/>
        <pt x="105" y="341" on="1"/>
        <pt x="34" y="341" on="1"/>
        <pt x="33" y="382" on="1"/>
        <pt x="111" y="382" on="1"/>
        <pt x="157" y="690" on="1"/>
        <pt x="279" y="690" on="1"/>
        <pt x="408" y="690" on="0"/>
        <pt x="544" y="537" on="0"/>
        <pt x="544" y="410" on="1"/>
        <pt x="544" y="317" on="0"/>
        <pt x="484" y="155" on="0"/>
        <pt x="428" y="99" on="1"/>
        <pt x="382" y="53" on="0"/>
        <pt x="263" y="0" on="0"/>
      </contour>
      <contour>
        <pt x="107" y="41" on="1"/>
        <pt x="183" y="41" on="1"/>
        <pt x="252" y="41" on="0"/>
        <pt x="352" y="86" on="0"/>
        <pt x="391" y="125" on="1"/>
        <pt x="442" y="176" on="0"/>
        <pt x="495" y="325" on="0"/>
        <pt x="495" y="410" on="1"/>
        <pt x="495" y="523" on="0"/>
        <pt x="381" y="649" on="0"/>
        <pt x="273" y="649" on="1"/>
        <pt x="198" y="649" on="1"/>
        <pt x="158" y="382" on="1"/>
        <pt x="305" y="382" on="1"/>
        <pt x="299" y="341" on="1"/>
        <pt x="152" y="341" on="1"/>
      </contour>
    </TTGlyph>
    <TTGlyph name="Eth.flat" xMin="29" yMin="0" xMax="544" yMax="690">
      <contour>
        <pt x="182" y="0" on="1"/>
        <pt x="54" y="0" on="1"/>
        <pt x="105" y="341" on="1"/>
        <pt x="29" y="341" on="1"/>
        <pt x="36" y="382" on="1"/>
        <pt x="111" y="382" on="1"/>
        <pt x="157" y="690" on="1"/>
        <pt x="279" y="690" on="1"/>
        <pt x="408" y="690" on="0"/>
        <pt x="544" y="537" on="0"/>
        <pt x="544" y="410" on="1"/>
        <pt x="544" y="317" on="0"/>
        <pt x="484" y="155" on="0"/>
        <pt x="428" y="99" on="1"/>
        <pt x="382" y="53" on="0"/>
        <pt x="263" y="0" on="0"/>
      </contour>
      <contour>
        <pt x="107" y="41" on="1"/>
        <pt x="183" y="41" on="1"/>
        <pt x="252" y="41" on="0"/>
        <pt x="352" y="86" on="0"/>
        <pt x="391" y="125" on="1"/>
        <pt x="442" y="176" on="0"/>
        <pt x="495" y="325" on="0"/>
        <pt x="495" y="410" on="1"/>
        <pt x="495" y="523" on="0"/>
        <pt x="381" y="649" on="0"/>
        <pt x="273" y="649" on="1"/>
        <pt x="198" y="649" on="1"/>
        <pt x="158" y="382" on="1"/>
        <pt x="305" y="382" on="1"/>
        <pt x="299" y="341" on="1"/>
        <pt x="152" y="341" on="1"/>
      </contour>
    </TTGlyph>
    <TTGlyph name="Euro" xMin="33" yMin="-10" xMax="533" yMax="694">
      <contour>
        <pt x="454" y="38" on="1"/>
        <pt x="423" y="16" on="0"/>
        <pt x="355" y="-10" on="0"/>
        <pt x="315" y="-10" on="1"/>
        <pt x="226" y="-10" on="0"/>
        <pt x="118" y="130" on="0"/>
        <pt x="114" y="250" on="1"/>
        <pt x="33" y="250" on="1"/>
        <pt x="33" y="288" on="1"/>
        <pt x="114" y="288" on="1"/>
        <pt x="115" y="322" on="0"/>
        <pt x="126" y="388" on="0"/>
        <pt x="133" y="419" on="1"/>
        <pt x="54" y="419" on="1"/>
        <pt x="60" y="457" on="1"/>
        <pt x="145" y="457" on="1"/>
        <pt x="162" y="508" on="0"/>
        <pt x="214" y="595" on="0"/>
        <pt x="278" y="658" on="0"/>
        <pt x="355" y="694" on="0"/>
        <pt x="396" y="694" on="1"/>
        <pt x="439" y="694" on="0"/>
        <pt x="507" y="666" on="0"/>
        <pt x="533" y="644" on="1"/>
        <pt x="522" y="600" on="1"/>
        <pt x="494" y="625" on="0"/>
        <pt x="431" y="655" on="0"/>
        <pt x="394" y="655" on="1"/>
        <pt x="328" y="655" on="0"/>
        <pt x="221" y="542" on="0"/>
        <pt x="190" y="457" on="1"/>
        <pt x="407" y="457" on="1"/>
        <pt x="407" y="419" on="1"/>
        <pt x="178" y="419" on="1"/>
        <pt x="170" y="388" on="0"/>
        <pt x="159" y="322" on="0"/>
        <pt x="158" y="288" on="1"/>
        <pt x="386" y="288" on="1"/>
        <pt x="381" y="250" on="1"/>
        <pt x="158" y="250" on="1"/>
        <pt x="162" y="149" on="0"/>
        <pt x="246" y="29" on="0"/>
        <pt x="318" y="29" on="1"/>
        <pt x="352" y="29" on="0"/>
        <pt x="414" y="52" on="0"/>
        <pt x="454" y="82" on="1"/>
      </contour>
    </TTGlyph>
    <TTGlyph name="Euro.flat" xMin="28" yMin="-10" xMax="533" yMax="694">
      <contour>
        <pt x="454" y="38" on="1"/>
        <pt x="423" y="16" on="0"/>
        <pt x="355" y="-10" on="0"/>
        <pt x="315" y="-10" on="1"/>
        <pt x="226" y="-10" on="0"/>
        <pt x="118" y="130" on="0"/>
        <pt x="114" y="250" on="1"/>
        <pt x="28" y="250" on="1"/>
        <pt x="34" y="288" on="1"/>
        <pt x="114" y="288" on="1"/>
        <pt x="115" y="322" on="0"/>
        <pt x="126" y="388" on="0"/>
        <pt x="133" y="419" on="1"/>
        <pt x="54" y="419" on="1"/>
        <pt x="60" y="457" on="1"/>
        <pt x="145" y="457" on="1"/>
        <pt x="162" y="508" on="0"/>
        <pt x="214" y="595" on="0"/>
        <pt x="278" y="658" on="0"/>
        <pt x="355" y="694" on="0"/>
        <pt x="396" y="694" on="1"/>
        <pt x="439" y="694" on="0"/>
        <pt x="507" y="666" on="0"/>
        <pt x="533" y="644" on="1"/>
        <pt x="522" y="600" on="1"/>
        <pt x="494" y="625" on="0"/>
        <pt x="431" y="655" on="0"/>
        <pt x="394" y="655" on="1"/>
        <pt x="328" y="655" on="0"/>
        <pt x="221" y="542" on="0"/>
        <pt x="190" y="457" on="1"/>
        <pt x="411" y="457" on="1"/>
        <pt x="405" y="419" on="1"/>
        <pt x="178" y="419" on="1"/>
        <pt x="170" y="388" on="0"/>
        <pt x="159" y="322" on="0"/>
        <pt x="158" y="288" on="1"/>
        <pt x="386" y="288" on="1"/>
        <pt x="381" y="250" on="1"/>
        <pt x="158" y="250" on="1"/>
        <pt x="162" y="149" on="0"/>
        <pt x="246" y="29" on="0"/>
        <pt x="318" y="29" on="1"/>
        <pt x="352" y="29" on="0"/>
        <pt x="414" y="52" on="0"/>
        <pt x="454" y="82" on="1"/>
      </contour>
    </TTGlyph>
    <TTGlyph name="Euro.tab" xMin="38" yMin="-9" xMax="515" yMax="693">
      <contour>
        <pt x="442" y="40" on="1"/>
        <pt x="414" y="18" on="0"/>
        <pt x="342" y="-9" on="0"/>
        <pt x="299" y="-9" on="1"/>
        <pt x="220" y="-9" on="0"/>
        <pt x="112" y="123" on="0"/>
        <pt x="108" y="251" on="1"/>
        <pt x="38" y="251" on="1"/>
        <pt x="38" y="289" on="1"/>
        <pt x="108" y="289" on="1"/>
        <pt x="109" y="323" on="0"/>
        <pt x="117" y="388" on="0"/>
        <pt x="124" y="418" on="1"/>
        <pt x="59" y="418" on="1"/>
        <pt x="65" y="456" on="1"/>
        <pt x="134" y="456" on="1"/>
        <pt x="165" y="560" on="0"/>
        <pt x="292" y="693" on="0"/>
        <pt x="373" y="693" on="1"/>
        <pt x="416" y="693" on="0"/>
        <pt x="490" y="662" on="0"/>
        <pt x="515" y="642" on="1"/>
        <pt x="500" y="598" on="1"/>
        <pt x="474" y="623" on="0"/>
        <pt x="410" y="654" on="0"/>
        <pt x="373" y="654" on="1"/>
        <pt x="307" y="654" on="0"/>
        <pt x="206" y="543" on="0"/>
        <pt x="179" y="456" on="1"/>
        <pt x="405" y="456" on="1"/>
        <pt x="405" y="418" on="1"/>
        <pt x="169" y="418" on="1"/>
        <pt x="162" y="388" on="0"/>
        <pt x="153" y="323" on="0"/>
        <pt x="152" y="289" on="1"/>
        <pt x="383" y="289" on="1"/>
        <pt x="377" y="251" on="1"/>
        <pt x="152" y="251" on="1"/>
        <pt x="156" y="147" on="0"/>
        <pt x="239" y="30" on="0"/>
        <pt x="303" y="30" on="1"/>
        <pt x="338" y="30" on="0"/>
        <pt x="406" y="56" on="0"/>
        <pt x="442" y="84" on="1"/>
      </contour>
    </TTGlyph>
    <TTGlyph name="Euro.tab_flat" xMin="34" yMin="-9" xMax="515" yMax="695">
      <contour>
        <pt x="442" y="40" on="1"/>
        <pt x="414" y="18" on="0"/>
        <pt x="342" y="-9" on="0"/>
        <pt x="299" y="-9" on="1"/>
        <pt x="220" y="-9" on="0"/>
        <pt x="112" y="123" on="0"/>
        <pt x="108" y="251" on="1"/>
        <pt x="34" y="251" on="1"/>
        <pt x="40" y="289" on="1"/>
        <pt x="108" y="289" on="1"/>
        <pt x="109" y="323" on="0"/>
        <pt x="117" y="387" on="0"/>
        <pt x="124" y="418" on="1"/>
        <pt x="59" y="418" on="1"/>
        <pt x="65" y="456" on="1"/>
        <pt x="134" y="456" on="1"/>
        <pt x="150" y="508" on="0"/>
        <pt x="198" y="596" on="0"/>
        <pt x="258" y="660" on="0"/>
        <pt x="332" y="695" on="0"/>
        <pt x="373" y="695" on="1"/>
        <pt x="416" y="695" on="0"/>
        <pt x="490" y="663" on="0"/>
        <pt x="515" y="643" on="1"/>
        <pt x="500" y="600" on="1"/>
        <pt x="474" y="624" on="0"/>
        <pt x="410" y="655" on="0"/>
        <pt x="373" y="655" on="1"/>
        <pt x="307" y="655" on="0"/>
        <pt x="206" y="543" on="0"/>
        <pt x="179" y="456" on="1"/>
        <pt x="408" y="456" on="1"/>
        <pt x="402" y="418" on="1"/>
        <pt x="169" y="418" on="1"/>
        <pt x="162" y="387" on="0"/>
        <pt x="153" y="323" on="0"/>
        <pt x="152" y="289" on="1"/>
        <pt x="383" y="289" on="1"/>
        <pt x="377" y="251" on="1"/>
        <pt x="152" y="251" on="1"/>
        <pt x="156" y="147" on="0"/>
        <pt x="239" y="30" on="0"/>
        <pt x="303" y="30" on="1"/>
        <pt x="338" y="30" on="0"/>
        <pt x="406" y="56" on="0"/>
        <pt x="442" y="84" on="1"/>
      </contour>
    </TTGlyph>
    <TTGlyph name="F" xMin="45" yMin="0" xMax="446" yMax="690">
      <contour>
        <pt x="446" y="690" on="1"/>
        <pt x="439" y="649" on="1"/>
        <pt x="188" y="649" on="1"/>
        <pt x="147" y="372" on="1"/>
        <pt x="348" y="372" on="1"/>
        <pt x="348" y="330" on="1"/>
        <pt x="141" y="330" on="1"/>
        <pt x="91" y="0" on="1"/>
        <pt x="45" y="0" on="1"/>
        <pt x="148" y="690" on="1"/>
      </contour>
    </TTGlyph>
    <TTGlyph name="F.flat" xMin="45" yMin="0" xMax="446" yMax="690">
      <contour>
        <pt x="446" y="690" on="1"/>
        <pt x="439" y="649" on="1"/>
        <pt x="188" y="649" on="1"/>
        <pt x="147" y="372" on="1"/>
        <pt x="351" y="372" on="1"/>
        <pt x="344" y="330" on="1"/>
        <pt x="141" y="330" on="1"/>
        <pt x="91" y="0" on="1"/>
        <pt x="45" y="0" on="1"/>
        <pt x="148" y="690" on="1"/>
      </contour>
    </TTGlyph>
    <TTGlyph name="G" xMin="58" yMin="-10" xMax="530" yMax="701">
      <contour>
        <pt x="507" y="353" on="1"/>
        <pt x="460" y="50" on="1"/>
        <pt x="420" y="22" on="0"/>
        <pt x="335" y="-10" on="0"/>
        <pt x="285" y="-10" on="1"/>
        <pt x="233" y="-10" on="0"/>
        <pt x="148" y="32" on="0"/>
        <pt x="90" y="106" on="0"/>
        <pt x="58" y="209" on="0"/>
        <pt x="58" y="269" on="1"/>
        <pt x="58" y="354" on="0"/>
        <pt x="105" y="511" on="0"/>
        <pt x="187" y="630" on="0"/>
        <pt x="302" y="701" on="0"/>
        <pt x="369" y="701" on="1"/>
        <pt x="422" y="701" on="0"/>
        <pt x="502" y="665" on="0"/>
        <pt x="530" y="640" on="1"/>
        <pt x="518" y="590" on="1"/>
        <pt x="487" y="622" on="0"/>
        <pt x="415" y="659" on="0"/>
        <pt x="369" y="659" on="1"/>
        <pt x="312" y="659" on="0"/>
        <pt x="215" y="595" on="0"/>
        <pt x="145" y="489" on="0"/>
        <pt x="106" y="347" on="0"/>
        <pt x="106" y="270" on="1"/>
        <pt x="106" y="218" on="0"/>
        <pt x="132" y="130" on="0"/>
        <pt x="179" y="67" on="0"/>
        <pt x="246" y="32" on="0"/>
        <pt x="287" y="32" on="1"/>
        <pt x="329" y="32" on="0"/>
        <pt x="395" y="56" on="0"/>
        <pt x="418" y="72" on="1"/>
        <pt x="454" y="312" on="1"/>
        <pt x="308" y="312" on="1"/>
        <pt x="308" y="353" on="1"/>
      </contour>
    </TTGlyph>
    <TTGlyph name="G.flat" xMin="58" yMin="-10" xMax="530" yMax="701">
      <contour>
        <pt x="507" y="353" on="1"/>
        <pt x="460" y="50" on="1"/>
        <pt x="420" y="22" on="0"/>
        <pt x="335" y="-10" on="0"/>
        <pt x="285" y="-10" on="1"/>
        <pt x="233" y="-10" on="0"/>
        <pt x="148" y="32" on="0"/>
        <pt x="90" y="106" on="0"/>
        <pt x="58" y="209" on="0"/>
        <pt x="58" y="269" on="1"/>
        <pt x="58" y="354" on="0"/>
        <pt x="105" y="511" on="0"/>
        <pt x="187" y="630" on="0"/>
        <pt x="302" y="701" on="0"/>
        <pt x="369" y="701" on="1"/>
        <pt x="422" y="701" on="0"/>
        <pt x="502" y="665" on="0"/>
        <pt x="530" y="640" on="1"/>
        <pt x="518" y="590" on="1"/>
        <pt x="487" y="622" on="0"/>
        <pt x="415" y="659" on="0"/>
        <pt x="369" y="659" on="1"/>
        <pt x="312" y="659" on="0"/>
        <pt x="215" y="595" on="0"/>
        <pt x="145" y="489" on="0"/>
        <pt x="106" y="347" on="0"/>
        <pt x="106" y="270" on="1"/>
        <pt x="106" y="218" on="0"/>
        <pt x="132" y="130" on="0"/>
        <pt x="179" y="67" on="0"/>
        <pt x="246" y="32" on="0"/>
        <pt x="287" y="32" on="1"/>
        <pt x="329" y="32" on="0"/>
        <pt x="395" y="56" on="0"/>
        <pt x="418" y="72" on="1"/>
        <pt x="454" y="312" on="1"/>
        <pt x="304" y="312" on="1"/>
        <pt x="311" y="353" on="1"/>
      </contour>
    </TTGlyph>
    <TTGlyph name="Gbreve" xMin="58" yMin="-10" xMax="530" yMax="867">
      <component glyphName="G" x="0" y="0" flags="0x204"/>
      <component glyphName="breve" x="123" y="215" flags="0x4"/>
    </TTGlyph>
    <TTGlyph name="Gbreve.flat" xMin="58" yMin="-10" xMax="530" yMax="867">
      <component glyphName="G.flat" x="0" y="0" flags="0x204"/>
      <component glyphName="breve" x="123" y="215" flags="0x4"/>
    </TTGlyph>
    <TTGlyph name="Gcommaaccent" xMin="58" yMin="-219" xMax="530" yMax="701">
      <component glyphName="G" x="0" y="0" flags="0x204"/>
      <component glyphName="commaaccent" x="88" y="0" flags="0x4"/>
    </TTGlyph>
    <TTGlyph name="Gcommaaccent.flat" xMin="58" yMin="-219" xMax="530" yMax="701">
      <component glyphName="G.flat" x="0" y="0" flags="0x204"/>
      <component glyphName="commaaccent" x="88" y="0" flags="0x4"/>
    </TTGlyph>
    <TTGlyph name="Gdotaccent" xMin="58" yMin="-10" xMax="530" yMax="836">
      <component glyphName="G" x="0" y="0" flags="0x204"/>
      <component glyphName="dotaccent" x="125" y="215" flags="0x4"/>
    </TTGlyph>
    <TTGlyph name="Gdotaccent.flat" xMin="58" yMin="-10" xMax="530" yMax="836">
      <component glyphName="G.flat" x="0" y="0" flags="0x204"/>
      <component glyphName="dotaccent" x="125" y="215" flags="0x4"/>
    </TTGlyph>
    <TTGlyph name="H" xMin="45" yMin="0" xMax="567" yMax="690">
      <contour>
        <pt x="567" y="690" on="1"/>
        <pt x="463" y="0" on="1"/>
        <pt x="417" y="0" on="1"/>
        <pt x="468" y="341" on="1"/>
        <pt x="142" y="341" on="1"/>
        <pt x="91" y="0" on="1"/>
        <pt x="45" y="0" on="1"/>
        <pt x="148" y="690" on="1"/>
        <pt x="195" y="690" on="1"/>
        <pt x="149" y="382" on="1"/>
        <pt x="474" y="382" on="1"/>
        <pt x="520" y="690" on="1"/>
      </contour>
    </TTGlyph>
    <TTGlyph name="Hbar" xMin="54" yMin="0" xMax="634" yMax="690">
      <contour>
        <pt x="158" y="382" on="1"/>
        <pt x="483" y="382" on="1"/>
        <pt x="505" y="531" on="1"/>
        <pt x="180" y="531" on="1"/>
      </contour>
      <contour>
        <pt x="151" y="341" on="1"/>
        <pt x="100" y="0" on="1"/>
        <pt x="54" y="0" on="1"/>
        <pt x="133" y="531" on="1"/>
        <pt x="62" y="531" on="1"/>
        <pt x="61" y="570" on="1"/>
        <pt x="139" y="570" on="1"/>
        <pt x="157" y="690" on="1"/>
        <pt x="204" y="690" on="1"/>
        <pt x="186" y="570" on="1"/>
        <pt x="511" y="570" on="1"/>
        <pt x="529" y="690" on="1"/>
        <pt x="576" y="690" on="1"/>
        <pt x="558" y="570" on="1"/>
        <pt x="634" y="570" on="1"/>
        <pt x="628" y="531" on="1"/>
        <pt x="552" y="531" on="1"/>
        <pt x="472" y="0" on="1"/>
        <pt x="426" y="0" on="1"/>
        <pt x="477" y="341" on="1"/>
      </contour>
    </TTGlyph>
    <TTGlyph name="Hbar.flat" xMin="54" yMin="0" xMax="634" yMax="690">
      <contour>
        <pt x="158" y="382" on="1"/>
        <pt x="483" y="382" on="1"/>
        <pt x="505" y="531" on="1"/>
        <pt x="180" y="531" on="1"/>
      </contour>
      <contour>
        <pt x="151" y="341" on="1"/>
        <pt x="100" y="0" on="1"/>
        <pt x="54" y="0" on="1"/>
        <pt x="133" y="531" on="1"/>
        <pt x="57" y="531" on="1"/>
        <pt x="64" y="570" on="1"/>
        <pt x="139" y="570" on="1"/>
        <pt x="157" y="690" on="1"/>
        <pt x="204" y="690" on="1"/>
        <pt x="186" y="570" on="1"/>
        <pt x="511" y="570" on="1"/>
        <pt x="529" y="690" on="1"/>
        <pt x="576" y="690" on="1"/>
        <pt x="558" y="570" on="1"/>
        <pt x="634" y="570" on="1"/>
        <pt x="628" y="531" on="1"/>
        <pt x="552" y="531" on="1"/>
        <pt x="472" y="0" on="1"/>
        <pt x="426" y="0" on="1"/>
        <pt x="477" y="341" on="1"/>
      </contour>
    </TTGlyph>
    <TTGlyph name="I" xMin="53" yMin="0" xMax="203" yMax="690">
      <contour>
        <pt x="203" y="690" on="1"/>
        <pt x="100" y="0" on="1"/>
        <pt x="53" y="0" on="1"/>
        <pt x="157" y="690" on="1"/>
      </contour>
    </TTGlyph>
    <TTGlyph name="Iacute" xMin="53" yMin="0" xMax="339" yMax="881">
      <component glyphName="I" x="0" y="0" flags="0x204"/>
      <component glyphName="acute" x="-9" y="205" flags="0x4"/>
    </TTGlyph>
    <TTGlyph name="Ibreve" xMin="53" yMin="0" xMax="310" yMax="857">
      <component glyphName="I" x="0" y="0" flags="0x204"/>
      <component glyphName="breve" x="-66" y="205" flags="0x4"/>
    </TTGlyph>
    <TTGlyph name="Icircumflex" xMin="53" yMin="0" xMax="296" yMax="880">
      <component glyphName="I" x="0" y="0" flags="0x204"/>
      <component glyphName="circumflex" x="-62" y="205" flags="0x4"/>
    </TTGlyph>
    <TTGlyph name="Idieresis" xMin="53" yMin="0" xMax="302" yMax="826">
      <component glyphName="I" x="0" y="0" flags="0x204"/>
      <component glyphName="dieresis" x="-63" y="205" flags="0x4"/>
    </TTGlyph>
    <TTGlyph name="Idotaccent" xMin="53" yMin="0" xMax="233" yMax="826">
      <component glyphName="I" x="0" y="0" flags="0x204"/>
      <component glyphName="dotaccent" x="-62" y="205" flags="0x4"/>
    </TTGlyph>
    <TTGlyph name="Igrave" xMin="53" yMin="0" xMax="206" yMax="882">
      <component glyphName="I" x="0" y="0" flags="0x204"/>
      <component glyphName="grave" x="-119" y="205" flags="0x4"/>
    </TTGlyph>
    <TTGlyph name="Imacron" xMin="53" yMin="0" xMax="310" yMax="814">
      <component glyphName="I" x="0" y="0" flags="0x204"/>
      <component glyphName="macron" x="-63" y="205" flags="0x4"/>
    </TTGlyph>
    <TTGlyph name="Iogonek" xMin="-12" yMin="-162" xMax="203" yMax="690">
      <component glyphName="I" x="0" y="0" flags="0x204"/>
      <component glyphName="ogonek" x="-123" y="0" flags="0x4"/>
    </TTGlyph>
    <TTGlyph name="J" xMin="-6" yMin="-6" xMax="285" yMax="690">
      <contour>
        <pt x="285" y="690" on="1"/>
        <pt x="205" y="151" on="1"/>
        <pt x="193" y="69" on="0"/>
        <pt x="112" y="-6" on="0"/>
        <pt x="54" y="-6" on="1"/>
        <pt x="37" y="-6" on="0"/>
        <pt x="6" y="-1" on="0"/>
        <pt x="-6" y="3" on="1"/>
        <pt x="-6" y="47" on="1"/>
        <pt x="7" y="43" on="0"/>
        <pt x="38" y="36" on="0"/>
        <pt x="56" y="36" on="1"/>
        <pt x="98" y="36" on="0"/>
        <pt x="150" y="94" on="0"/>
        <pt x="159" y="155" on="1"/>
        <pt x="239" y="690" on="1"/>
      </contour>
    </TTGlyph>
    <TTGlyph name="K" xMin="45" yMin="-7" xMax="537" yMax="690">
      <contour>
        <pt x="537" y="690" on="1"/>
        <pt x="195" y="365" on="1"/>
        <pt x="446" y="4" on="1"/>
        <pt x="396" y="-7" on="1"/>
        <pt x="145" y="357" on="1"/>
        <pt x="91" y="0" on="1"/>
        <pt x="45" y="0" on="1"/>
        <pt x="148" y="690" on="1"/>
        <pt x="195" y="690" on="1"/>
        <pt x="147" y="374" on="1"/>
        <pt x="476" y="690" on="1"/>
      </contour>
    </TTGlyph>
    <TTGlyph name="K.flat" xMin="45" yMin="0" xMax="537" yMax="690">
      <contour>
        <pt x="537" y="690" on="1"/>
        <pt x="195" y="365" on="1"/>
        <pt x="448" y="0" on="1"/>
        <pt x="391" y="0" on="1"/>
        <pt x="145" y="357" on="1"/>
        <pt x="91" y="0" on="1"/>
        <pt x="45" y="0" on="1"/>
        <pt x="148" y="690" on="1"/>
        <pt x="195" y="690" on="1"/>
        <pt x="147" y="374" on="1"/>
        <pt x="476" y="690" on="1"/>
      </contour>
    </TTGlyph>
    <TTGlyph name="Kcommaaccent" xMin="45" yMin="-219" xMax="537" yMax="690">
      <component glyphName="K" x="0" y="0" flags="0x204"/>
      <component glyphName="commaaccent" x="48" y="0" flags="0x4"/>
    </TTGlyph>
    <TTGlyph name="Kcommaaccent.flat" xMin="45" yMin="-219" xMax="537" yMax="690">
      <component glyphName="K.flat" x="0" y="0" flags="0x204"/>
      <component glyphName="commaaccent" x="47" y="0" flags="0x4"/>
    </TTGlyph>
    <TTGlyph name="L" xMin="45" yMin="0" xMax="341" yMax="690">
      <contour>
        <pt x="341" y="0" on="1"/>
        <pt x="45" y="0" on="1"/>
        <pt x="148" y="690" on="1"/>
        <pt x="195" y="690" on="1"/>
        <pt x="97" y="42" on="1"/>
        <pt x="341" y="42" on="1"/>
      </contour>
    </TTGlyph>
    <TTGlyph name="L.flat" xMin="45" yMin="0" xMax="344" yMax="690">
      <contour>
        <pt x="338" y="0" on="1"/>
        <pt x="45" y="0" on="1"/>
        <pt x="148" y="690" on="1"/>
        <pt x="195" y="690" on="1"/>
        <pt x="97" y="42" on="1"/>
        <pt x="344" y="42" on="1"/>
      </contour>
    </TTGlyph>
    <TTGlyph name="Lacute" xMin="45" yMin="0" xMax="341" yMax="876">
      <component glyphName="L" x="0" y="0" flags="0x204"/>
      <component glyphName="acute" x="-12" y="200" flags="0x4"/>
    </TTGlyph>
    <TTGlyph name="Lacute.flat" xMin="45" yMin="0" xMax="344" yMax="876">
      <component glyphName="L.flat" x="0" y="0" flags="0x204"/>
      <component glyphName="acute" x="-12" y="200" flags="0x4"/>
    </TTGlyph>
    <TTGlyph name="Lcaron" xMin="45" yMin="0" xMax="341" yMax="694">
      <component glyphName="L" x="0" y="0" flags="0x204"/>
      <component glyphName="caron.alt" x="54" y="-19" flags="0x4"/>
    </TTGlyph>
    <TTGlyph name="Lcaron.flat" xMin="45" yMin="0" xMax="344" yMax="694">
      <component glyphName="L.flat" x="0" y="0" flags="0x204"/>
      <component glyphName="caron.alt" x="54" y="-19" flags="0x4"/>
    </TTGlyph>
    <TTGlyph name="Lcommaaccent" xMin="45" yMin="-219" xMax="341" yMax="690">
      <component glyphName="L" x="0" y="0" flags="0x204"/>
      <component glyphName="commaaccent" x="12" y="0" flags="0x4"/>
    </TTGlyph>
    <TTGlyph name="Lcommaaccent.flat" xMin="45" yMin="-219" xMax="344" yMax="690">
      <component glyphName="L.flat" x="0" y="0" flags="0x204"/>
      <component glyphName="commaaccent" x="12" y="0" flags="0x4"/>
    </TTGlyph>
    <TTGlyph name="Ldot" xMin="45" yMin="0" xMax="350" yMax="690">
      <contour>
        <pt x="341" y="0" on="1"/>
        <pt x="45" y="0" on="1"/>
        <pt x="148" y="690" on="1"/>
        <pt x="195" y="690" on="1"/>
        <pt x="97" y="42" on="1"/>
        <pt x="341" y="42" on="1"/>
      </contour>
      <contour>
        <pt x="338" y="313" on="1"/>
        <pt x="279" y="313" on="1"/>
        <pt x="292" y="391" on="1"/>
        <pt x="350" y="391" on="1"/>
      </contour>
    </TTGlyph>
    <TTGlyph name="Ldot.flat" xMin="45" yMin="0" xMax="350" yMax="690">
      <contour>
        <pt x="338" y="0" on="1"/>
        <pt x="45" y="0" on="1"/>
        <pt x="148" y="690" on="1"/>
        <pt x="195" y="690" on="1"/>
        <pt x="97" y="42" on="1"/>
        <pt x="344" y="42" on="1"/>
      </contour>
      <contour>
        <pt x="338" y="313" on="1"/>
        <pt x="279" y="313" on="1"/>
        <pt x="292" y="391" on="1"/>
        <pt x="350" y="391" on="1"/>
      </contour>
    </TTGlyph>
    <TTGlyph name="Lslash" xMin="19" yMin="0" xMax="350" yMax="690">
      <contour>
        <pt x="350" y="0" on="1"/>
        <pt x="54" y="0" on="1"/>
        <pt x="98" y="294" on="1"/>
        <pt x="20" y="254" on="1"/>
        <pt x="19" y="297" on="1"/>
        <pt x="105" y="341" on="1"/>
        <pt x="157" y="690" on="1"/>
        <pt x="204" y="690" on="1"/>
        <pt x="155" y="366" on="1"/>
        <pt x="305" y="443" on="1"/>
        <pt x="297" y="396" on="1"/>
        <pt x="148" y="320" on="1"/>
        <pt x="106" y="41" on="1"/>
        <pt x="350" y="41" on="1"/>
      </contour>
    </TTGlyph>
    <TTGlyph name="Lslash.flat" xMin="16" yMin="0" xMax="353" yMax="690">
      <contour>
        <pt x="347" y="0" on="1"/>
        <pt x="54" y="0" on="1"/>
        <pt x="98" y="294" on="1"/>
        <pt x="16" y="252" on="1"/>
        <pt x="23" y="299" on="1"/>
        <pt x="105" y="341" on="1"/>
        <pt x="157" y="690" on="1"/>
        <pt x="204" y="690" on="1"/>
        <pt x="155" y="366" on="1"/>
        <pt x="305" y="443" on="1"/>
        <pt x="297" y="396" on="1"/>
        <pt x="148" y="320" on="1"/>
        <pt x="106" y="41" on="1"/>
        <pt x="353" y="41" on="1"/>
      </contour>
    </TTGlyph>
    <TTGlyph name="M" xMin="31" yMin="-4" xMax="718" yMax="690">
      <contour>
        <pt x="718" y="690" on="1"/>
        <pt x="657" y="0" on="1"/>
        <pt x="612" y="0" on="1"/>
        <pt x="670" y="611" on="1"/>
        <pt x="360" y="-4" on="1"/>
        <pt x="329" y="-4" on="1"/>
        <pt x="207" y="611" on="1"/>
        <pt x="73" y="0" on="1"/>
        <pt x="31" y="0" on="1"/>
        <pt x="184" y="690" on="1"/>
        <pt x="237" y="690" on="1"/>
        <pt x="357" y="73" on="1"/>
        <pt x="662" y="690" on="1"/>
      </contour>
    </TTGlyph>
    <TTGlyph name="M.alt" xMin="45" yMin="-4" xMax="730" yMax="690">
      <contour>
        <pt x="627" y="0" on="1"/>
        <pt x="583" y="0" on="1"/>
        <pt x="674" y="609" on="1"/>
        <pt x="350" y="-4" on="1"/>
        <pt x="318" y="-4" on="1"/>
        <pt x="179" y="609" on="1"/>
        <pt x="87" y="0" on="1"/>
        <pt x="45" y="0" on="1"/>
        <pt x="148" y="690" on="1"/>
        <pt x="206" y="690" on="1"/>
        <pt x="344" y="63" on="1"/>
        <pt x="673" y="690" on="1"/>
        <pt x="730" y="690" on="1"/>
      </contour>
    </TTGlyph>
    <TTGlyph name="N" xMin="45" yMin="0" xMax="566" yMax="690">
      <contour>
        <pt x="566" y="690" on="1"/>
        <pt x="462" y="0" on="1"/>
        <pt x="429" y="0" on="1"/>
        <pt x="178" y="608" on="1"/>
        <pt x="89" y="0" on="1"/>
        <pt x="45" y="0" on="1"/>
        <pt x="148" y="690" on="1"/>
        <pt x="192" y="690" on="1"/>
        <pt x="435" y="98" on="1"/>
        <pt x="522" y="690" on="1"/>
      </contour>
    </TTGlyph>
    <TTGlyph name="Nacute" xMin="45" yMin="0" xMax="566" yMax="881">
      <component glyphName="N" x="0" y="0" flags="0x204"/>
      <component glyphName="acute" x="168" y="205" flags="0x4"/>
    </TTGlyph>
    <TTGlyph name="Ncaron" xMin="45" yMin="0" xMax="566" yMax="880">
      <component glyphName="N" x="0" y="0" flags="0x204"/>
      <component glyphName="caron" x="114" y="205" flags="0x4"/>
    </TTGlyph>
    <TTGlyph name="Ncommaaccent" xMin="45" yMin="-219" xMax="566" yMax="690">
      <component glyphName="N" x="0" y="0" flags="0x204"/>
      <component glyphName="commaaccent" x="77" y="0" flags="0x4"/>
    </TTGlyph>
    <TTGlyph name="Ntilde" xMin="45" yMin="0" xMax="566" yMax="848">
      <component glyphName="N" x="0" y="0" flags="0x204"/>
      <component glyphName="tilde" x="116" y="205" flags="0x4"/>
    </TTGlyph>
    <TTGlyph name="O" xMin="59" yMin="-11" xMax="577" yMax="701">
      <contour>
        <pt x="274" y="-11" on="1"/>
        <pt x="224" y="-11" on="0"/>
        <pt x="143" y="31" on="0"/>
        <pt x="88" y="105" on="0"/>
        <pt x="59" y="208" on="0"/>
        <pt x="59" y="270" on="1"/>
        <pt x="59" y="320" on="0"/>
        <pt x="77" y="422" on="0"/>
        <pt x="110" y="515" on="0"/>
        <pt x="158" y="596" on="0"/>
        <pt x="189" y="627" on="1"/>
        <pt x="224" y="662" on="0"/>
        <pt x="313" y="701" on="0"/>
        <pt x="362" y="701" on="1"/>
        <pt x="412" y="701" on="0"/>
        <pt x="492" y="659" on="0"/>
        <pt x="547" y="586" on="0"/>
        <pt x="577" y="482" on="0"/>
        <pt x="577" y="421" on="1"/>
        <pt x="577" y="371" on="0"/>
        <pt x="559" y="269" on="0"/>
        <pt x="525" y="176" on="0"/>
        <pt x="477" y="95" on="0"/>
        <pt x="446" y="64" on="1"/>
        <pt x="411" y="29" on="0"/>
        <pt x="323" y="-11" on="0"/>
      </contour>
      <contour>
        <pt x="275" y="31" on="1"/>
        <pt x="313" y="31" on="0"/>
        <pt x="384" y="63" on="0"/>
        <pt x="412" y="92" on="1"/>
        <pt x="438" y="118" on="0"/>
        <pt x="482" y="191" on="0"/>
        <pt x="512" y="277" on="0"/>
        <pt x="528" y="372" on="0"/>
        <pt x="528" y="420" on="1"/>
        <pt x="528" y="530" on="0"/>
        <pt x="437" y="660" on="0"/>
        <pt x="360" y="660" on="1"/>
        <pt x="322" y="660" on="0"/>
        <pt x="252" y="627" on="0"/>
        <pt x="223" y="599" on="1"/>
        <pt x="197" y="573" on="0"/>
        <pt x="154" y="499" on="0"/>
        <pt x="124" y="414" on="0"/>
        <pt x="107" y="319" on="0"/>
        <pt x="107" y="271" on="1"/>
        <pt x="107" y="161" on="0"/>
        <pt x="199" y="31" on="0"/>
      </contour>
    </TTGlyph>
    <TTGlyph name="OE" xMin="58" yMin="0" xMax="790" yMax="690">
      <contour>
        <pt x="312" y="0" on="1"/>
        <pt x="188" y="0" on="0"/>
        <pt x="58" y="154" on="0"/>
        <pt x="58" y="281" on="1"/>
        <pt x="58" y="373" on="0"/>
        <pt x="117" y="537" on="0"/>
        <pt x="173" y="594" on="1"/>
        <pt x="218" y="639" on="0"/>
        <pt x="335" y="690" on="0"/>
        <pt x="409" y="690" on="1"/>
        <pt x="790" y="690" on="1"/>
        <pt x="783" y="649" on="1"/>
        <pt x="526" y="649" on="1"/>
        <pt x="486" y="382" on="1"/>
        <pt x="690" y="382" on="1"/>
        <pt x="690" y="341" on="1"/>
        <pt x="480" y="341" on="1"/>
        <pt x="435" y="41" on="1"/>
        <pt x="703" y="41" on="1"/>
        <pt x="696" y="0" on="1"/>
      </contour>
      <contour>
        <pt x="319" y="41" on="1"/>
        <pt x="388" y="41" on="1"/>
        <pt x="480" y="650" on="1"/>
        <pt x="408" y="650" on="1"/>
        <pt x="348" y="650" on="0"/>
        <pt x="247" y="606" on="0"/>
        <pt x="210" y="568" on="1"/>
        <pt x="160" y="517" on="0"/>
        <pt x="106" y="366" on="0"/>
        <pt x="106" y="280" on="1"/>
        <pt x="106" y="167" on="0"/>
        <pt x="215" y="41" on="0"/>
      </contour>
    </TTGlyph>
    <TTGlyph name="OE.flat" xMin="58" yMin="0" xMax="790" yMax="690">
      <contour>
        <pt x="312" y="0" on="1"/>
        <pt x="188" y="0" on="0"/>
        <pt x="58" y="154" on="0"/>
        <pt x="58" y="281" on="1"/>
        <pt x="58" y="373" on="0"/>
        <pt x="117" y="537" on="0"/>
        <pt x="173" y="594" on="1"/>
        <pt x="218" y="639" on="0"/>
        <pt x="335" y="690" on="0"/>
        <pt x="409" y="690" on="1"/>
        <pt x="790" y="690" on="1"/>
        <pt x="783" y="649" on="1"/>
        <pt x="526" y="649" on="1"/>
        <pt x="486" y="382" on="1"/>
        <pt x="693" y="382" on="1"/>
        <pt x="687" y="341" on="1"/>
        <pt x="480" y="341" on="1"/>
        <pt x="435" y="41" on="1"/>
        <pt x="703" y="41" on="1"/>
        <pt x="696" y="0" on="1"/>
      </contour>
      <contour>
        <pt x="319" y="41" on="1"/>
        <pt x="388" y="41" on="1"/>
        <pt x="480" y="649" on="1"/>
        <pt x="408" y="649" on="1"/>
        <pt x="348" y="649" on="0"/>
        <pt x="247" y="606" on="0"/>
        <pt x="210" y="568" on="1"/>
        <pt x="160" y="517" on="0"/>
        <pt x="106" y="366" on="0"/>
        <pt x="106" y="280" on="1"/>
        <pt x="106" y="167" on="0"/>
        <pt x="215" y="41" on="0"/>
      </contour>
    </TTGlyph>
    <TTGlyph name="Oacute" xMin="59" yMin="-11" xMax="577" yMax="891">
      <component glyphName="O" x="0" y="0" flags="0x204"/>
      <component glyphName="acute" x="189" y="215" flags="0x4"/>
    </TTGlyph>
    <TTGlyph name="Obreve" xMin="59" yMin="-11" xMax="577" yMax="867">
      <component glyphName="O" x="0" y="0" flags="0x204"/>
      <component glyphName="breve" x="133" y="215" flags="0x4"/>
    </TTGlyph>
    <TTGlyph name="Ocircumflex" xMin="59" yMin="-11" xMax="577" yMax="890">
      <component glyphName="O" x="0" y="0" flags="0x204"/>
      <component glyphName="circumflex" x="137" y="215" flags="0x4"/>
    </TTGlyph>
    <TTGlyph name="Odieresis" xMin="59" yMin="-11" xMax="577" yMax="836">
      <component glyphName="O" x="0" y="0" flags="0x204"/>
      <component glyphName="dieresis" x="135" y="215" flags="0x4"/>
    </TTGlyph>
    <TTGlyph name="Ograve" xMin="59" yMin="-11" xMax="577" yMax="892">
      <component glyphName="O" x="0" y="0" flags="0x204"/>
      <component glyphName="grave" x="79" y="215" flags="0x4"/>
    </TTGlyph>
    <TTGlyph name="Ohungarumlaut" xMin="59" yMin="-11" xMax="605" yMax="894">
      <component glyphName="O" x="0" y="0" flags="0x204"/>
      <component glyphName="hungarumlaut" x="191" y="215" flags="0x4"/>
    </TTGlyph>
    <TTGlyph name="Omacron" xMin="59" yMin="-11" xMax="577" yMax="824">
      <component glyphName="O" x="0" y="0" flags="0x204"/>
      <component glyphName="macron" x="135" y="215" flags="0x4"/>
    </TTGlyph>
    <TTGlyph name="Oslash" xMin="19" yMin="-11" xMax="616" yMax="700">
      <contour>
        <pt x="275" y="-11" on="1"/>
        <pt x="226" y="-11" on="0"/>
        <pt x="147" y="29" on="0"/>
        <pt x="119" y="64" on="1"/>
        <pt x="62" y="-7" on="1"/>
        <pt x="19" y="2" on="1"/>
        <pt x="96" y="99" on="1"/>
        <pt x="78" y="133" on="0"/>
        <pt x="59" y="221" on="0"/>
        <pt x="59" y="270" on="1"/>
        <pt x="59" y="374" on="0"/>
        <pt x="128" y="564" on="0"/>
        <pt x="188" y="624" on="1"/>
        <pt x="222" y="658" on="0"/>
        <pt x="310" y="700" on="0"/>
        <pt x="361" y="700" on="1"/>
        <pt x="410" y="700" on="0"/>
        <pt x="489" y="661" on="0"/>
        <pt x="517" y="625" on="1"/>
        <pt x="573" y="697" on="1"/>
        <pt x="616" y="688" on="1"/>
        <pt x="539" y="591" on="1"/>
        <pt x="558" y="557" on="0"/>
        <pt x="577" y="470" on="0"/>
        <pt x="577" y="420" on="1"/>
        <pt x="577" y="315" on="0"/>
        <pt x="508" y="126" on="0"/>
        <pt x="448" y="66" on="1"/>
        <pt x="413" y="31" on="0"/>
        <pt x="326" y="-11" on="0"/>
      </contour>
      <contour>
        <pt x="107" y="271" on="1"/>
        <pt x="107" y="233" on="0"/>
        <pt x="119" y="166" on="0"/>
        <pt x="129" y="139" on="1"/>
        <pt x="487" y="588" on="1"/>
        <pt x="465" y="622" on="0"/>
        <pt x="399" y="659" on="0"/>
        <pt x="358" y="659" on="1"/>
        <pt x="320" y="659" on="0"/>
        <pt x="251" y="625" on="0"/>
        <pt x="222" y="597" on="1"/>
        <pt x="169" y="544" on="0"/>
        <pt x="107" y="369" on="0"/>
      </contour>
      <contour>
        <pt x="278" y="31" on="1"/>
        <pt x="316" y="31" on="0"/>
        <pt x="385" y="64" on="0"/>
        <pt x="413" y="93" on="1"/>
        <pt x="466" y="146" on="0"/>
        <pt x="528" y="321" on="0"/>
        <pt x="528" y="419" on="1"/>
        <pt x="528" y="458" on="0"/>
        <pt x="516" y="524" on="0"/>
        <pt x="505" y="552" on="1"/>
        <pt x="148" y="103" on="1"/>
        <pt x="170" y="69" on="0"/>
        <pt x="237" y="31" on="0"/>
      </contour>
    </TTGlyph>
    <TTGlyph name="Oslashacute" xMin="19" yMin="-11" xMax="616" yMax="891">
      <component glyphName="Oslash" x="0" y="0" flags="0x204"/>
      <component glyphName="acute" x="186" y="215" flags="0x4"/>
    </TTGlyph>
    <TTGlyph name="Otilde" xMin="59" yMin="-11" xMax="577" yMax="858">
      <component glyphName="O" x="0" y="0" flags="0x204"/>
      <component glyphName="tilde" x="137" y="215" flags="0x4"/>
    </TTGlyph>
    <TTGlyph name="P" xMin="45" yMin="0" xMax="462" yMax="690">
      <contour>
        <pt x="462" y="521" on="1"/>
        <pt x="462" y="471" on="0"/>
        <pt x="424" y="389" on="0"/>
        <pt x="358" y="332" on="0"/>
        <pt x="264" y="300" on="0"/>
        <pt x="209" y="300" on="1"/>
        <pt x="136" y="300" on="1"/>
        <pt x="91" y="0" on="1"/>
        <pt x="45" y="0" on="1"/>
        <pt x="148" y="690" on="1"/>
        <pt x="266" y="690" on="1"/>
        <pt x="360" y="690" on="0"/>
        <pt x="462" y="598" on="0"/>
      </contour>
      <contour>
        <pt x="414" y="518" on="1"/>
        <pt x="414" y="578" on="0"/>
        <pt x="339" y="649" on="0"/>
        <pt x="262" y="649" on="1"/>
        <pt x="188" y="649" on="1"/>
        <pt x="142" y="341" on="1"/>
        <pt x="209" y="341" on="1"/>
        <pt x="305" y="341" on="0"/>
        <pt x="414" y="441" on="0"/>
      </contour>
    </TTGlyph>
    <TTGlyph name="Q" xMin="59" yMin="-135" xMax="577" yMax="701">
      <contour>
        <pt x="481" y="-135" on="1"/>
        <pt x="209" y="-5" on="1"/>
        <pt x="134" y="32" on="0"/>
        <pt x="59" y="167" on="0"/>
        <pt x="59" y="271" on="1"/>
        <pt x="59" y="375" on="0"/>
        <pt x="128" y="566" on="0"/>
        <pt x="189" y="627" on="1"/>
        <pt x="224" y="662" on="0"/>
        <pt x="313" y="701" on="0"/>
        <pt x="362" y="701" on="1"/>
        <pt x="412" y="701" on="0"/>
        <pt x="492" y="659" on="0"/>
        <pt x="547" y="586" on="0"/>
        <pt x="577" y="482" on="0"/>
        <pt x="577" y="421" on="1"/>
        <pt x="577" y="314" on="0"/>
        <pt x="510" y="128" on="0"/>
        <pt x="451" y="69" on="1"/>
        <pt x="422" y="40" on="0"/>
        <pt x="352" y="0" on="0"/>
        <pt x="315" y="-7" on="1"/>
        <pt x="492" y="-86" on="1"/>
      </contour>
      <contour>
        <pt x="275" y="30" on="1"/>
        <pt x="313" y="30" on="0"/>
        <pt x="384" y="63" on="0"/>
        <pt x="412" y="92" on="1"/>
        <pt x="465" y="144" on="0"/>
        <pt x="528" y="321" on="0"/>
        <pt x="528" y="420" on="1"/>
        <pt x="528" y="530" on="0"/>
        <pt x="437" y="660" on="0"/>
        <pt x="360" y="660" on="1"/>
        <pt x="322" y="660" on="0"/>
        <pt x="252" y="627" on="0"/>
        <pt x="223" y="599" on="1"/>
        <pt x="171" y="546" on="0"/>
        <pt x="107" y="370" on="0"/>
        <pt x="107" y="271" on="1"/>
        <pt x="107" y="160" on="0"/>
        <pt x="199" y="30" on="0"/>
      </contour>
    </TTGlyph>
    <TTGlyph name="Q.alt" xMin="59" yMin="-14" xMax="577" yMax="701">
      <contour>
        <pt x="531" y="-14" on="1"/>
        <pt x="452" y="70" on="1"/>
        <pt x="451" y="69" on="0"/>
        <pt x="447" y="65" on="0"/>
        <pt x="446" y="64" on="1"/>
        <pt x="411" y="29" on="0"/>
        <pt x="323" y="-11" on="0"/>
        <pt x="274" y="-11" on="1"/>
        <pt x="224" y="-11" on="0"/>
        <pt x="143" y="31" on="0"/>
        <pt x="88" y="105" on="0"/>
        <pt x="59" y="208" on="0"/>
        <pt x="59" y="270" on="1"/>
        <pt x="59" y="320" on="0"/>
        <pt x="77" y="422" on="0"/>
        <pt x="110" y="515" on="0"/>
        <pt x="158" y="596" on="0"/>
        <pt x="189" y="627" on="1"/>
        <pt x="224" y="662" on="0"/>
        <pt x="313" y="701" on="0"/>
        <pt x="362" y="701" on="1"/>
        <pt x="412" y="701" on="0"/>
        <pt x="492" y="659" on="0"/>
        <pt x="547" y="586" on="0"/>
        <pt x="577" y="482" on="0"/>
        <pt x="577" y="421" on="1"/>
        <pt x="577" y="335" on="0"/>
        <pt x="526" y="166" on="0"/>
        <pt x="480" y="104" on="1"/>
        <pt x="546" y="37" on="1"/>
      </contour>
      <contour>
        <pt x="275" y="31" on="1"/>
        <pt x="313" y="31" on="0"/>
        <pt x="384" y="63" on="0"/>
        <pt x="412" y="92" on="1"/>
        <pt x="414" y="94" on="0"/>
        <pt x="419" y="99" on="0"/>
        <pt x="421" y="101" on="1"/>
        <pt x="283" y="238" on="1"/>
        <pt x="340" y="248" on="1"/>
        <pt x="448" y="136" on="1"/>
        <pt x="485" y="190" on="0"/>
        <pt x="528" y="342" on="0"/>
        <pt x="528" y="420" on="1"/>
        <pt x="528" y="530" on="0"/>
        <pt x="437" y="660" on="0"/>
        <pt x="360" y="660" on="1"/>
        <pt x="322" y="660" on="0"/>
        <pt x="252" y="627" on="0"/>
        <pt x="223" y="599" on="1"/>
        <pt x="197" y="573" on="0"/>
        <pt x="154" y="499" on="0"/>
        <pt x="124" y="414" on="0"/>
        <pt x="107" y="319" on="0"/>
        <pt x="107" y="271" on="1"/>
        <pt x="107" y="161" on="0"/>
        <pt x="199" y="31" on="0"/>
      </contour>
    </TTGlyph>
    <TTGlyph name="Q.alt_flat" xMin="59" yMin="-15" xMax="577" yMax="701">
      <contour>
        <pt x="533" y="-15" on="1"/>
        <pt x="452" y="70" on="1"/>
        <pt x="451" y="69" on="0"/>
        <pt x="447" y="65" on="0"/>
        <pt x="446" y="64" on="1"/>
        <pt x="411" y="29" on="0"/>
        <pt x="323" y="-11" on="0"/>
        <pt x="274" y="-11" on="1"/>
        <pt x="224" y="-11" on="0"/>
        <pt x="143" y="31" on="0"/>
        <pt x="88" y="105" on="0"/>
        <pt x="59" y="208" on="0"/>
        <pt x="59" y="270" on="1"/>
        <pt x="59" y="320" on="0"/>
        <pt x="77" y="422" on="0"/>
        <pt x="110" y="515" on="0"/>
        <pt x="158" y="596" on="0"/>
        <pt x="189" y="627" on="1"/>
        <pt x="224" y="662" on="0"/>
        <pt x="313" y="701" on="0"/>
        <pt x="362" y="701" on="1"/>
        <pt x="412" y="701" on="0"/>
        <pt x="492" y="659" on="0"/>
        <pt x="547" y="586" on="0"/>
        <pt x="577" y="482" on="0"/>
        <pt x="577" y="421" on="1"/>
        <pt x="577" y="335" on="0"/>
        <pt x="526" y="166" on="0"/>
        <pt x="480" y="103" on="1"/>
        <pt x="546" y="37" on="1"/>
      </contour>
      <contour>
        <pt x="275" y="31" on="1"/>
        <pt x="313" y="31" on="0"/>
        <pt x="384" y="63" on="0"/>
        <pt x="412" y="92" on="1"/>
        <pt x="414" y="94" on="0"/>
        <pt x="419" y="99" on="0"/>
        <pt x="421" y="102" on="1"/>
        <pt x="311" y="210" on="1"/>
        <pt x="324" y="261" on="1"/>
        <pt x="448" y="135" on="1"/>
        <pt x="485" y="190" on="0"/>
        <pt x="528" y="341" on="0"/>
        <pt x="528" y="420" on="1"/>
        <pt x="528" y="530" on="0"/>
        <pt x="437" y="660" on="0"/>
        <pt x="360" y="660" on="1"/>
        <pt x="322" y="660" on="0"/>
        <pt x="252" y="627" on="0"/>
        <pt x="223" y="599" on="1"/>
        <pt x="197" y="573" on="0"/>
        <pt x="154" y="499" on="0"/>
        <pt x="124" y="414" on="0"/>
        <pt x="107" y="319" on="0"/>
        <pt x="107" y="271" on="1"/>
        <pt x="107" y="161" on="0"/>
        <pt x="199" y="31" on="0"/>
      </contour>
    </TTGlyph>
    <TTGlyph name="R" xMin="45" yMin="-7" xMax="460" yMax="690">
      <contour>
        <pt x="460" y="524" on="1"/>
        <pt x="460" y="483" on="0"/>
        <pt x="432" y="414" on="0"/>
        <pt x="383" y="361" on="0"/>
        <pt x="317" y="327" on="0"/>
        <pt x="280" y="320" on="1"/>
        <pt x="438" y="4" on="1"/>
        <pt x="391" y="-7" on="1"/>
        <pt x="232" y="312" on="1"/>
        <pt x="138" y="312" on="1"/>
        <pt x="91" y="0" on="1"/>
        <pt x="45" y="0" on="1"/>
        <pt x="148" y="690" on="1"/>
        <pt x="263" y="690" on="1"/>
        <pt x="359" y="690" on="0"/>
        <pt x="460" y="598" on="0"/>
      </contour>
      <contour>
        <pt x="413" y="522" on="1"/>
        <pt x="413" y="582" on="0"/>
        <pt x="332" y="649" on="0"/>
        <pt x="260" y="649" on="1"/>
        <pt x="188" y="649" on="1"/>
        <pt x="145" y="353" on="1"/>
        <pt x="217" y="353" on="1"/>
        <pt x="305" y="353" on="0"/>
        <pt x="413" y="449" on="0"/>
      </contour>
    </TTGlyph>
    <TTGlyph name="R.flat" xMin="45" yMin="0" xMax="460" yMax="690">
      <contour>
        <pt x="413" y="522" on="1"/>
        <pt x="413" y="582" on="0"/>
        <pt x="332" y="649" on="0"/>
        <pt x="260" y="649" on="1"/>
        <pt x="188" y="649" on="1"/>
        <pt x="145" y="353" on="1"/>
        <pt x="217" y="353" on="1"/>
        <pt x="305" y="353" on="0"/>
        <pt x="413" y="449" on="0"/>
      </contour>
      <contour>
        <pt x="460" y="524" on="1"/>
        <pt x="460" y="483" on="0"/>
        <pt x="432" y="414" on="0"/>
        <pt x="383" y="361" on="0"/>
        <pt x="317" y="327" on="0"/>
        <pt x="280" y="320" on="1"/>
        <pt x="440" y="0" on="1"/>
        <pt x="388" y="0" on="1"/>
        <pt x="232" y="312" on="1"/>
        <pt x="138" y="312" on="1"/>
        <pt x="91" y="0" on="1"/>
        <pt x="45" y="0" on="1"/>
        <pt x="148" y="690" on="1"/>
        <pt x="263" y="690" on="1"/>
        <pt x="359" y="690" on="0"/>
        <pt x="460" y="598" on="0"/>
      </contour>
    </TTGlyph>
    <TTGlyph name="R_p" xMin="50" yMin="-181" xMax="856" yMax="683">
      <contour>
        <pt x="386" y="-7" on="1"/>
        <pt x="237" y="309" on="1"/>
        <pt x="143" y="309" on="1"/>
        <pt x="96" y="0" on="1"/>
        <pt x="50" y="0" on="1"/>
        <pt x="153" y="683" on="1"/>
        <pt x="268" y="683" on="1"/>
        <pt x="364" y="683" on="0"/>
        <pt x="465" y="591" on="0"/>
        <pt x="465" y="517" on="1"/>
        <pt x="465" y="477" on="0"/>
        <pt x="437" y="409" on="0"/>
        <pt x="388" y="358" on="0"/>
        <pt x="322" y="324" on="0"/>
        <pt x="285" y="317" on="1"/>
        <pt x="433" y="4" on="1"/>
      </contour>
      <contour>
        <pt x="418" y="515" on="1"/>
        <pt x="418" y="575" on="0"/>
        <pt x="337" y="642" on="0"/>
        <pt x="265" y="642" on="1"/>
        <pt x="193" y="642" on="1"/>
        <pt x="150" y="350" on="1"/>
        <pt x="222" y="350" on="1"/>
        <pt x="310" y="350" on="0"/>
        <pt x="418" y="443" on="0"/>
      </contour>
      <contour>
        <pt x="548" y="53" on="1"/>
        <pt x="567" y="45" on="0"/>
        <pt x="605" y="34" on="0"/>
        <pt x="629" y="34" on="1"/>
        <pt x="666" y="34" on="0"/>
        <pt x="731" y="73" on="0"/>
        <pt x="780" y="142" on="0"/>
        <pt x="809" y="240" on="0"/>
        <pt x="809" y="299" on="1"/>
        <pt x="809" y="365" on="0"/>
        <pt x="766" y="440" on="0"/>
        <pt x="731" y="440" on="1"/>
        <pt x="701" y="440" on="0"/>
        <pt x="633" y="381" on="0"/>
        <pt x="587" y="321" on="1"/>
      </contour>
      <contour>
        <pt x="468" y="-181" on="1"/>
        <pt x="543" y="322" on="1"/>
        <pt x="543" y="470" on="1"/>
        <pt x="582" y="470" on="1"/>
        <pt x="587" y="371" on="1"/>
        <pt x="628" y="426" on="0"/>
        <pt x="696" y="481" on="0"/>
        <pt x="736" y="481" on="1"/>
        <pt x="793" y="481" on="0"/>
        <pt x="856" y="386" on="0"/>
        <pt x="856" y="302" on="1"/>
        <pt x="856" y="237" on="0"/>
        <pt x="821" y="124" on="0"/>
        <pt x="760" y="42" on="0"/>
        <pt x="676" y="-6" on="0"/>
        <pt x="627" y="-6" on="1"/>
        <pt x="602" y="-6" on="0"/>
        <pt x="558" y="5" on="0"/>
        <pt x="541" y="12" on="1"/>
        <pt x="514" y="-171" on="1"/>
      </contour>
    </TTGlyph>
    <TTGlyph name="R_p.flat" xMin="50" yMin="-181" xMax="856" yMax="683">
      <contour>
        <pt x="418" y="515" on="1"/>
        <pt x="418" y="575" on="0"/>
        <pt x="337" y="642" on="0"/>
        <pt x="265" y="642" on="1"/>
        <pt x="193" y="642" on="1"/>
        <pt x="150" y="350" on="1"/>
        <pt x="222" y="350" on="1"/>
        <pt x="310" y="350" on="0"/>
        <pt x="418" y="443" on="0"/>
      </contour>
      <contour>
        <pt x="548" y="53" on="1"/>
        <pt x="567" y="45" on="0"/>
        <pt x="605" y="34" on="0"/>
        <pt x="629" y="34" on="1"/>
        <pt x="666" y="34" on="0"/>
        <pt x="731" y="73" on="0"/>
        <pt x="780" y="142" on="0"/>
        <pt x="809" y="240" on="0"/>
        <pt x="809" y="299" on="1"/>
        <pt x="809" y="365" on="0"/>
        <pt x="766" y="440" on="0"/>
        <pt x="731" y="440" on="1"/>
        <pt x="701" y="440" on="0"/>
        <pt x="633" y="381" on="0"/>
        <pt x="587" y="321" on="1"/>
      </contour>
      <contour>
        <pt x="383" y="0" on="1"/>
        <pt x="237" y="309" on="1"/>
        <pt x="143" y="309" on="1"/>
        <pt x="96" y="0" on="1"/>
        <pt x="50" y="0" on="1"/>
        <pt x="153" y="683" on="1"/>
        <pt x="268" y="683" on="1"/>
        <pt x="364" y="683" on="0"/>
        <pt x="465" y="591" on="0"/>
        <pt x="465" y="517" on="1"/>
        <pt x="465" y="477" on="0"/>
        <pt x="437" y="409" on="0"/>
        <pt x="388" y="358" on="0"/>
        <pt x="322" y="324" on="0"/>
        <pt x="285" y="317" on="1"/>
        <pt x="435" y="0" on="1"/>
      </contour>
      <contour>
        <pt x="468" y="-181" on="1"/>
        <pt x="543" y="322" on="1"/>
        <pt x="543" y="470" on="1"/>
        <pt x="582" y="470" on="1"/>
        <pt x="587" y="371" on="1"/>
        <pt x="628" y="426" on="0"/>
        <pt x="696" y="481" on="0"/>
        <pt x="736" y="481" on="1"/>
        <pt x="793" y="481" on="0"/>
        <pt x="856" y="386" on="0"/>
        <pt x="856" y="302" on="1"/>
        <pt x="856" y="237" on="0"/>
        <pt x="821" y="124" on="0"/>
        <pt x="760" y="42" on="0"/>
        <pt x="676" y="-6" on="0"/>
        <pt x="627" y="-6" on="1"/>
        <pt x="602" y="-6" on="0"/>
        <pt x="558" y="5" on="0"/>
        <pt x="541" y="12" on="1"/>
        <pt x="514" y="-171" on="1"/>
      </contour>
    </TTGlyph>
    <TTGlyph name="Racute" xMin="45" yMin="-7" xMax="460" yMax="881">
      <component glyphName="R" x="0" y="0" flags="0x204"/>
      <component glyphName="acute" x="97" y="205" flags="0x4"/>
    </TTGlyph>
    <TTGlyph name="Racute.flat" xMin="45" yMin="0" xMax="460" yMax="881">
      <component glyphName="R.flat" x="0" y="0" flags="0x204"/>
      <component glyphName="acute" x="97" y="205" flags="0x4"/>
    </TTGlyph>
    <TTGlyph name="Rcaron" xMin="45" yMin="-7" xMax="460" yMax="880">
      <component glyphName="R" x="0" y="0" flags="0x204"/>
      <component glyphName="caron" x="44" y="205" flags="0x4"/>
    </TTGlyph>
    <TTGlyph name="Rcaron.flat" xMin="45" yMin="0" xMax="460" yMax="880">
      <component glyphName="R.flat" x="0" y="0" flags="0x204"/>
      <component glyphName="caron" x="44" y="205" flags="0x4"/>
    </TTGlyph>
    <TTGlyph name="Rcommaaccent" xMin="45" yMin="-219" xMax="460" yMax="690">
      <component glyphName="R" x="0" y="0" flags="0x204"/>
      <component glyphName="commaaccent" x="46" y="0" flags="0x4"/>
    </TTGlyph>
    <TTGlyph name="Rcommaaccent.flat" xMin="45" yMin="-219" xMax="460" yMax="690">
      <component glyphName="R.flat" x="0" y="0" flags="0x204"/>
      <component glyphName="commaaccent" x="46" y="0" flags="0x4"/>
    </TTGlyph>
    <TTGlyph name="S" xMin="13" yMin="-8" xMax="416" yMax="698">
      <contour>
        <pt x="416" y="655" on="1"/>
        <pt x="405" y="608" on="1"/>
        <pt x="379" y="628" on="0"/>
        <pt x="310" y="657" on="0"/>
        <pt x="273" y="657" on="1"/>
        <pt x="216" y="657" on="0"/>
        <pt x="143" y="583" on="0"/>
        <pt x="143" y="531" on="1"/>
        <pt x="143" y="487" on="0"/>
        <pt x="196" y="418" on="0"/>
        <pt x="249" y="378" on="1"/>
        <pt x="312" y="330" on="0"/>
        <pt x="379" y="241" on="0"/>
        <pt x="379" y="181" on="1"/>
        <pt x="379" y="139" on="0"/>
        <pt x="348" y="69" on="0"/>
        <pt x="295" y="19" on="0"/>
        <pt x="222" y="-8" on="0"/>
        <pt x="181" y="-8" on="1"/>
        <pt x="128" y="-8" on="0"/>
        <pt x="43" y="27" on="0"/>
        <pt x="13" y="49" on="1"/>
        <pt x="24" y="96" on="1"/>
        <pt x="57" y="68" on="0"/>
        <pt x="138" y="34" on="0"/>
        <pt x="184" y="34" on="1"/>
        <pt x="246" y="34" on="0"/>
        <pt x="331" y="114" on="0"/>
        <pt x="331" y="176" on="1"/>
        <pt x="331" y="224" on="0"/>
        <pt x="283" y="294" on="0"/>
        <pt x="228" y="335" on="1"/>
        <pt x="164" y="384" on="0"/>
        <pt x="96" y="469" on="0"/>
        <pt x="96" y="526" on="1"/>
        <pt x="96" y="600" on="0"/>
        <pt x="198" y="698" on="0"/>
        <pt x="277" y="698" on="1"/>
        <pt x="320" y="698" on="0"/>
        <pt x="391" y="671" on="0"/>
      </contour>
    </TTGlyph>
    <TTGlyph name="Sacute" xMin="13" yMin="-8" xMax="439" yMax="891">
      <component glyphName="S" x="0" y="0" flags="0x204"/>
      <component glyphName="acute" x="91" y="215" flags="0x4"/>
    </TTGlyph>
    <TTGlyph name="Scaron" xMin="13" yMin="-8" xMax="418" yMax="890">
      <component glyphName="S" x="0" y="0" flags="0x204"/>
      <component glyphName="caron" x="38" y="215" flags="0x4"/>
    </TTGlyph>
    <TTGlyph name="Scedilla" xMin="13" yMin="-184" xMax="416" yMax="698">
      <component glyphName="S" x="0" y="0" flags="0x204"/>
      <component glyphName="cedilla" x="-7" y="0" flags="0x4"/>
    </TTGlyph>
    <TTGlyph name="Scommaaccent" xMin="13" yMin="-219" xMax="416" yMax="698">
      <component glyphName="S" x="0" y="0" flags="0x204"/>
      <component glyphName="commaaccent" x="-2" y="0" flags="0x4"/>
    </TTGlyph>
    <TTGlyph name="T" xMin="83" yMin="0" xMax="506" yMax="690">
      <contour>
        <pt x="506" y="649" on="1"/>
        <pt x="315" y="649" on="1"/>
        <pt x="218" y="0" on="1"/>
        <pt x="172" y="0" on="1"/>
        <pt x="269" y="649" on="1"/>
        <pt x="83" y="649" on="1"/>
        <pt x="90" y="690" on="1"/>
        <pt x="506" y="690" on="1"/>
      </contour>
    </TTGlyph>
    <TTGlyph name="T.flat" xMin="83" yMin="0" xMax="507" yMax="690">
      <contour>
        <pt x="501" y="649" on="1"/>
        <pt x="315" y="649" on="1"/>
        <pt x="218" y="0" on="1"/>
        <pt x="172" y="0" on="1"/>
        <pt x="269" y="649" on="1"/>
        <pt x="83" y="649" on="1"/>
        <pt x="90" y="690" on="1"/>
        <pt x="507" y="690" on="1"/>
      </contour>
    </TTGlyph>
    <TTGlyph name="Tcaron" xMin="83" yMin="0" xMax="506" yMax="880">
      <component glyphName="T" x="0" y="0" flags="0x204"/>
      <component glyphName="caron" x="56" y="205" flags="0x4"/>
    </TTGlyph>
    <TTGlyph name="Tcaron.flat" xMin="83" yMin="0" xMax="507" yMax="880">
      <component glyphName="T.flat" x="0" y="0" flags="0x204"/>
      <component glyphName="caron" x="56" y="205" flags="0x4"/>
    </TTGlyph>
    <TTGlyph name="Tcommaaccent" xMin="83" yMin="-219" xMax="506" yMax="690">
      <component glyphName="T" x="0" y="0" flags="0x204"/>
      <component glyphName="commaaccent" x="19" y="0" flags="0x4"/>
    </TTGlyph>
    <TTGlyph name="Tcommaaccent.flat" xMin="83" yMin="-219" xMax="507" yMax="690">
      <component glyphName="T.flat" x="0" y="0" flags="0x204"/>
      <component glyphName="commaaccent" x="19" y="0" flags="0x4"/>
    </TTGlyph>
    <TTGlyph name="Thorn" xMin="45" yMin="0" xMax="438" yMax="690">
      <contour>
        <pt x="438" y="377" on="1"/>
        <pt x="438" y="328" on="0"/>
        <pt x="401" y="247" on="0"/>
        <pt x="336" y="190" on="0"/>
        <pt x="244" y="158" on="0"/>
        <pt x="190" y="158" on="1"/>
        <pt x="115" y="158" on="1"/>
        <pt x="91" y="0" on="1"/>
        <pt x="45" y="0" on="1"/>
        <pt x="148" y="690" on="1"/>
        <pt x="195" y="690" on="1"/>
        <pt x="174" y="548" on="1"/>
        <pt x="240" y="548" on="1"/>
        <pt x="336" y="548" on="0"/>
        <pt x="438" y="456" on="0"/>
      </contour>
      <contour>
        <pt x="391" y="373" on="1"/>
        <pt x="391" y="436" on="0"/>
        <pt x="313" y="507" on="0"/>
        <pt x="237" y="507" on="1"/>
        <pt x="168" y="507" on="1"/>
        <pt x="122" y="200" on="1"/>
        <pt x="193" y="200" on="1"/>
        <pt x="241" y="200" on="0"/>
        <pt x="315" y="228" on="0"/>
        <pt x="365" y="275" on="0"/>
        <pt x="391" y="338" on="0"/>
      </contour>
    </TTGlyph>
    <TTGlyph name="U" xMin="73" yMin="-8" xMax="576" yMax="690">
      <contour>
        <pt x="576" y="690" on="1"/>
        <pt x="508" y="229" on="1"/>
        <pt x="492" y="122" on="0"/>
        <pt x="371" y="-8" on="0"/>
        <pt x="270" y="-8" on="1"/>
        <pt x="178" y="-8" on="0"/>
        <pt x="73" y="97" on="0"/>
        <pt x="73" y="185" on="1"/>
        <pt x="73" y="204" on="0"/>
        <pt x="76" y="244" on="0"/>
        <pt x="80" y="269" on="1"/>
        <pt x="141" y="690" on="1"/>
        <pt x="188" y="690" on="1"/>
        <pt x="125" y="261" on="1"/>
        <pt x="122" y="239" on="0"/>
        <pt x="119" y="203" on="0"/>
        <pt x="119" y="186" on="1"/>
        <pt x="119" y="121" on="0"/>
        <pt x="196" y="33" on="0"/>
        <pt x="272" y="33" on="1"/>
        <pt x="350" y="33" on="0"/>
        <pt x="447" y="137" on="0"/>
        <pt x="460" y="226" on="1"/>
        <pt x="530" y="690" on="1"/>
      </contour>
    </TTGlyph>
    <TTGlyph name="U.alt" xMin="72" yMin="-8" xMax="558" yMax="690">
      <contour>
        <pt x="558" y="690" on="1"/>
        <pt x="454" y="0" on="1"/>
        <pt x="424" y="0" on="1"/>
        <pt x="423" y="78" on="1"/>
        <pt x="378" y="42" on="0"/>
        <pt x="274" y="-8" on="0"/>
        <pt x="223" y="-8" on="1"/>
        <pt x="153" y="-8" on="0"/>
        <pt x="72" y="69" on="0"/>
        <pt x="72" y="139" on="1"/>
        <pt x="72" y="149" on="0"/>
        <pt x="74" y="173" on="0"/>
        <pt x="76" y="184" on="1"/>
        <pt x="151" y="690" on="1"/>
        <pt x="198" y="690" on="1"/>
        <pt x="122" y="185" on="1"/>
        <pt x="121" y="175" on="0"/>
        <pt x="119" y="155" on="0"/>
        <pt x="119" y="147" on="1"/>
        <pt x="119" y="93" on="0"/>
        <pt x="178" y="33" on="0"/>
        <pt x="229" y="33" on="1"/>
        <pt x="273" y="33" on="0"/>
        <pt x="373" y="79" on="0"/>
        <pt x="427" y="124" on="1"/>
        <pt x="511" y="690" on="1"/>
      </contour>
    </TTGlyph>
    <TTGlyph name="Uacute" xMin="73" yMin="-8" xMax="576" yMax="881">
      <component glyphName="U" x="0" y="0" flags="0x204"/>
      <component glyphName="acute" x="169" y="205" flags="0x4"/>
    </TTGlyph>
    <TTGlyph name="Uacute.alt" xMin="72" yMin="-8" xMax="558" yMax="881">
      <component glyphName="U.alt" x="0" y="0" flags="0x204"/>
      <component glyphName="acute" x="167" y="205" flags="0x4"/>
    </TTGlyph>
    <TTGlyph name="Ubreve" xMin="73" yMin="-8" xMax="576" yMax="850">
      <component glyphName="U" x="0" y="0" flags="0x4"/>
      <component glyphName="breve" x="112" y="198" flags="0x4"/>
    </TTGlyph>
    <TTGlyph name="Ubreve.alt" xMin="72" yMin="-8" xMax="558" yMax="850">
      <component glyphName="U.alt" x="0" y="0" flags="0x204"/>
      <component glyphName="breve" x="110" y="198" flags="0x4"/>
    </TTGlyph>
    <TTGlyph name="Ucircumflex" xMin="73" yMin="-8" xMax="576" yMax="880">
      <component glyphName="U" x="0" y="0" flags="0x204"/>
      <component glyphName="circumflex" x="117" y="205" flags="0x4"/>
    </TTGlyph>
    <TTGlyph name="Ucircumflex.alt" xMin="72" yMin="-8" xMax="558" yMax="880">
      <component glyphName="U.alt" x="0" y="0" flags="0x204"/>
      <component glyphName="circumflex" x="115" y="205" flags="0x4"/>
    </TTGlyph>
    <TTGlyph name="Udieresis" xMin="73" yMin="-8" xMax="576" yMax="826">
      <component glyphName="U" x="0" y="0" flags="0x204"/>
      <component glyphName="dieresis" x="115" y="205" flags="0x4"/>
    </TTGlyph>
    <TTGlyph name="Udieresis.alt" xMin="72" yMin="-8" xMax="558" yMax="826">
      <component glyphName="U.alt" x="0" y="0" flags="0x204"/>
      <component glyphName="dieresis" x="113" y="205" flags="0x4"/>
    </TTGlyph>
    <TTGlyph name="Ugrave" xMin="73" yMin="-8" xMax="576" yMax="882">
      <component glyphName="U" x="0" y="0" flags="0x204"/>
      <component glyphName="grave" x="59" y="205" flags="0x4"/>
    </TTGlyph>
    <TTGlyph name="Ugrave.alt" xMin="72" yMin="-8" xMax="558" yMax="882">
      <component glyphName="U.alt" x="0" y="0" flags="0x204"/>
      <component glyphName="grave" x="57" y="205" flags="0x4"/>
    </TTGlyph>
    <TTGlyph name="Uhungarumlaut" xMin="73" yMin="-8" xMax="584" yMax="884">
      <component glyphName="U" x="0" y="0" flags="0x204"/>
      <component glyphName="hungarumlaut" x="170" y="205" flags="0x4"/>
    </TTGlyph>
    <TTGlyph name="Uhungarumlaut.alt" xMin="72" yMin="-8" xMax="583" yMax="884">
      <component glyphName="U.alt" x="0" y="0" flags="0x204"/>
      <component glyphName="hungarumlaut" x="169" y="205" flags="0x4"/>
    </TTGlyph>
    <TTGlyph name="Umacron" xMin="73" yMin="-8" xMax="576" yMax="814">
      <component glyphName="U" x="0" y="0" flags="0x204"/>
      <component glyphName="macron" x="114" y="205" flags="0x4"/>
    </TTGlyph>
    <TTGlyph name="Umacron.alt" xMin="72" yMin="-8" xMax="558" yMax="814">
      <component glyphName="U.alt" x="0" y="0" flags="0x204"/>
      <component glyphName="macron" x="113" y="205" flags="0x4"/>
    </TTGlyph>
    <TTGlyph name="Uogonek" xMin="73" yMin="-162" xMax="576" yMax="690">
      <component glyphName="U" x="0" y="0" flags="0x204"/>
      <component glyphName="ogonek" x="73" y="0" flags="0x4"/>
    </TTGlyph>
    <TTGlyph name="Uogonek.alt" xMin="72" yMin="-162" xMax="558" yMax="690">
      <component glyphName="U.alt" x="0" y="0" flags="0x4"/>
      <component glyphName="ogonek" x="232" y="0" flags="0x4"/>
    </TTGlyph>
    <TTGlyph name="Uring" xMin="73" yMin="-8" xMax="576" yMax="906">
      <component glyphName="U" x="0" y="0" flags="0x4"/>
      <component glyphName="ring" x="114" y="195" flags="0x4"/>
    </TTGlyph>
    <TTGlyph name="Uring.alt" xMin="72" yMin="-8" xMax="558" yMax="911">
      <component glyphName="U.alt" x="0" y="0" flags="0x204"/>
      <component glyphName="ring" x="114" y="200" flags="0x4"/>
    </TTGlyph>
    <TTGlyph name="V" xMin="100" yMin="-4" xMax="588" yMax="696">
      <contour>
        <pt x="588" y="690" on="1"/>
        <pt x="259" y="-4" on="1"/>
        <pt x="219" y="-4" on="1"/>
        <pt x="100" y="686" on="1"/>
        <pt x="145" y="696" on="1"/>
        <pt x="250" y="67" on="1"/>
        <pt x="538" y="690" on="1"/>
      </contour>
    </TTGlyph>
    <TTGlyph name="V.flat" xMin="99" yMin="-4" xMax="588" yMax="690">
      <contour>
        <pt x="588" y="690" on="1"/>
        <pt x="259" y="-4" on="1"/>
        <pt x="219" y="-4" on="1"/>
        <pt x="99" y="690" on="1"/>
        <pt x="146" y="690" on="1"/>
        <pt x="250" y="67" on="1"/>
        <pt x="538" y="690" on="1"/>
      </contour>
    </TTGlyph>
    <TTGlyph name="W" xMin="108" yMin="-2" xMax="879" yMax="696">
      <contour>
        <pt x="879" y="690" on="1"/>
        <pt x="602" y="-2" on="1"/>
        <pt x="563" y="-2" on="1"/>
        <pt x="481" y="613" on="1"/>
        <pt x="218" y="-2" on="1"/>
        <pt x="179" y="-2" on="1"/>
        <pt x="108" y="686" on="1"/>
        <pt x="154" y="696" on="1"/>
        <pt x="211" y="80" on="1"/>
        <pt x="470" y="691" on="1"/>
        <pt x="514" y="691" on="1"/>
        <pt x="593" y="80" on="1"/>
        <pt x="831" y="690" on="1"/>
      </contour>
    </TTGlyph>
    <TTGlyph name="W.alt" xMin="99" yMin="-4" xMax="867" yMax="696">
      <contour>
        <pt x="511" y="-4" on="1"/>
        <pt x="444" y="425" on="1"/>
        <pt x="247" y="-4" on="1"/>
        <pt x="209" y="-4" on="1"/>
        <pt x="99" y="686" on="1"/>
        <pt x="145" y="696" on="1"/>
        <pt x="238" y="69" on="1"/>
        <pt x="432" y="492" on="1"/>
        <pt x="401" y="686" on="1"/>
        <pt x="446" y="696" on="1"/>
        <pt x="541" y="69" on="1"/>
        <pt x="817" y="690" on="1"/>
        <pt x="867" y="690" on="1"/>
        <pt x="550" y="-4" on="1"/>
      </contour>
    </TTGlyph>
    <TTGlyph name="W.alt_flat" xMin="98" yMin="-4" xMax="867" yMax="690">
      <contour>
        <pt x="511" y="-4" on="1"/>
        <pt x="444" y="425" on="1"/>
        <pt x="247" y="-4" on="1"/>
        <pt x="209" y="-4" on="1"/>
        <pt x="98" y="690" on="1"/>
        <pt x="145" y="690" on="1"/>
        <pt x="238" y="69" on="1"/>
        <pt x="432" y="492" on="1"/>
        <pt x="400" y="690" on="1"/>
        <pt x="447" y="690" on="1"/>
        <pt x="541" y="69" on="1"/>
        <pt x="817" y="690" on="1"/>
        <pt x="867" y="690" on="1"/>
        <pt x="550" y="-4" on="1"/>
      </contour>
    </TTGlyph>
    <TTGlyph name="W.flat" xMin="108" yMin="-2" xMax="879" yMax="691">
      <contour>
        <pt x="879" y="690" on="1"/>
        <pt x="602" y="-2" on="1"/>
        <pt x="563" y="-2" on="1"/>
        <pt x="481" y="613" on="1"/>
        <pt x="218" y="-2" on="1"/>
        <pt x="179" y="-2" on="1"/>
        <pt x="108" y="690" on="1"/>
        <pt x="155" y="690" on="1"/>
        <pt x="211" y="80" on="1"/>
        <pt x="470" y="691" on="1"/>
        <pt x="514" y="691" on="1"/>
        <pt x="593" y="80" on="1"/>
        <pt x="831" y="690" on="1"/>
      </contour>
    </TTGlyph>
    <TTGlyph name="Wacute" xMin="108" yMin="-2" xMax="879" yMax="881">
      <component glyphName="W" x="0" y="0" flags="0x204"/>
      <component glyphName="acute" x="304" y="205" flags="0x4"/>
    </TTGlyph>
    <TTGlyph name="Wacute.alt" xMin="99" yMin="-4" xMax="867" yMax="881">
      <component glyphName="W.alt" x="0" y="0" flags="0x204"/>
      <component glyphName="acute" x="278" y="205" flags="0x4"/>
    </TTGlyph>
    <TTGlyph name="Wacute.alt_flat" xMin="98" yMin="-4" xMax="867" yMax="881">
      <component glyphName="W.alt_flat" x="0" y="0" flags="0x204"/>
      <component glyphName="acute" x="278" y="205" flags="0x4"/>
    </TTGlyph>
    <TTGlyph name="Wacute.flat" xMin="108" yMin="-2" xMax="879" yMax="881">
      <component glyphName="W.flat" x="0" y="0" flags="0x204"/>
      <component glyphName="acute" x="304" y="205" flags="0x4"/>
    </TTGlyph>
    <TTGlyph name="Wcircumflex" xMin="108" yMin="-2" xMax="879" yMax="880">
      <component glyphName="W" x="0" y="0" flags="0x204"/>
      <component glyphName="circumflex" x="252" y="205" flags="0x4"/>
    </TTGlyph>
    <TTGlyph name="Wcircumflex.alt" xMin="99" yMin="-4" xMax="867" yMax="880">
      <component glyphName="W.alt" x="0" y="0" flags="0x204"/>
      <component glyphName="circumflex" x="225" y="205" flags="0x4"/>
    </TTGlyph>
    <TTGlyph name="Wcircumflex.alt_flat" xMin="98" yMin="-4" xMax="867" yMax="880">
      <component glyphName="W.alt_flat" x="0" y="0" flags="0x204"/>
      <component glyphName="circumflex" x="225" y="205" flags="0x4"/>
    </TTGlyph>
    <TTGlyph name="Wcircumflex.flat" xMin="108" yMin="-2" xMax="879" yMax="880">
      <component glyphName="W.flat" x="0" y="0" flags="0x204"/>
      <component glyphName="circumflex" x="252" y="205" flags="0x4"/>
    </TTGlyph>
    <TTGlyph name="Wdieresis" xMin="108" yMin="-2" xMax="879" yMax="826">
      <component glyphName="W" x="0" y="0" flags="0x204"/>
      <component glyphName="dieresis" x="250" y="205" flags="0x4"/>
    </TTGlyph>
    <TTGlyph name="Wdieresis.alt" xMin="99" yMin="-4" xMax="867" yMax="826">
      <component glyphName="W.alt" x="0" y="0" flags="0x204"/>
      <component glyphName="dieresis" x="224" y="205" flags="0x4"/>
    </TTGlyph>
    <TTGlyph name="Wdieresis.alt_flat" xMin="98" yMin="-4" xMax="867" yMax="826">
      <component glyphName="W.alt_flat" x="0" y="0" flags="0x204"/>
      <component glyphName="dieresis" x="224" y="205" flags="0x4"/>
    </TTGlyph>
    <TTGlyph name="Wdieresis.flat" xMin="108" yMin="-2" xMax="879" yMax="826">
      <component glyphName="W.flat" x="0" y="0" flags="0x204"/>
      <component glyphName="dieresis" x="250" y="205" flags="0x4"/>
    </TTGlyph>
    <TTGlyph name="Wgrave" xMin="108" yMin="-2" xMax="879" yMax="882">
      <component glyphName="W" x="0" y="0" flags="0x204"/>
      <component glyphName="grave" x="194" y="205" flags="0x4"/>
    </TTGlyph>
    <TTGlyph name="Wgrave.alt" xMin="99" yMin="-4" xMax="867" yMax="882">
      <component glyphName="W.alt" x="0" y="0" flags="0x204"/>
      <component glyphName="grave" x="168" y="205" flags="0x4"/>
    </TTGlyph>
    <TTGlyph name="Wgrave.alt_flat" xMin="98" yMin="-4" xMax="867" yMax="882">
      <component glyphName="W.alt_flat" x="0" y="0" flags="0x204"/>
      <component glyphName="grave" x="168" y="205" flags="0x4"/>
    </TTGlyph>
    <TTGlyph name="Wgrave.flat" xMin="108" yMin="-2" xMax="879" yMax="882">
      <component glyphName="W.flat" x="0" y="0" flags="0x204"/>
      <component glyphName="grave" x="194" y="205" flags="0x4"/>
    </TTGlyph>
    <TTGlyph name="X" xMin="-6" yMin="-5" xMax="544" yMax="695">
      <contour>
        <pt x="411" y="-5" on="1"/>
        <pt x="274" y="321" on="1"/>
        <pt x="47" y="0" on="1"/>
        <pt x="-6" y="0" on="1"/>
        <pt x="256" y="361" on="1"/>
        <pt x="115" y="685" on="1"/>
        <pt x="161" y="695" on="1"/>
        <pt x="287" y="397" on="1"/>
        <pt x="491" y="690" on="1"/>
        <pt x="544" y="690" on="1"/>
        <pt x="305" y="358" on="1"/>
        <pt x="458" y="5" on="1"/>
      </contour>
    </TTGlyph>
    <TTGlyph name="X.flat" xMin="-6" yMin="0" xMax="544" yMax="690">
      <contour>
        <pt x="409" y="0" on="1"/>
        <pt x="274" y="321" on="1"/>
        <pt x="47" y="0" on="1"/>
        <pt x="-6" y="0" on="1"/>
        <pt x="256" y="361" on="1"/>
        <pt x="112" y="690" on="1"/>
        <pt x="163" y="690" on="1"/>
        <pt x="287" y="397" on="1"/>
        <pt x="491" y="690" on="1"/>
        <pt x="544" y="690" on="1"/>
        <pt x="305" y="358" on="1"/>
        <pt x="460" y="0" on="1"/>
      </contour>
    </TTGlyph>
    <TTGlyph name="Y" xMin="92" yMin="0" xMax="551" yMax="696">
      <contour>
        <pt x="551" y="690" on="1"/>
        <pt x="285" y="294" on="1"/>
        <pt x="241" y="0" on="1"/>
        <pt x="195" y="0" on="1"/>
        <pt x="239" y="293" on="1"/>
        <pt x="92" y="686" on="1"/>
        <pt x="139" y="696" on="1"/>
        <pt x="269" y="338" on="1"/>
        <pt x="499" y="690" on="1"/>
      </contour>
    </TTGlyph>
    <TTGlyph name="Y.flat" xMin="91" yMin="0" xMax="551" yMax="690">
      <contour>
        <pt x="551" y="690" on="1"/>
        <pt x="285" y="294" on="1"/>
        <pt x="241" y="0" on="1"/>
        <pt x="195" y="0" on="1"/>
        <pt x="239" y="293" on="1"/>
        <pt x="91" y="690" on="1"/>
        <pt x="141" y="690" on="1"/>
        <pt x="269" y="338" on="1"/>
        <pt x="499" y="690" on="1"/>
      </contour>
    </TTGlyph>
    <TTGlyph name="Yacute" xMin="92" yMin="0" xMax="551" yMax="881">
      <component glyphName="Y" x="0" y="0" flags="0x204"/>
      <component glyphName="acute" x="133" y="205" flags="0x4"/>
    </TTGlyph>
    <TTGlyph name="Yacute.flat" xMin="91" yMin="0" xMax="551" yMax="881">
      <component glyphName="Y.flat" x="0" y="0" flags="0x204"/>
      <component glyphName="acute" x="133" y="205" flags="0x4"/>
    </TTGlyph>
    <TTGlyph name="Ycircumflex" xMin="92" yMin="0" xMax="551" yMax="880">
      <component glyphName="Y" x="0" y="0" flags="0x204"/>
      <component glyphName="circumflex" x="80" y="205" flags="0x4"/>
    </TTGlyph>
    <TTGlyph name="Ycircumflex.flat" xMin="91" yMin="0" xMax="551" yMax="880">
      <component glyphName="Y.flat" x="0" y="0" flags="0x204"/>
      <component glyphName="circumflex" x="80" y="205" flags="0x4"/>
    </TTGlyph>
    <TTGlyph name="Ydieresis" xMin="92" yMin="0" xMax="551" yMax="826">
      <component glyphName="Y" x="0" y="0" flags="0x204"/>
      <component glyphName="dieresis" x="79" y="205" flags="0x4"/>
    </TTGlyph>
    <TTGlyph name="Ydieresis.flat" xMin="91" yMin="0" xMax="551" yMax="826">
      <component glyphName="Y.flat" x="0" y="0" flags="0x204"/>
      <component glyphName="dieresis" x="79" y="205" flags="0x4"/>
    </TTGlyph>
    <TTGlyph name="Ygrave" xMin="92" yMin="0" xMax="551" yMax="882">
      <component glyphName="Y" x="0" y="0" flags="0x204"/>
      <component glyphName="grave" x="23" y="205" flags="0x4"/>
    </TTGlyph>
    <TTGlyph name="Ygrave.flat" xMin="91" yMin="0" xMax="551" yMax="882">
      <component glyphName="Y.flat" x="0" y="0" flags="0x204"/>
      <component glyphName="grave" x="23" y="205" flags="0x4"/>
    </TTGlyph>
    <TTGlyph name="Z" xMin="16" yMin="0" xMax="510" yMax="690">
      <contour>
        <pt x="510" y="690" on="1"/>
        <pt x="507" y="660" on="1"/>
        <pt x="78" y="40" on="1"/>
        <pt x="418" y="40" on="1"/>
        <pt x="418" y="0" on="1"/>
        <pt x="16" y="0" on="1"/>
        <pt x="19" y="30" on="1"/>
        <pt x="449" y="650" on="1"/>
        <pt x="133" y="650" on="1"/>
        <pt x="133" y="690" on="1"/>
      </contour>
    </TTGlyph>
    <TTGlyph name="Z.flat" xMin="16" yMin="0" xMax="510" yMax="690">
      <contour>
        <pt x="510" y="690" on="1"/>
        <pt x="507" y="660" on="1"/>
        <pt x="78" y="40" on="1"/>
        <pt x="421" y="40" on="1"/>
        <pt x="414" y="0" on="1"/>
        <pt x="16" y="0" on="1"/>
        <pt x="19" y="30" on="1"/>
        <pt x="449" y="650" on="1"/>
        <pt x="130" y="650" on="1"/>
        <pt x="136" y="690" on="1"/>
      </contour>
    </TTGlyph>
    <TTGlyph name="Zacute" xMin="16" yMin="0" xMax="510" yMax="881">
      <component glyphName="Z" x="0" y="0" flags="0x204"/>
      <component glyphName="acute" x="125" y="205" flags="0x4"/>
    </TTGlyph>
    <TTGlyph name="Zacute.flat" xMin="16" yMin="0" xMax="510" yMax="881">
      <component glyphName="Z.flat" x="0" y="0" flags="0x204"/>
      <component glyphName="acute" x="125" y="205" flags="0x4"/>
    </TTGlyph>
    <TTGlyph name="Zcaron" xMin="16" yMin="0" xMax="510" yMax="880">
      <component glyphName="Z" x="0" y="0" flags="0x204"/>
      <component glyphName="caron" x="72" y="205" flags="0x4"/>
    </TTGlyph>
    <TTGlyph name="Zcaron.flat" xMin="16" yMin="0" xMax="510" yMax="880">
      <component glyphName="Z.flat" x="0" y="0" flags="0x204"/>
      <component glyphName="caron" x="72" y="205" flags="0x4"/>
    </TTGlyph>
    <TTGlyph name="Zdotaccent" xMin="16" yMin="0" xMax="510" yMax="826">
      <component glyphName="Z" x="0" y="0" flags="0x204"/>
      <component glyphName="dotaccent" x="72" y="205" flags="0x4"/>
    </TTGlyph>
    <TTGlyph name="Zdotaccent.flat" xMin="16" yMin="0" xMax="510" yMax="826">
      <component glyphName="Z.flat" x="0" y="0" flags="0x204"/>
      <component glyphName="dotaccent" x="72" y="205" flags="0x4"/>
    </TTGlyph>
    <TTGlyph name="a" xMin="34" yMin="-10" xMax="396" yMax="476">
      <contour>
        <pt x="305" y="151" on="1"/>
        <pt x="347" y="420" on="1"/>
        <pt x="328" y="428" on="0"/>
        <pt x="291" y="436" on="0"/>
        <pt x="268" y="436" on="1"/>
        <pt x="229" y="436" on="0"/>
        <pt x="160" y="393" on="0"/>
        <pt x="110" y="317" on="0"/>
        <pt x="80" y="212" on="0"/>
        <pt x="80" y="151" on="1"/>
        <pt x="80" y="91" on="0"/>
        <pt x="116" y="31" on="0"/>
        <pt x="148" y="31" on="1"/>
        <pt x="179" y="31" on="0"/>
        <pt x="252" y="92" on="0"/>
      </contour>
      <contour>
        <pt x="304" y="102" on="1"/>
        <pt x="258" y="50" on="0"/>
        <pt x="180" y="-10" on="0"/>
        <pt x="143" y="-10" on="1"/>
        <pt x="92" y="-10" on="0"/>
        <pt x="34" y="72" on="0"/>
        <pt x="34" y="147" on="1"/>
        <pt x="34" y="214" on="0"/>
        <pt x="70" y="334" on="0"/>
        <pt x="134" y="424" on="0"/>
        <pt x="222" y="476" on="0"/>
        <pt x="273" y="476" on="1"/>
        <pt x="304" y="476" on="0"/>
        <pt x="365" y="461" on="0"/>
        <pt x="396" y="446" on="1"/>
        <pt x="347" y="130" on="1"/>
        <pt x="347" y="0" on="1"/>
        <pt x="308" y="0" on="1"/>
      </contour>
    </TTGlyph>
    <TTGlyph name="a.alt" xMin="18" yMin="-9" xMax="358" yMax="480">
      <contour>
        <pt x="130" y="31" on="1"/>
        <pt x="165" y="31" on="0"/>
        <pt x="239" y="85" on="0"/>
        <pt x="279" y="133" on="1"/>
        <pt x="298" y="258" on="1"/>
        <pt x="171" y="245" on="0"/>
        <pt x="63" y="163" on="0"/>
        <pt x="63" y="104" on="1"/>
        <pt x="63" y="73" on="0"/>
        <pt x="98" y="31" on="0"/>
      </contour>
      <contour>
        <pt x="310" y="334" on="1"/>
        <pt x="317" y="388" on="0"/>
        <pt x="282" y="439" on="0"/>
        <pt x="236" y="439" on="1"/>
        <pt x="203" y="439" on="0"/>
        <pt x="135" y="417" on="0"/>
        <pt x="97" y="398" on="1"/>
        <pt x="97" y="442" on="1"/>
        <pt x="128" y="457" on="0"/>
        <pt x="201" y="480" on="0"/>
        <pt x="241" y="480" on="1"/>
        <pt x="306" y="480" on="0"/>
        <pt x="366" y="406" on="0"/>
        <pt x="356" y="339" on="1"/>
        <pt x="322" y="120" on="1"/>
        <pt x="322" y="0" on="1"/>
        <pt x="283" y="0" on="1"/>
        <pt x="279" y="85" on="1"/>
        <pt x="247" y="48" on="0"/>
        <pt x="171" y="-9" on="0"/>
        <pt x="126" y="-9" on="1"/>
        <pt x="78" y="-9" on="0"/>
        <pt x="18" y="52" on="0"/>
        <pt x="18" y="101" on="1"/>
        <pt x="18" y="176" on="0"/>
        <pt x="150" y="280" on="0"/>
        <pt x="304" y="296" on="1"/>
      </contour>
    </TTGlyph>
    <TTGlyph name="aacute" xMin="34" yMin="-10" xMax="427" yMax="679">
      <component glyphName="a" x="0" y="0" flags="0x204"/>
      <component glyphName="acute" x="79" y="3" flags="0x4"/>
    </TTGlyph>
    <TTGlyph name="aacute.alt" xMin="18" yMin="-9" xMax="402" yMax="679">
      <component glyphName="a.alt" x="0" y="0" flags="0x204"/>
      <component glyphName="acute" x="54" y="3" flags="0x4"/>
    </TTGlyph>
    <TTGlyph name="abreve" xMin="34" yMin="-10" xMax="398" yMax="655">
      <component glyphName="a" x="0" y="0" flags="0x204"/>
      <component glyphName="breve" x="22" y="3" flags="0x4"/>
    </TTGlyph>
    <TTGlyph name="abreve.alt" xMin="18" yMin="-9" xMax="373" yMax="655">
      <component glyphName="a.alt" x="0" y="0" flags="0x204"/>
      <component glyphName="breve" x="-3" y="3" flags="0x4"/>
    </TTGlyph>
    <TTGlyph name="acircumflex" xMin="34" yMin="-10" xMax="396" yMax="678">
      <component glyphName="a" x="0" y="0" flags="0x204"/>
      <component glyphName="circumflex" x="26" y="3" flags="0x4"/>
    </TTGlyph>
    <TTGlyph name="acircumflex.alt" xMin="18" yMin="-9" xMax="359" yMax="678">
      <component glyphName="a.alt" x="0" y="0" flags="0x204"/>
      <component glyphName="circumflex" x="1" y="3" flags="0x4"/>
    </TTGlyph>
    <TTGlyph name="acute" xMin="173" yMin="537" xMax="348" yMax="676">
      <contour>
        <pt x="348" y="660" on="1"/>
        <pt x="211" y="537" on="1"/>
        <pt x="173" y="537" on="1"/>
        <pt x="285" y="676" on="1"/>
      </contour>
    </TTGlyph>
    <TTGlyph name="adieresis" xMin="34" yMin="-10" xMax="396" yMax="624">
      <component glyphName="a" x="0" y="0" flags="0x204"/>
      <component glyphName="dieresis" x="25" y="3" flags="0x4"/>
    </TTGlyph>
    <TTGlyph name="adieresis.alt" xMin="18" yMin="-9" xMax="365" yMax="624">
      <component glyphName="a.alt" x="0" y="0" flags="0x204"/>
      <component glyphName="dieresis" x="0" y="3" flags="0x4"/>
    </TTGlyph>
    <TTGlyph name="ae" xMin="18" yMin="-9" xMax="629" yMax="480">
      <contour>
        <pt x="629" y="317" on="1"/>
        <pt x="629" y="295" on="0"/>
        <pt x="623" y="251" on="0"/>
        <pt x="620" y="233" on="1"/>
        <pt x="341" y="233" on="1"/>
        <pt x="340" y="222" on="0"/>
        <pt x="338" y="198" on="0"/>
        <pt x="338" y="187" on="1"/>
        <pt x="338" y="113" on="0"/>
        <pt x="401" y="33" on="0"/>
        <pt x="451" y="33" on="1"/>
        <pt x="485" y="33" on="0"/>
        <pt x="554" y="60" on="0"/>
        <pt x="588" y="87" on="1"/>
        <pt x="588" y="40" on="1"/>
        <pt x="557" y="18" on="0"/>
        <pt x="487" y="-9" on="0"/>
        <pt x="447" y="-9" on="1"/>
        <pt x="398" y="-9" on="0"/>
        <pt x="328" y="42" on="0"/>
        <pt x="309" y="87" on="1"/>
        <pt x="272" y="49" on="0"/>
        <pt x="182" y="-9" on="0"/>
        <pt x="135" y="-9" on="1"/>
        <pt x="84" y="-9" on="0"/>
        <pt x="18" y="53" on="0"/>
        <pt x="18" y="105" on="1"/>
        <pt x="18" y="176" on="0"/>
        <pt x="150" y="279" on="0"/>
        <pt x="305" y="296" on="1"/>
        <pt x="310" y="335" on="1"/>
        <pt x="317" y="389" on="0"/>
        <pt x="281" y="439" on="0"/>
        <pt x="235" y="439" on="1"/>
        <pt x="202" y="439" on="0"/>
        <pt x="134" y="417" on="0"/>
        <pt x="98" y="398" on="1"/>
        <pt x="98" y="442" on="1"/>
        <pt x="129" y="457" on="0"/>
        <pt x="200" y="480" on="0"/>
        <pt x="239" y="480" on="1"/>
        <pt x="290" y="480" on="0"/>
        <pt x="350" y="434" on="0"/>
        <pt x="354" y="391" on="1"/>
        <pt x="383" y="433" on="0"/>
        <pt x="456" y="480" on="0"/>
        <pt x="499" y="480" on="1"/>
        <pt x="564" y="480" on="0"/>
        <pt x="629" y="388" on="0"/>
      </contour>
      <contour>
        <pt x="580" y="270" on="1"/>
        <pt x="590" y="348" on="0"/>
        <pt x="546" y="440" on="0"/>
        <pt x="497" y="440" on="1"/>
        <pt x="447" y="440" on="0"/>
        <pt x="364" y="344" on="0"/>
        <pt x="347" y="270" on="1"/>
      </contour>
      <contour>
        <pt x="297" y="126" on="1"/>
        <pt x="295" y="139" on="0"/>
        <pt x="292" y="171" on="0"/>
        <pt x="292" y="187" on="1"/>
        <pt x="292" y="204" on="0"/>
        <pt x="296" y="244" on="0"/>
        <pt x="298" y="259" on="1"/>
        <pt x="171" y="244" on="0"/>
        <pt x="63" y="163" on="0"/>
        <pt x="63" y="108" on="1"/>
        <pt x="63" y="74" on="0"/>
        <pt x="103" y="32" on="0"/>
        <pt x="140" y="32" on="1"/>
        <pt x="180" y="32" on="0"/>
        <pt x="257" y="86" on="0"/>
      </contour>
    </TTGlyph>
    <TTGlyph name="aeacute" xMin="18" yMin="-9" xMax="629" yMax="679">
      <component glyphName="ae" x="0" y="0" flags="0x4"/>
      <component glyphName="acute" x="179" y="3" flags="0x4"/>
    </TTGlyph>
    <TTGlyph name="agrave" xMin="34" yMin="-10" xMax="396" yMax="680">
      <component glyphName="a" x="0" y="0" flags="0x204"/>
      <component glyphName="grave" x="-32" y="3" flags="0x4"/>
    </TTGlyph>
    <TTGlyph name="agrave.alt" xMin="18" yMin="-9" xMax="358" yMax="680">
      <component glyphName="a.alt" x="0" y="0" flags="0x204"/>
      <component glyphName="grave" x="-57" y="3" flags="0x4"/>
    </TTGlyph>
    <TTGlyph name="amacron" xMin="34" yMin="-10" xMax="397" yMax="612">
      <component glyphName="a" x="0" y="0" flags="0x204"/>
      <component glyphName="macron" x="24" y="3" flags="0x4"/>
    </TTGlyph>
    <TTGlyph name="amacron.alt" xMin="18" yMin="-9" xMax="372" yMax="612">
      <component glyphName="a.alt" x="0" y="0" flags="0x204"/>
      <component glyphName="macron" x="-1" y="3" flags="0x4"/>
    </TTGlyph>
    <TTGlyph name="ampersand" xMin="34" yMin="-10" xMax="538" yMax="700">
      <contour>
        <pt x="202" y="32" on="1"/>
        <pt x="252" y="32" on="0"/>
        <pt x="344" y="92" on="0"/>
        <pt x="384" y="152" on="1"/>
        <pt x="250" y="356" on="1"/>
        <pt x="166" y="323" on="0"/>
        <pt x="81" y="217" on="0"/>
        <pt x="81" y="156" on="1"/>
        <pt x="81" y="101" on="0"/>
        <pt x="148" y="32" on="0"/>
      </contour>
      <contour>
        <pt x="488" y="-6" on="1"/>
        <pt x="409" y="114" on="1"/>
        <pt x="365" y="53" on="0"/>
        <pt x="259" y="-9" on="0"/>
        <pt x="199" y="-10" on="1"/>
        <pt x="126" y="-10" on="0"/>
        <pt x="34" y="83" on="0"/>
        <pt x="34" y="154" on="1"/>
        <pt x="34" y="234" on="0"/>
        <pt x="138" y="356" on="0"/>
        <pt x="228" y="390" on="1"/>
        <pt x="201" y="433" on="0"/>
        <pt x="175" y="501" on="0"/>
        <pt x="175" y="539" on="1"/>
        <pt x="175" y="605" on="0"/>
        <pt x="265" y="700" on="0"/>
        <pt x="340" y="700" on="1"/>
        <pt x="377" y="700" on="0"/>
        <pt x="441" y="678" on="0"/>
        <pt x="469" y="660" on="1"/>
        <pt x="456" y="614" on="1"/>
        <pt x="428" y="633" on="0"/>
        <pt x="368" y="658" on="0"/>
        <pt x="338" y="658" on="1"/>
        <pt x="284" y="658" on="0"/>
        <pt x="222" y="589" on="0"/>
        <pt x="222" y="541" on="1"/>
        <pt x="222" y="510" on="0"/>
        <pt x="248" y="444" on="0"/>
        <pt x="276" y="401" on="1"/>
        <pt x="411" y="196" on="1"/>
        <pt x="433" y="237" on="0"/>
        <pt x="474" y="341" on="0"/>
        <pt x="493" y="404" on="1"/>
        <pt x="538" y="393" on="1"/>
        <pt x="516" y="322" on="0"/>
        <pt x="465" y="202" on="0"/>
        <pt x="437" y="156" on="1"/>
        <pt x="538" y="2" on="1"/>
      </contour>
    </TTGlyph>
    <TTGlyph name="ampersand.flat" xMin="34" yMin="-10" xMax="539" yMax="700">
      <contour>
        <pt x="202" y="32" on="1"/>
        <pt x="252" y="32" on="0"/>
        <pt x="344" y="92" on="0"/>
        <pt x="384" y="152" on="1"/>
        <pt x="250" y="356" on="1"/>
        <pt x="166" y="323" on="0"/>
        <pt x="81" y="217" on="0"/>
        <pt x="81" y="156" on="1"/>
        <pt x="81" y="101" on="0"/>
        <pt x="148" y="32" on="0"/>
      </contour>
      <contour>
        <pt x="484" y="0" on="1"/>
        <pt x="409" y="114" on="1"/>
        <pt x="365" y="53" on="0"/>
        <pt x="259" y="-9" on="0"/>
        <pt x="199" y="-10" on="1"/>
        <pt x="126" y="-10" on="0"/>
        <pt x="34" y="83" on="0"/>
        <pt x="34" y="154" on="1"/>
        <pt x="34" y="234" on="0"/>
        <pt x="138" y="356" on="0"/>
        <pt x="228" y="390" on="1"/>
        <pt x="201" y="433" on="0"/>
        <pt x="175" y="501" on="0"/>
        <pt x="175" y="540" on="1"/>
        <pt x="175" y="572" on="0"/>
        <pt x="199" y="631" on="0"/>
        <pt x="241" y="674" on="0"/>
        <pt x="303" y="700" on="0"/>
        <pt x="340" y="700" on="1"/>
        <pt x="377" y="700" on="0"/>
        <pt x="441" y="678" on="0"/>
        <pt x="469" y="660" on="1"/>
        <pt x="456" y="614" on="1"/>
        <pt x="428" y="633" on="0"/>
        <pt x="368" y="658" on="0"/>
        <pt x="338" y="658" on="1"/>
        <pt x="284" y="658" on="0"/>
        <pt x="222" y="588" on="0"/>
        <pt x="222" y="542" on="1"/>
        <pt x="222" y="510" on="0"/>
        <pt x="246" y="447" on="0"/>
        <pt x="276" y="401" on="1"/>
        <pt x="411" y="195" on="1"/>
        <pt x="433" y="237" on="0"/>
        <pt x="474" y="341" on="0"/>
        <pt x="493" y="404" on="1"/>
        <pt x="538" y="393" on="1"/>
        <pt x="516" y="322" on="0"/>
        <pt x="465" y="202" on="0"/>
        <pt x="437" y="156" on="1"/>
        <pt x="539" y="0" on="1"/>
      </contour>
    </TTGlyph>
    <TTGlyph name="aogonek" xMin="34" yMin="-162" xMax="396" yMax="476">
      <component glyphName="a" x="0" y="0" flags="0x204"/>
      <component glyphName="ogonek" x="118" y="0" flags="0x4"/>
    </TTGlyph>
    <TTGlyph name="aogonek.alt" xMin="18" yMin="-162" xMax="358" yMax="480">
      <component glyphName="a.alt" x="0" y="0" flags="0x204"/>
      <component glyphName="ogonek" x="92" y="0" flags="0x4"/>
    </TTGlyph>
    <TTGlyph name="aring" xMin="34" yMin="-10" xMax="396" yMax="714">
      <component glyphName="a" x="0" y="0" flags="0x204"/>
      <component glyphName="ring" x="26" y="3" flags="0x4"/>
    </TTGlyph>
    <TTGlyph name="aring.alt" xMin="18" yMin="-9" xMax="358" yMax="714">
      <component glyphName="a.alt" x="0" y="0" flags="0x204"/>
      <component glyphName="ring" x="1" y="3" flags="0x4"/>
    </TTGlyph>
    <TTGlyph name="aringacute" xMin="34" yMin="-10" xMax="458" yMax="889">
      <component glyphName="aring" x="0" y="0" flags="0x204"/>
      <component glyphName="acute" x="110" y="213" flags="0x4"/>
    </TTGlyph>
    <TTGlyph name="aringacute.alt" xMin="18" yMin="-9" xMax="433" yMax="891">
      <component glyphName="aring.alt" x="0" y="0" flags="0x204"/>
      <component glyphName="acute" x="85" y="215" flags="0x4"/>
    </TTGlyph>
    <TTGlyph name="asciicircum" xMin="106" yMin="510" xMax="371" yMax="699">
      <contour>
        <pt x="371" y="510" on="1"/>
        <pt x="337" y="510" on="1"/>
        <pt x="260" y="650" on="1"/>
        <pt x="145" y="510" on="1"/>
        <pt x="106" y="510" on="1"/>
        <pt x="248" y="699" on="1"/>
        <pt x="287" y="699" on="1"/>
      </contour>
    </TTGlyph>
    <TTGlyph name="asciitilde" xMin="55" yMin="254" xMax="374" yMax="369">
      <contour>
        <pt x="374" y="361" on="1"/>
        <pt x="355" y="306" on="0"/>
        <pt x="310" y="256" on="0"/>
        <pt x="283" y="256" on="1"/>
        <pt x="264" y="256" on="0"/>
        <pt x="232" y="272" on="0"/>
        <pt x="203" y="291" on="1"/>
        <pt x="179" y="307" on="0"/>
        <pt x="153" y="323" on="0"/>
        <pt x="140" y="323" on="1"/>
        <pt x="127" y="323" on="0"/>
        <pt x="103" y="288" on="0"/>
        <pt x="90" y="254" on="1"/>
        <pt x="55" y="262" on="1"/>
        <pt x="74" y="317" on="0"/>
        <pt x="120" y="368" on="0"/>
        <pt x="147" y="368" on="1"/>
        <pt x="166" y="368" on="0"/>
        <pt x="198" y="352" on="0"/>
        <pt x="227" y="332" on="1"/>
        <pt x="251" y="316" on="0"/>
        <pt x="277" y="300" on="0"/>
        <pt x="290" y="300" on="1"/>
        <pt x="303" y="300" on="0"/>
        <pt x="327" y="335" on="0"/>
        <pt x="340" y="369" on="1"/>
      </contour>
    </TTGlyph>
    <TTGlyph name="asterisk" xMin="85" yMin="435" xMax="356" yMax="696">
      <contour>
        <pt x="356" y="589" on="1"/>
        <pt x="248" y="545" on="1"/>
        <pt x="311" y="443" on="1"/>
        <pt x="297" y="435" on="1"/>
        <pt x="221" y="526" on="1"/>
        <pt x="144" y="435" on="1"/>
        <pt x="131" y="443" on="1"/>
        <pt x="193" y="545" on="1"/>
        <pt x="85" y="589" on="1"/>
        <pt x="90" y="605" on="1"/>
        <pt x="204" y="577" on="1"/>
        <pt x="212" y="696" on="1"/>
        <pt x="229" y="696" on="1"/>
        <pt x="238" y="577" on="1"/>
        <pt x="352" y="605" on="1"/>
      </contour>
    </TTGlyph>
    <TTGlyph name="at" xMin="45" yMin="-139" xMax="717" yMax="626">
      <contour>
        <pt x="339" y="-139" on="1"/>
        <pt x="274" y="-139" on="0"/>
        <pt x="165" y="-101" on="0"/>
        <pt x="88" y="-24" on="0"/>
        <pt x="45" y="94" on="0"/>
        <pt x="45" y="173" on="1"/>
        <pt x="45" y="266" on="0"/>
        <pt x="106" y="431" on="0"/>
        <pt x="211" y="554" on="0"/>
        <pt x="355" y="626" on="0"/>
        <pt x="438" y="626" on="1"/>
        <pt x="571" y="626" on="0"/>
        <pt x="717" y="469" on="0"/>
        <pt x="717" y="333" on="1"/>
        <pt x="717" y="269" on="0"/>
        <pt x="690" y="163" on="0"/>
        <pt x="643" y="87" on="0"/>
        <pt x="580" y="45" on="0"/>
        <pt x="545" y="45" on="1"/>
        <pt x="499" y="45" on="0"/>
        <pt x="451" y="98" on="0"/>
        <pt x="450" y="140" on="1"/>
        <pt x="414" y="94" on="0"/>
        <pt x="349" y="48" on="0"/>
        <pt x="316" y="48" on="1"/>
        <pt x="274" y="48" on="0"/>
        <pt x="221" y="118" on="0"/>
        <pt x="221" y="178" on="1"/>
        <pt x="221" y="232" on="0"/>
        <pt x="255" y="329" on="0"/>
        <pt x="313" y="401" on="0"/>
        <pt x="391" y="444" on="0"/>
        <pt x="434" y="444" on="1"/>
        <pt x="462" y="444" on="0"/>
        <pt x="512" y="430" on="0"/>
        <pt x="531" y="421" on="1"/>
        <pt x="495" y="188" on="1"/>
        <pt x="494" y="177" on="0"/>
        <pt x="491" y="152" on="0"/>
        <pt x="491" y="141" on="1"/>
        <pt x="491" y="110" on="0"/>
        <pt x="518" y="74" on="0"/>
        <pt x="549" y="74" on="1"/>
        <pt x="575" y="74" on="0"/>
        <pt x="625" y="111" on="0"/>
        <pt x="663" y="178" on="0"/>
        <pt x="686" y="274" on="0"/>
        <pt x="686" y="332" on="1"/>
        <pt x="686" y="456" on="0"/>
        <pt x="556" y="596" on="0"/>
        <pt x="436" y="596" on="1"/>
        <pt x="360" y="596" on="0"/>
        <pt x="227" y="527" on="0"/>
        <pt x="132" y="412" on="0"/>
        <pt x="77" y="258" on="0"/>
        <pt x="77" y="174" on="1"/>
        <pt x="77" y="30" on="0"/>
        <pt x="223" y="-109" on="0"/>
        <pt x="342" y="-109" on="1"/>
        <pt x="392" y="-109" on="0"/>
        <pt x="494" y="-84" on="0"/>
        <pt x="535" y="-63" on="1"/>
        <pt x="539" y="-93" on="1"/>
        <pt x="501" y="-112" on="0"/>
        <pt x="394" y="-139" on="0"/>
      </contour>
      <contour>
        <pt x="323" y="86" on="1"/>
        <pt x="350" y="86" on="0"/>
        <pt x="410" y="134" on="0"/>
        <pt x="453" y="189" on="1"/>
        <pt x="486" y="394" on="1"/>
        <pt x="474" y="400" on="0"/>
        <pt x="447" y="406" on="0"/>
        <pt x="432" y="406" on="1"/>
        <pt x="398" y="406" on="0"/>
        <pt x="338" y="371" on="0"/>
        <pt x="292" y="311" on="0"/>
        <pt x="265" y="228" on="0"/>
        <pt x="265" y="181" on="1"/>
        <pt x="265" y="133" on="0"/>
        <pt x="296" y="86" on="0"/>
      </contour>
    </TTGlyph>
    <TTGlyph name="atilde" xMin="34" yMin="-10" xMax="422" yMax="646">
      <component glyphName="a" x="0" y="0" flags="0x204"/>
      <component glyphName="tilde" x="27" y="3" flags="0x4"/>
    </TTGlyph>
    <TTGlyph name="atilde.alt" xMin="18" yMin="-9" xMax="397" yMax="646">
      <component glyphName="a.alt" x="0" y="0" flags="0x204"/>
      <component glyphName="tilde" x="2" y="3" flags="0x4"/>
    </TTGlyph>
    <TTGlyph name="b" xMin="36" yMin="-6" xMax="398" yMax="716">
      <contour>
        <pt x="36" y="29" on="1"/>
        <pt x="137" y="705" on="1"/>
        <pt x="183" y="716" on="1"/>
        <pt x="133" y="386" on="1"/>
        <pt x="172" y="429" on="0"/>
        <pt x="240" y="480" on="0"/>
        <pt x="277" y="480" on="1"/>
        <pt x="333" y="480" on="0"/>
        <pt x="398" y="390" on="0"/>
        <pt x="398" y="309" on="1"/>
        <pt x="398" y="244" on="0"/>
        <pt x="364" y="128" on="0"/>
        <pt x="302" y="43" on="0"/>
        <pt x="215" y="-6" on="0"/>
        <pt x="164" y="-6" on="1"/>
        <pt x="130" y="-6" on="0"/>
        <pt x="66" y="14" on="0"/>
      </contour>
      <contour>
        <pt x="85" y="53" on="1"/>
        <pt x="105" y="44" on="0"/>
        <pt x="146" y="34" on="0"/>
        <pt x="168" y="34" on="1"/>
        <pt x="207" y="34" on="0"/>
        <pt x="274" y="74" on="0"/>
        <pt x="324" y="146" on="0"/>
        <pt x="352" y="246" on="0"/>
        <pt x="352" y="305" on="1"/>
        <pt x="352" y="370" on="0"/>
        <pt x="309" y="439" on="0"/>
        <pt x="272" y="439" on="1"/>
        <pt x="241" y="439" on="0"/>
        <pt x="172" y="381" on="0"/>
        <pt x="126" y="330" on="1"/>
      </contour>
    </TTGlyph>
    <TTGlyph name="backslash" xMin="41" yMin="-122" xMax="397" yMax="695">
      <contour>
        <pt x="397" y="-113" on="1"/>
        <pt x="356" y="-122" on="1"/>
        <pt x="41" y="687" on="1"/>
        <pt x="83" y="695" on="1"/>
      </contour>
    </TTGlyph>
    <TTGlyph name="baht" xMin="-44" yMin="-127" xMax="518" yMax="746">
      <contour>
        <pt x="413" y="528" on="1"/>
        <pt x="413" y="584" on="0"/>
        <pt x="337" y="644" on="0"/>
        <pt x="274" y="644" on="1"/>
        <pt x="183" y="644" on="1"/>
        <pt x="144" y="377" on="1"/>
        <pt x="232" y="377" on="1"/>
        <pt x="269" y="377" on="0"/>
        <pt x="335" y="400" on="0"/>
        <pt x="384" y="440" on="0"/>
        <pt x="413" y="496" on="0"/>
      </contour>
      <contour>
        <pt x="394" y="203" on="1"/>
        <pt x="394" y="266" on="0"/>
        <pt x="301" y="340" on="0"/>
        <pt x="225" y="340" on="1"/>
        <pt x="138" y="340" on="1"/>
        <pt x="93" y="39" on="1"/>
        <pt x="193" y="39" on="1"/>
        <pt x="279" y="39" on="0"/>
        <pt x="394" y="125" on="0"/>
      </contour>
      <contour>
        <pt x="189" y="0" on="1"/>
        <pt x="71" y="0" on="1"/>
        <pt x="61" y="-16" on="0"/>
        <pt x="34" y="-59" on="0"/>
        <pt x="9" y="-99" on="0"/>
        <pt x="-8" y="-127" on="0"/>
        <pt x="-8" y="-127" on="1"/>
        <pt x="-44" y="-119" on="1"/>
        <pt x="47" y="27" on="1"/>
        <pt x="145" y="683" on="1"/>
        <pt x="279" y="683" on="1"/>
        <pt x="323" y="683" on="0"/>
        <pt x="392" y="659" on="0"/>
        <pt x="414" y="637" on="1"/>
        <pt x="482" y="746" on="1"/>
        <pt x="518" y="738" on="1"/>
        <pt x="436" y="609" on="1"/>
        <pt x="447" y="592" on="0"/>
        <pt x="458" y="551" on="0"/>
        <pt x="458" y="528" on="1"/>
        <pt x="458" y="496" on="0"/>
        <pt x="435" y="441" on="0"/>
        <pt x="397" y="398" on="0"/>
        <pt x="347" y="367" on="0"/>
        <pt x="320" y="359" on="1"/>
        <pt x="370" y="342" on="0"/>
        <pt x="439" y="263" on="0"/>
        <pt x="439" y="203" on="1"/>
        <pt x="439" y="154" on="0"/>
        <pt x="400" y="78" on="0"/>
        <pt x="333" y="27" on="0"/>
        <pt x="241" y="0" on="0"/>
      </contour>
    </TTGlyph>
    <TTGlyph name="bar" xMin="32" yMin="-191" xMax="216" yMax="755">
      <contour>
        <pt x="75" y="-184" on="1"/>
        <pt x="32" y="-191" on="1"/>
        <pt x="172" y="748" on="1"/>
        <pt x="216" y="755" on="1"/>
      </contour>
    </TTGlyph>
    <TTGlyph name="bar.tab" xMin="44" yMin="-131" xMax="228" yMax="815">
      <contour>
        <pt x="87" y="-124" on="1"/>
        <pt x="44" y="-131" on="1"/>
        <pt x="184" y="808" on="1"/>
        <pt x="228" y="815" on="1"/>
      </contour>
    </TTGlyph>
    <TTGlyph name="braceleft" xMin="49" yMin="-106" xMax="415" yMax="690">
      <contour>
        <pt x="415" y="690" on="1"/>
        <pt x="410" y="654" on="1"/>
        <pt x="361" y="654" on="1"/>
        <pt x="301" y="654" on="0"/>
        <pt x="252" y="591" on="0"/>
        <pt x="252" y="537" on="1"/>
        <pt x="252" y="457" on="1"/>
        <pt x="252" y="375" on="0"/>
        <pt x="179" y="301" on="0"/>
        <pt x="123" y="292" on="1"/>
        <pt x="123" y="290" on="1"/>
        <pt x="162" y="283" on="0"/>
        <pt x="209" y="237" on="0"/>
        <pt x="209" y="195" on="1"/>
        <pt x="209" y="171" on="0"/>
        <pt x="197" y="118" on="0"/>
        <pt x="184" y="66" on="0"/>
        <pt x="172" y="17" on="0"/>
        <pt x="172" y="-4" on="1"/>
        <pt x="172" y="-35" on="0"/>
        <pt x="212" y="-70" on="0"/>
        <pt x="255" y="-70" on="1"/>
        <pt x="304" y="-70" on="1"/>
        <pt x="304" y="-106" on="1"/>
        <pt x="252" y="-106" on="1"/>
        <pt x="192" y="-106" on="0"/>
        <pt x="128" y="-58" on="0"/>
        <pt x="128" y="-7" on="1"/>
        <pt x="128" y="16" on="0"/>
        <pt x="140" y="67" on="0"/>
        <pt x="154" y="118" on="0"/>
        <pt x="166" y="170" on="0"/>
        <pt x="166" y="193" on="1"/>
        <pt x="166" y="235" on="0"/>
        <pt x="113" y="274" on="0"/>
        <pt x="62" y="274" on="1"/>
        <pt x="49" y="274" on="1"/>
        <pt x="49" y="309" on="1"/>
        <pt x="66" y="309" on="1"/>
        <pt x="129" y="309" on="0"/>
        <pt x="208" y="378" on="0"/>
        <pt x="208" y="455" on="1"/>
        <pt x="208" y="531" on="1"/>
        <pt x="208" y="609" on="0"/>
        <pt x="285" y="690" on="0"/>
        <pt x="367" y="690" on="1"/>
      </contour>
    </TTGlyph>
    <TTGlyph name="braceleft.flat" xMin="46" yMin="-106" xMax="415" yMax="690">
      <contour>
        <pt x="415" y="690" on="1"/>
        <pt x="410" y="654" on="1"/>
        <pt x="361" y="654" on="1"/>
        <pt x="301" y="654" on="0"/>
        <pt x="252" y="591" on="0"/>
        <pt x="252" y="537" on="1"/>
        <pt x="252" y="457" on="1"/>
        <pt x="252" y="375" on="0"/>
        <pt x="179" y="301" on="0"/>
        <pt x="123" y="292" on="1"/>
        <pt x="123" y="290" on="1"/>
        <pt x="162" y="283" on="0"/>
        <pt x="209" y="237" on="0"/>
        <pt x="209" y="195" on="1"/>
        <pt x="209" y="171" on="0"/>
        <pt x="197" y="118" on="0"/>
        <pt x="184" y="66" on="0"/>
        <pt x="172" y="17" on="0"/>
        <pt x="172" y="-4" on="1"/>
        <pt x="172" y="-35" on="0"/>
        <pt x="212" y="-70" on="0"/>
        <pt x="255" y="-70" on="1"/>
        <pt x="306" y="-70" on="1"/>
        <pt x="300" y="-106" on="1"/>
        <pt x="252" y="-106" on="1"/>
        <pt x="192" y="-106" on="0"/>
        <pt x="128" y="-58" on="0"/>
        <pt x="128" y="-7" on="1"/>
        <pt x="128" y="16" on="0"/>
        <pt x="140" y="67" on="0"/>
        <pt x="154" y="118" on="0"/>
        <pt x="166" y="170" on="0"/>
        <pt x="166" y="193" on="1"/>
        <pt x="166" y="235" on="0"/>
        <pt x="113" y="274" on="0"/>
        <pt x="62" y="274" on="1"/>
        <pt x="46" y="274" on="1"/>
        <pt x="51" y="309" on="1"/>
        <pt x="66" y="309" on="1"/>
        <pt x="129" y="309" on="0"/>
        <pt x="208" y="378" on="0"/>
        <pt x="208" y="455" on="1"/>
        <pt x="208" y="531" on="1"/>
        <pt x="208" y="609" on="0"/>
        <pt x="285" y="690" on="0"/>
        <pt x="367" y="690" on="1"/>
      </contour>
    </TTGlyph>
    <TTGlyph name="braceright" xMin="-5" yMin="-106" xMax="362" yMax="691">
      <contour>
        <pt x="-5" y="-106" on="1"/>
        <pt x="1" y="-69" on="1"/>
        <pt x="49" y="-69" on="1"/>
        <pt x="109" y="-69" on="0"/>
        <pt x="159" y="-6" on="0"/>
        <pt x="159" y="48" on="1"/>
        <pt x="159" y="128" on="1"/>
        <pt x="159" y="210" on="0"/>
        <pt x="231" y="284" on="0"/>
        <pt x="288" y="293" on="1"/>
        <pt x="288" y="295" on="1"/>
        <pt x="249" y="302" on="0"/>
        <pt x="201" y="348" on="0"/>
        <pt x="201" y="390" on="1"/>
        <pt x="201" y="414" on="0"/>
        <pt x="213" y="467" on="0"/>
        <pt x="226" y="519" on="0"/>
        <pt x="238" y="568" on="0"/>
        <pt x="238" y="589" on="1"/>
        <pt x="238" y="620" on="0"/>
        <pt x="199" y="654" on="0"/>
        <pt x="156" y="654" on="1"/>
        <pt x="107" y="654" on="1"/>
        <pt x="107" y="691" on="1"/>
        <pt x="158" y="691" on="1"/>
        <pt x="218" y="691" on="0"/>
        <pt x="282" y="642" on="0"/>
        <pt x="282" y="592" on="1"/>
        <pt x="282" y="569" on="0"/>
        <pt x="270" y="518" on="0"/>
        <pt x="256" y="467" on="0"/>
        <pt x="244" y="415" on="0"/>
        <pt x="244" y="392" on="1"/>
        <pt x="244" y="350" on="0"/>
        <pt x="298" y="311" on="0"/>
        <pt x="348" y="311" on="1"/>
        <pt x="362" y="311" on="1"/>
        <pt x="362" y="276" on="1"/>
        <pt x="345" y="276" on="1"/>
        <pt x="281" y="276" on="0"/>
        <pt x="203" y="207" on="0"/>
        <pt x="203" y="130" on="1"/>
        <pt x="203" y="54" on="1"/>
        <pt x="203" y="-24" on="0"/>
        <pt x="125" y="-106" on="0"/>
        <pt x="44" y="-106" on="1"/>
      </contour>
    </TTGlyph>
    <TTGlyph name="braceright.flat" xMin="-5" yMin="-106" xMax="364" yMax="691">
      <contour>
        <pt x="-5" y="-106" on="1"/>
        <pt x="1" y="-69" on="1"/>
        <pt x="49" y="-69" on="1"/>
        <pt x="109" y="-69" on="0"/>
        <pt x="159" y="-6" on="0"/>
        <pt x="159" y="48" on="1"/>
        <pt x="159" y="128" on="1"/>
        <pt x="159" y="210" on="0"/>
        <pt x="231" y="284" on="0"/>
        <pt x="288" y="293" on="1"/>
        <pt x="288" y="295" on="1"/>
        <pt x="249" y="302" on="0"/>
        <pt x="201" y="348" on="0"/>
        <pt x="201" y="390" on="1"/>
        <pt x="201" y="414" on="0"/>
        <pt x="213" y="467" on="0"/>
        <pt x="226" y="519" on="0"/>
        <pt x="238" y="568" on="0"/>
        <pt x="238" y="589" on="1"/>
        <pt x="238" y="620" on="0"/>
        <pt x="199" y="654" on="0"/>
        <pt x="156" y="654" on="1"/>
        <pt x="104" y="654" on="1"/>
        <pt x="110" y="691" on="1"/>
        <pt x="158" y="691" on="1"/>
        <pt x="218" y="691" on="0"/>
        <pt x="282" y="642" on="0"/>
        <pt x="282" y="592" on="1"/>
        <pt x="282" y="569" on="0"/>
        <pt x="270" y="518" on="0"/>
        <pt x="256" y="467" on="0"/>
        <pt x="244" y="415" on="0"/>
        <pt x="244" y="392" on="1"/>
        <pt x="244" y="350" on="0"/>
        <pt x="298" y="311" on="0"/>
        <pt x="348" y="311" on="1"/>
        <pt x="364" y="311" on="1"/>
        <pt x="359" y="276" on="1"/>
        <pt x="345" y="276" on="1"/>
        <pt x="281" y="276" on="0"/>
        <pt x="203" y="207" on="0"/>
        <pt x="203" y="130" on="1"/>
        <pt x="203" y="54" on="1"/>
        <pt x="203" y="-24" on="0"/>
        <pt x="125" y="-106" on="0"/>
        <pt x="44" y="-106" on="1"/>
      </contour>
    </TTGlyph>
    <TTGlyph name="bracketleft" xMin="38" yMin="-106" xMax="366" yMax="690">
      <contour>
        <pt x="366" y="690" on="1"/>
        <pt x="360" y="654" on="1"/>
        <pt x="195" y="654" on="1"/>
        <pt x="87" y="-70" on="1"/>
        <pt x="250" y="-70" on="1"/>
        <pt x="251" y="-106" on="1"/>
        <pt x="38" y="-106" on="1"/>
        <pt x="157" y="690" on="1"/>
      </contour>
    </TTGlyph>
    <TTGlyph name="bracketleft.flat" xMin="38" yMin="-106" xMax="366" yMax="690">
      <contour>
        <pt x="366" y="690" on="1"/>
        <pt x="360" y="654" on="1"/>
        <pt x="195" y="654" on="1"/>
        <pt x="87" y="-70" on="1"/>
        <pt x="252" y="-70" on="1"/>
        <pt x="246" y="-106" on="1"/>
        <pt x="38" y="-106" on="1"/>
        <pt x="157" y="690" on="1"/>
      </contour>
    </TTGlyph>
    <TTGlyph name="bracketright" xMin="-28" yMin="-106" xMax="300" yMax="690">
      <contour>
        <pt x="300" y="690" on="1"/>
        <pt x="181" y="-106" on="1"/>
        <pt x="-28" y="-106" on="1"/>
        <pt x="-23" y="-70" on="1"/>
        <pt x="143" y="-70" on="1"/>
        <pt x="251" y="654" on="1"/>
        <pt x="88" y="654" on="1"/>
        <pt x="87" y="690" on="1"/>
      </contour>
    </TTGlyph>
    <TTGlyph name="bracketright.flat" xMin="-28" yMin="-106" xMax="300" yMax="690">
      <contour>
        <pt x="-28" y="-106" on="1"/>
        <pt x="-23" y="-70" on="1"/>
        <pt x="143" y="-70" on="1"/>
        <pt x="251" y="654" on="1"/>
        <pt x="86" y="654" on="1"/>
        <pt x="92" y="690" on="1"/>
        <pt x="300" y="690" on="1"/>
        <pt x="181" y="-106" on="1"/>
      </contour>
    </TTGlyph>
    <TTGlyph name="breve" xMin="159" yMin="540" xMax="376" yMax="652">
      <contour>
        <pt x="376" y="647" on="1"/>
        <pt x="365" y="600" on="0"/>
        <pt x="303" y="540" on="0"/>
        <pt x="254" y="540" on="1"/>
        <pt x="204" y="540" on="0"/>
        <pt x="158" y="601" on="0"/>
        <pt x="160" y="647" on="1"/>
        <pt x="194" y="652" on="1"/>
        <pt x="195" y="618" on="0"/>
        <pt x="230" y="584" on="0"/>
        <pt x="259" y="584" on="1"/>
        <pt x="289" y="584" on="0"/>
        <pt x="331" y="618" on="0"/>
        <pt x="344" y="652" on="1"/>
      </contour>
    </TTGlyph>
    <TTGlyph name="bullet" xMin="96" yMin="239" xMax="289" yMax="460">
      <contour>
        <pt x="289" y="350" on="1"/>
        <pt x="274" y="255" on="1"/>
        <pt x="192" y="239" on="1"/>
        <pt x="111" y="255" on="1"/>
        <pt x="96" y="350" on="1"/>
        <pt x="111" y="445" on="1"/>
        <pt x="192" y="460" on="1"/>
        <pt x="274" y="445" on="1"/>
      </contour>
    </TTGlyph>
    <TTGlyph name="c" xMin="35" yMin="-9" xMax="362" yMax="480">
      <contour>
        <pt x="362" y="439" on="1"/>
        <pt x="352" y="392" on="1"/>
        <pt x="328" y="414" on="0"/>
        <pt x="280" y="438" on="0"/>
        <pt x="252" y="438" on="1"/>
        <pt x="215" y="438" on="0"/>
        <pt x="152" y="395" on="0"/>
        <pt x="107" y="325" on="0"/>
        <pt x="81" y="234" on="0"/>
        <pt x="81" y="186" on="1"/>
        <pt x="81" y="114" on="0"/>
        <pt x="144" y="33" on="0"/>
        <pt x="194" y="33" on="1"/>
        <pt x="224" y="33" on="0"/>
        <pt x="283" y="56" on="0"/>
        <pt x="315" y="80" on="1"/>
        <pt x="315" y="34" on="1"/>
        <pt x="289" y="15" on="0"/>
        <pt x="226" y="-9" on="0"/>
        <pt x="191" y="-9" on="1"/>
        <pt x="124" y="-9" on="0"/>
        <pt x="35" y="92" on="0"/>
        <pt x="35" y="185" on="1"/>
        <pt x="35" y="244" on="0"/>
        <pt x="68" y="351" on="0"/>
        <pt x="127" y="432" on="0"/>
        <pt x="207" y="480" on="0"/>
        <pt x="253" y="480" on="1"/>
        <pt x="288" y="480" on="0"/>
        <pt x="343" y="455" on="0"/>
      </contour>
    </TTGlyph>
    <TTGlyph name="cacute" xMin="35" yMin="-9" xMax="414" yMax="679">
      <component glyphName="c" x="0" y="0" flags="0x204"/>
      <component glyphName="acute" x="66" y="3" flags="0x4"/>
    </TTGlyph>
    <TTGlyph name="caron" xMin="160" yMin="537" xMax="380" yMax="675">
      <contour>
        <pt x="160" y="675" on="1"/>
        <pt x="188" y="675" on="1"/>
        <pt x="256" y="589" on="1"/>
        <pt x="346" y="675" on="1"/>
        <pt x="380" y="675" on="1"/>
        <pt x="267" y="537" on="1"/>
        <pt x="231" y="537" on="1"/>
      </contour>
    </TTGlyph>
    <TTGlyph name="caron.alt" xMin="179" yMin="534" xMax="274" yMax="713">
      <contour>
        <pt x="264" y="713" on="1"/>
        <pt x="269" y="700" on="0"/>
        <pt x="274" y="676" on="0"/>
        <pt x="274" y="664" on="1"/>
        <pt x="274" y="628" on="0"/>
        <pt x="231" y="560" on="0"/>
        <pt x="201" y="534" on="1"/>
        <pt x="179" y="540" on="1"/>
        <pt x="204" y="570" on="0"/>
        <pt x="229" y="622" on="0"/>
        <pt x="229" y="650" on="1"/>
        <pt x="229" y="663" on="0"/>
        <pt x="223" y="688" on="0"/>
        <pt x="219" y="702" on="1"/>
      </contour>
    </TTGlyph>
    <TTGlyph name="ccaron" xMin="35" yMin="-9" xMax="392" yMax="678">
      <component glyphName="c" x="0" y="0" flags="0x204"/>
      <component glyphName="caron" x="12" y="3" flags="0x4"/>
    </TTGlyph>
    <TTGlyph name="ccedilla" xMin="35" yMin="-184" xMax="362" yMax="480">
      <component glyphName="c" x="0" y="0" flags="0x204"/>
      <component glyphName="cedilla" x="-1" y="0" flags="0x4"/>
    </TTGlyph>
    <TTGlyph name="cdotaccent" xMin="35" yMin="-9" xMax="362" yMax="624">
      <component glyphName="c" x="0" y="0" flags="0x204"/>
      <component glyphName="dotaccent" x="12" y="3" flags="0x4"/>
    </TTGlyph>
    <TTGlyph name="cedilla" xMin="52" yMin="-184" xMax="212" yMax="-57">
      <contour>
        <pt x="212" y="-75" on="1"/>
        <pt x="87" y="-184" on="1"/>
        <pt x="52" y="-184" on="1"/>
        <pt x="154" y="-57" on="1"/>
      </contour>
    </TTGlyph>
    <TTGlyph name="cent" xMin="57" yMin="-11" xMax="404" yMax="692">
      <contour>
        <pt x="101" y="292" on="1"/>
        <pt x="101" y="241" on="0"/>
        <pt x="136" y="168" on="0"/>
        <pt x="164" y="149" on="1"/>
        <pt x="286" y="549" on="1"/>
        <pt x="283" y="549" on="0"/>
        <pt x="277" y="549" on="0"/>
        <pt x="274" y="549" on="1"/>
        <pt x="236" y="549" on="0"/>
        <pt x="172" y="505" on="0"/>
        <pt x="126" y="434" on="0"/>
        <pt x="101" y="341" on="0"/>
      </contour>
      <contour>
        <pt x="223" y="95" on="1"/>
        <pt x="213" y="95" on="0"/>
        <pt x="194" y="97" on="0"/>
        <pt x="185" y="99" on="1"/>
        <pt x="152" y="-11" on="1"/>
        <pt x="118" y="-4" on="1"/>
        <pt x="153" y="110" on="1"/>
        <pt x="110" y="130" on="0"/>
        <pt x="57" y="222" on="0"/>
        <pt x="57" y="291" on="1"/>
        <pt x="57" y="351" on="0"/>
        <pt x="91" y="458" on="0"/>
        <pt x="150" y="539" on="0"/>
        <pt x="230" y="586" on="0"/>
        <pt x="277" y="586" on="1"/>
        <pt x="282" y="586" on="0"/>
        <pt x="292" y="586" on="0"/>
        <pt x="296" y="585" on="1"/>
        <pt x="329" y="692" on="1"/>
        <pt x="363" y="685" on="1"/>
        <pt x="331" y="578" on="1"/>
        <pt x="353" y="572" on="0"/>
        <pt x="390" y="550" on="0"/>
        <pt x="404" y="537" on="1"/>
        <pt x="390" y="499" on="1"/>
        <pt x="374" y="515" on="0"/>
        <pt x="339" y="537" on="0"/>
        <pt x="319" y="543" on="1"/>
        <pt x="196" y="136" on="1"/>
        <pt x="203" y="134" on="0"/>
        <pt x="218" y="132" on="0"/>
        <pt x="225" y="132" on="1"/>
        <pt x="260" y="132" on="0"/>
        <pt x="326" y="161" on="0"/>
        <pt x="357" y="185" on="1"/>
        <pt x="357" y="141" on="1"/>
        <pt x="329" y="121" on="0"/>
        <pt x="260" y="95" on="0"/>
      </contour>
    </TTGlyph>
    <TTGlyph name="cent.tab" xMin="87" yMin="-11" xMax="452" yMax="692">
      <contour>
        <pt x="131" y="296" on="1"/>
        <pt x="131" y="241" on="0"/>
        <pt x="170" y="167" on="0"/>
        <pt x="201" y="148" on="1"/>
        <pt x="322" y="549" on="1"/>
        <pt x="321" y="549" on="0"/>
        <pt x="317" y="549" on="0"/>
        <pt x="316" y="549" on="1"/>
        <pt x="275" y="549" on="0"/>
        <pt x="206" y="505" on="0"/>
        <pt x="158" y="435" on="0"/>
        <pt x="131" y="343" on="0"/>
      </contour>
      <contour>
        <pt x="262" y="95" on="1"/>
        <pt x="252" y="95" on="0"/>
        <pt x="232" y="97" on="0"/>
        <pt x="222" y="99" on="1"/>
        <pt x="188" y="-11" on="1"/>
        <pt x="154" y="-4" on="1"/>
        <pt x="189" y="110" on="1"/>
        <pt x="144" y="130" on="0"/>
        <pt x="87" y="224" on="0"/>
        <pt x="87" y="293" on="1"/>
        <pt x="87" y="352" on="0"/>
        <pt x="123" y="459" on="0"/>
        <pt x="185" y="539" on="0"/>
        <pt x="270" y="586" on="0"/>
        <pt x="319" y="586" on="1"/>
        <pt x="323" y="586" on="0"/>
        <pt x="329" y="586" on="0"/>
        <pt x="333" y="586" on="1"/>
        <pt x="365" y="692" on="1"/>
        <pt x="400" y="685" on="1"/>
        <pt x="367" y="580" on="1"/>
        <pt x="393" y="574" on="0"/>
        <pt x="436" y="551" on="0"/>
        <pt x="452" y="537" on="1"/>
        <pt x="438" y="499" on="1"/>
        <pt x="420" y="515" on="0"/>
        <pt x="379" y="539" on="0"/>
        <pt x="357" y="544" on="1"/>
        <pt x="233" y="136" on="1"/>
        <pt x="240" y="134" on="0"/>
        <pt x="258" y="132" on="0"/>
        <pt x="266" y="132" on="1"/>
        <pt x="302" y="132" on="0"/>
        <pt x="366" y="157" on="0"/>
        <pt x="397" y="178" on="1"/>
        <pt x="400" y="138" on="1"/>
        <pt x="374" y="121" on="0"/>
        <pt x="305" y="95" on="0"/>
      </contour>
    </TTGlyph>
    <TTGlyph name="circumflex" xMin="138" yMin="537" xMax="358" yMax="675">
      <contour>
        <pt x="358" y="537" on="1"/>
        <pt x="330" y="537" on="1"/>
        <pt x="263" y="623" on="1"/>
        <pt x="172" y="537" on="1"/>
        <pt x="138" y="537" on="1"/>
        <pt x="252" y="675" on="1"/>
        <pt x="288" y="675" on="1"/>
      </contour>
    </TTGlyph>
    <TTGlyph name="colon" xMin="24" yMin="0" xMax="151" yMax="470">
      <contour>
        <pt x="151" y="470" on="1"/>
        <pt x="139" y="390" on="1"/>
        <pt x="81" y="390" on="1"/>
        <pt x="93" y="470" on="1"/>
      </contour>
      <contour>
        <pt x="94" y="81" on="1"/>
        <pt x="82" y="0" on="1"/>
        <pt x="24" y="0" on="1"/>
        <pt x="36" y="81" on="1"/>
      </contour>
    </TTGlyph>
    <TTGlyph name="colon.tab" xMin="58" yMin="0" xMax="186" yMax="470">
      <contour>
        <pt x="174" y="389" on="1"/>
        <pt x="116" y="389" on="1"/>
        <pt x="128" y="470" on="1"/>
        <pt x="186" y="470" on="1"/>
      </contour>
      <contour>
        <pt x="116" y="0" on="1"/>
        <pt x="58" y="0" on="1"/>
        <pt x="70" y="81" on="1"/>
        <pt x="128" y="81" on="1"/>
      </contour>
    </TTGlyph>
    <TTGlyph name="colonmonetary" xMin="46" yMin="-119" xMax="523" yMax="762">
      <contour>
        <pt x="266" y="-119" on="1"/>
        <pt x="232" y="-109" on="1"/>
        <pt x="264" y="-4" on="1"/>
        <pt x="237" y="-4" on="0"/>
        <pt x="188" y="9" on="0"/>
        <pt x="167" y="20" on="1"/>
        <pt x="126" y="-114" on="1"/>
        <pt x="92" y="-104" on="1"/>
        <pt x="136" y="41" on="1"/>
        <pt x="93" y="77" on="0"/>
        <pt x="46" y="196" on="0"/>
        <pt x="46" y="273" on="1"/>
        <pt x="46" y="351" on="0"/>
        <pt x="86" y="494" on="0"/>
        <pt x="159" y="605" on="0"/>
        <pt x="263" y="677" on="0"/>
        <pt x="326" y="684" on="1"/>
        <pt x="349" y="762" on="1"/>
        <pt x="383" y="753" on="1"/>
        <pt x="363" y="685" on="1"/>
        <pt x="391" y="684" on="0"/>
        <pt x="440" y="669" on="0"/>
        <pt x="460" y="659" on="1"/>
        <pt x="489" y="757" on="1"/>
        <pt x="523" y="748" on="1"/>
        <pt x="313" y="39" on="1"/>
        <pt x="342" y="44" on="0"/>
        <pt x="397" y="69" on="0"/>
        <pt x="425" y="88" on="1"/>
        <pt x="425" y="45" on="1"/>
        <pt x="397" y="26" on="0"/>
        <pt x="335" y="2" on="0"/>
        <pt x="301" y="-2" on="1"/>
      </contour>
      <contour>
        <pt x="269" y="35" on="1"/>
        <pt x="269" y="35" on="0"/>
        <pt x="271" y="35" on="0"/>
        <pt x="275" y="35" on="1"/>
        <pt x="449" y="620" on="1"/>
        <pt x="427" y="632" on="0"/>
        <pt x="376" y="647" on="0"/>
        <pt x="352" y="647" on="1"/>
        <pt x="178" y="60" on="1"/>
        <pt x="197" y="48" on="0"/>
        <pt x="243" y="35" on="0"/>
      </contour>
      <contour>
        <pt x="89" y="270" on="1"/>
        <pt x="89" y="209" on="0"/>
        <pt x="120" y="115" on="0"/>
        <pt x="148" y="85" on="1"/>
        <pt x="314" y="644" on="1"/>
        <pt x="262" y="634" on="0"/>
        <pt x="178" y="566" on="0"/>
        <pt x="120" y="466" on="0"/>
        <pt x="89" y="338" on="0"/>
      </contour>
    </TTGlyph>
    <TTGlyph name="comma" xMin="-26" yMin="-131" xMax="102" yMax="81">
      <contour>
        <pt x="102" y="81" on="1"/>
        <pt x="-3" y="-131" on="1"/>
        <pt x="-26" y="-125" on="1"/>
        <pt x="42" y="81" on="1"/>
      </contour>
    </TTGlyph>
    <TTGlyph name="comma.alt" xMin="-32" yMin="-132" xMax="93" yMax="81">
      <contour>
        <pt x="39" y="81" on="1"/>
        <pt x="92" y="81" on="1"/>
        <pt x="93" y="76" on="0"/>
        <pt x="93" y="66" on="0"/>
        <pt x="93" y="62" on="1"/>
        <pt x="93" y="15" on="0"/>
        <pt x="41" y="-82" on="0"/>
        <pt x="-13" y="-132" on="1"/>
        <pt x="-32" y="-119" on="1"/>
        <pt x="11" y="-64" on="0"/>
        <pt x="39" y="30" on="0"/>
        <pt x="40" y="68" on="1"/>
        <pt x="40" y="72" on="0"/>
        <pt x="40" y="77" on="0"/>
      </contour>
    </TTGlyph>
    <TTGlyph name="comma.tab" xMin="25" yMin="-145" xMax="140" yMax="81">
      <contour>
        <pt x="140" y="81" on="1"/>
        <pt x="48" y="-145" on="1"/>
        <pt x="25" y="-139" on="1"/>
        <pt x="81" y="81" on="1"/>
      </contour>
    </TTGlyph>
    <TTGlyph name="comma.tab_alt" xMin="1" yMin="-144" xMax="131" yMax="81">
      <contour>
        <pt x="78" y="81" on="1"/>
        <pt x="130" y="81" on="1"/>
        <pt x="131" y="78" on="0"/>
        <pt x="131" y="70" on="0"/>
        <pt x="131" y="68" on="1"/>
        <pt x="130" y="15" on="0"/>
        <pt x="79" y="-89" on="0"/>
        <pt x="19" y="-144" on="1"/>
        <pt x="1" y="-132" on="1"/>
        <pt x="47" y="-73" on="0"/>
        <pt x="78" y="29" on="0"/>
        <pt x="78" y="70" on="1"/>
      </contour>
    </TTGlyph>
    <TTGlyph name="commaaccent" xMin="91" yMin="-219" xMax="199" yMax="-60">
      <contour>
        <pt x="127" y="-76" on="1"/>
        <pt x="172" y="-60" on="1"/>
        <pt x="187" y="-74" on="0"/>
        <pt x="199" y="-101" on="0"/>
        <pt x="199" y="-116" on="1"/>
        <pt x="199" y="-144" on="0"/>
        <pt x="155" y="-195" on="0"/>
        <pt x="121" y="-219" on="1"/>
        <pt x="91" y="-214" on="1"/>
        <pt x="123" y="-186" on="0"/>
        <pt x="153" y="-144" on="0"/>
        <pt x="153" y="-125" on="1"/>
        <pt x="153" y="-113" on="0"/>
        <pt x="140" y="-89" on="0"/>
      </contour>
    </TTGlyph>
    <TTGlyph name="commaaccent.rot" xMin="246" yMin="544" xMax="354" yMax="703">
      <contour>
        <pt x="318" y="560" on="1"/>
        <pt x="273" y="544" on="1"/>
        <pt x="258" y="558" on="0"/>
        <pt x="246" y="585" on="0"/>
        <pt x="246" y="600" on="1"/>
        <pt x="246" y="629" on="0"/>
        <pt x="290" y="680" on="0"/>
        <pt x="324" y="703" on="1"/>
        <pt x="354" y="699" on="1"/>
        <pt x="322" y="671" on="0"/>
        <pt x="292" y="629" on="0"/>
        <pt x="292" y="610" on="1"/>
        <pt x="292" y="597" on="0"/>
        <pt x="305" y="574" on="0"/>
      </contour>
    </TTGlyph>
    <TTGlyph name="copyright" xMin="75" yMin="-16" xMax="692" yMax="706">
      <contour>
        <pt x="692" y="345" on="1"/>
        <pt x="692" y="267" on="0"/>
        <pt x="648" y="134" on="0"/>
        <pt x="568" y="39" on="0"/>
        <pt x="454" y="-16" on="0"/>
        <pt x="385" y="-16" on="1"/>
        <pt x="316" y="-16" on="0"/>
        <pt x="201" y="39" on="0"/>
        <pt x="120" y="134" on="0"/>
        <pt x="75" y="267" on="0"/>
        <pt x="75" y="345" on="1"/>
        <pt x="75" y="423" on="0"/>
        <pt x="119" y="556" on="0"/>
        <pt x="200" y="651" on="0"/>
        <pt x="314" y="706" on="0"/>
        <pt x="383" y="706" on="1"/>
        <pt x="452" y="706" on="0"/>
        <pt x="566" y="651" on="0"/>
        <pt x="647" y="556" on="0"/>
        <pt x="692" y="423" on="0"/>
      </contour>
      <contour>
        <pt x="664" y="345" on="1"/>
        <pt x="664" y="418" on="0"/>
        <pt x="624" y="542" on="0"/>
        <pt x="550" y="631" on="0"/>
        <pt x="445" y="681" on="0"/>
        <pt x="382" y="681" on="1"/>
        <pt x="319" y="681" on="0"/>
        <pt x="216" y="631" on="0"/>
        <pt x="144" y="542" on="0"/>
        <pt x="104" y="418" on="0"/>
        <pt x="104" y="345" on="1"/>
        <pt x="104" y="272" on="0"/>
        <pt x="144" y="149" on="0"/>
        <pt x="218" y="60" on="0"/>
        <pt x="322" y="10" on="0"/>
        <pt x="386" y="10" on="1"/>
        <pt x="449" y="10" on="0"/>
        <pt x="552" y="60" on="0"/>
        <pt x="624" y="149" on="0"/>
        <pt x="664" y="273" on="0"/>
      </contour>
      <contour>
        <pt x="497" y="182" on="1"/>
        <pt x="475" y="166" on="0"/>
        <pt x="423" y="144" on="0"/>
        <pt x="389" y="144" on="1"/>
        <pt x="321" y="144" on="0"/>
        <pt x="238" y="258" on="0"/>
        <pt x="238" y="348" on="1"/>
        <pt x="238" y="438" on="0"/>
        <pt x="323" y="553" on="0"/>
        <pt x="392" y="553" on="1"/>
        <pt x="421" y="553" on="0"/>
        <pt x="470" y="536" on="0"/>
        <pt x="491" y="521" on="1"/>
        <pt x="484" y="480" on="1"/>
        <pt x="460" y="498" on="0"/>
        <pt x="416" y="516" on="0"/>
        <pt x="390" y="516" on="1"/>
        <pt x="339" y="516" on="0"/>
        <pt x="279" y="421" on="0"/>
        <pt x="279" y="349" on="1"/>
        <pt x="279" y="273" on="0"/>
        <pt x="341" y="180" on="0"/>
        <pt x="392" y="180" on="1"/>
        <pt x="421" y="180" on="0"/>
        <pt x="468" y="201" on="0"/>
        <pt x="493" y="222" on="1"/>
      </contour>
    </TTGlyph>
    <TTGlyph name="d" xMin="34" yMin="-10" xMax="437" yMax="715">
      <contour>
        <pt x="347" y="418" on="1"/>
        <pt x="327" y="427" on="0"/>
        <pt x="288" y="436" on="0"/>
        <pt x="265" y="436" on="1"/>
        <pt x="225" y="436" on="0"/>
        <pt x="157" y="396" on="0"/>
        <pt x="108" y="324" on="0"/>
        <pt x="80" y="224" on="0"/>
        <pt x="80" y="165" on="1"/>
        <pt x="80" y="100" on="0"/>
        <pt x="123" y="31" on="0"/>
        <pt x="160" y="31" on="1"/>
        <pt x="191" y="31" on="0"/>
        <pt x="260" y="90" on="0"/>
        <pt x="306" y="141" on="1"/>
      </contour>
      <contour>
        <pt x="437" y="715" on="1"/>
        <pt x="350" y="131" on="1"/>
        <pt x="350" y="0" on="1"/>
        <pt x="310" y="0" on="1"/>
        <pt x="306" y="93" on="1"/>
        <pt x="264" y="45" on="0"/>
        <pt x="194" y="-10" on="0"/>
        <pt x="155" y="-10" on="1"/>
        <pt x="99" y="-10" on="0"/>
        <pt x="34" y="81" on="0"/>
        <pt x="34" y="162" on="1"/>
        <pt x="34" y="227" on="0"/>
        <pt x="69" y="342" on="0"/>
        <pt x="130" y="427" on="0"/>
        <pt x="216" y="476" on="0"/>
        <pt x="267" y="476" on="1"/>
        <pt x="291" y="476" on="0"/>
        <pt x="335" y="467" on="0"/>
        <pt x="354" y="460" on="1"/>
        <pt x="390" y="705" on="1"/>
      </contour>
    </TTGlyph>
    <TTGlyph name="dagger" xMin="78" yMin="-97" xMax="437" yMax="690">
      <contour>
        <pt x="297" y="599" on="1"/>
        <pt x="267" y="492" on="1"/>
        <pt x="254" y="492" on="1"/>
        <pt x="254" y="596" on="1"/>
        <pt x="269" y="690" on="1"/>
        <pt x="311" y="690" on="1"/>
      </contour>
      <contour>
        <pt x="235" y="463" on="1"/>
        <pt x="134" y="447" on="1"/>
        <pt x="78" y="447" on="1"/>
        <pt x="84" y="491" on="1"/>
        <pt x="140" y="491" on="1"/>
        <pt x="237" y="475" on="1"/>
      </contour>
      <contour>
        <pt x="430" y="447" on="1"/>
        <pt x="374" y="447" on="1"/>
        <pt x="277" y="463" on="1"/>
        <pt x="278" y="475" on="1"/>
        <pt x="381" y="491" on="1"/>
        <pt x="437" y="491" on="1"/>
      </contour>
      <contour>
        <pt x="209" y="17" on="1"/>
        <pt x="177" y="-97" on="1"/>
        <pt x="168" y="-97" on="1"/>
        <pt x="170" y="17" on="1"/>
        <pt x="219" y="343" on="1"/>
        <pt x="247" y="447" on="1"/>
        <pt x="260" y="447" on="1"/>
        <pt x="258" y="343" on="1"/>
      </contour>
    </TTGlyph>
    <TTGlyph name="daggerdbl" xMin="21" yMin="-166" xMax="442" yMax="690">
      <contour>
        <pt x="302" y="599" on="1"/>
        <pt x="272" y="492" on="1"/>
        <pt x="259" y="492" on="1"/>
        <pt x="259" y="596" on="1"/>
        <pt x="274" y="690" on="1"/>
        <pt x="316" y="690" on="1"/>
      </contour>
      <contour>
        <pt x="435" y="447" on="1"/>
        <pt x="379" y="447" on="1"/>
        <pt x="282" y="463" on="1"/>
        <pt x="284" y="475" on="1"/>
        <pt x="386" y="491" on="1"/>
        <pt x="442" y="491" on="1"/>
      </contour>
      <contour>
        <pt x="240" y="463" on="1"/>
        <pt x="138" y="447" on="1"/>
        <pt x="82" y="447" on="1"/>
        <pt x="89" y="491" on="1"/>
        <pt x="145" y="491" on="1"/>
        <pt x="242" y="475" on="1"/>
      </contour>
      <contour>
        <pt x="239" y="182" on="1"/>
        <pt x="210" y="79" on="1"/>
        <pt x="197" y="79" on="1"/>
        <pt x="200" y="180" on="1"/>
        <pt x="223" y="343" on="1"/>
        <pt x="252" y="447" on="1"/>
        <pt x="265" y="447" on="1"/>
        <pt x="263" y="345" on="1"/>
      </contour>
      <contour>
        <pt x="373" y="34" on="1"/>
        <pt x="317" y="34" on="1"/>
        <pt x="220" y="50" on="1"/>
        <pt x="222" y="62" on="1"/>
        <pt x="324" y="78" on="1"/>
        <pt x="380" y="78" on="1"/>
      </contour>
      <contour>
        <pt x="179" y="50" on="1"/>
        <pt x="77" y="34" on="1"/>
        <pt x="21" y="34" on="1"/>
        <pt x="27" y="78" on="1"/>
        <pt x="83" y="78" on="1"/>
        <pt x="181" y="62" on="1"/>
      </contour>
      <contour>
        <pt x="188" y="-166" on="1"/>
        <pt x="146" y="-166" on="1"/>
        <pt x="159" y="-74" on="1"/>
        <pt x="191" y="33" on="1"/>
        <pt x="203" y="33" on="1"/>
        <pt x="202" y="-71" on="1"/>
      </contour>
    </TTGlyph>
    <TTGlyph name="dcaron" xMin="34" yMin="-10" xMax="555" yMax="721">
      <component glyphName="d" x="0" y="0" flags="0x4"/>
      <component glyphName="caron.alt" x="281" y="8" flags="0x4"/>
    </TTGlyph>
    <TTGlyph name="dcroat" xMin="34" yMin="-10" xMax="489" yMax="715">
      <contour>
        <pt x="347" y="418" on="1"/>
        <pt x="327" y="427" on="0"/>
        <pt x="288" y="436" on="0"/>
        <pt x="265" y="436" on="1"/>
        <pt x="225" y="436" on="0"/>
        <pt x="157" y="396" on="0"/>
        <pt x="108" y="324" on="0"/>
        <pt x="80" y="224" on="0"/>
        <pt x="80" y="165" on="1"/>
        <pt x="80" y="100" on="0"/>
        <pt x="123" y="31" on="0"/>
        <pt x="160" y="31" on="1"/>
        <pt x="191" y="31" on="0"/>
        <pt x="260" y="90" on="0"/>
        <pt x="306" y="141" on="1"/>
      </contour>
      <contour>
        <pt x="306" y="93" on="1"/>
        <pt x="264" y="45" on="0"/>
        <pt x="194" y="-10" on="0"/>
        <pt x="155" y="-10" on="1"/>
        <pt x="99" y="-10" on="0"/>
        <pt x="34" y="81" on="0"/>
        <pt x="34" y="162" on="1"/>
        <pt x="34" y="227" on="0"/>
        <pt x="69" y="342" on="0"/>
        <pt x="130" y="427" on="0"/>
        <pt x="216" y="476" on="0"/>
        <pt x="267" y="476" on="1"/>
        <pt x="291" y="476" on="0"/>
        <pt x="335" y="467" on="0"/>
        <pt x="354" y="460" on="1"/>
        <pt x="373" y="586" on="1"/>
        <pt x="251" y="586" on="1"/>
        <pt x="250" y="624" on="1"/>
        <pt x="378" y="624" on="1"/>
        <pt x="390" y="705" on="1"/>
        <pt x="437" y="715" on="1"/>
        <pt x="423" y="624" on="1"/>
        <pt x="489" y="624" on="1"/>
        <pt x="484" y="586" on="1"/>
        <pt x="418" y="586" on="1"/>
        <pt x="350" y="131" on="1"/>
        <pt x="350" y="0" on="1"/>
        <pt x="310" y="0" on="1"/>
      </contour>
    </TTGlyph>
    <TTGlyph name="dcroat.flat" xMin="34" yMin="-10" xMax="489" yMax="715">
      <contour>
        <pt x="347" y="418" on="1"/>
        <pt x="327" y="427" on="0"/>
        <pt x="288" y="436" on="0"/>
        <pt x="265" y="436" on="1"/>
        <pt x="225" y="436" on="0"/>
        <pt x="157" y="396" on="0"/>
        <pt x="108" y="324" on="0"/>
        <pt x="80" y="224" on="0"/>
        <pt x="80" y="165" on="1"/>
        <pt x="80" y="100" on="0"/>
        <pt x="123" y="31" on="0"/>
        <pt x="160" y="31" on="1"/>
        <pt x="191" y="31" on="0"/>
        <pt x="260" y="90" on="0"/>
        <pt x="306" y="141" on="1"/>
      </contour>
      <contour>
        <pt x="306" y="93" on="1"/>
        <pt x="264" y="45" on="0"/>
        <pt x="194" y="-10" on="0"/>
        <pt x="155" y="-10" on="1"/>
        <pt x="99" y="-10" on="0"/>
        <pt x="34" y="81" on="0"/>
        <pt x="34" y="162" on="1"/>
        <pt x="34" y="227" on="0"/>
        <pt x="69" y="342" on="0"/>
        <pt x="130" y="427" on="0"/>
        <pt x="216" y="476" on="0"/>
        <pt x="267" y="476" on="1"/>
        <pt x="291" y="476" on="0"/>
        <pt x="335" y="467" on="0"/>
        <pt x="354" y="460" on="1"/>
        <pt x="373" y="586" on="1"/>
        <pt x="246" y="586" on="1"/>
        <pt x="253" y="624" on="1"/>
        <pt x="378" y="624" on="1"/>
        <pt x="390" y="705" on="1"/>
        <pt x="437" y="715" on="1"/>
        <pt x="423" y="624" on="1"/>
        <pt x="489" y="624" on="1"/>
        <pt x="484" y="586" on="1"/>
        <pt x="418" y="586" on="1"/>
        <pt x="350" y="131" on="1"/>
        <pt x="350" y="0" on="1"/>
        <pt x="310" y="0" on="1"/>
      </contour>
    </TTGlyph>
    <TTGlyph name="degree" xMin="101" yMin="422" xMax="368" yMax="688">
      <contour>
        <pt x="368" y="555" on="1"/>
        <pt x="368" y="499" on="0"/>
        <pt x="291" y="422" on="0"/>
        <pt x="235" y="422" on="1"/>
        <pt x="179" y="422" on="0"/>
        <pt x="101" y="499" on="0"/>
        <pt x="101" y="555" on="1"/>
        <pt x="101" y="611" on="0"/>
        <pt x="179" y="688" on="0"/>
        <pt x="235" y="688" on="1"/>
        <pt x="291" y="688" on="0"/>
        <pt x="368" y="611" on="0"/>
      </contour>
      <contour>
        <pt x="328" y="555" on="1"/>
        <pt x="328" y="596" on="0"/>
        <pt x="275" y="655" on="0"/>
        <pt x="234" y="655" on="1"/>
        <pt x="194" y="655" on="0"/>
        <pt x="141" y="596" on="0"/>
        <pt x="141" y="555" on="1"/>
        <pt x="141" y="514" on="0"/>
        <pt x="195" y="455" on="0"/>
        <pt x="235" y="455" on="1"/>
        <pt x="276" y="455" on="0"/>
        <pt x="328" y="514" on="0"/>
      </contour>
    </TTGlyph>
    <TTGlyph name="degree.tab" xMin="126" yMin="381" xMax="439" yMax="691">
      <contour>
        <pt x="282" y="381" on="1"/>
        <pt x="216" y="381" on="0"/>
        <pt x="126" y="470" on="0"/>
        <pt x="126" y="536" on="1"/>
        <pt x="126" y="602" on="0"/>
        <pt x="216" y="691" on="0"/>
        <pt x="282" y="691" on="1"/>
        <pt x="349" y="691" on="0"/>
        <pt x="439" y="602" on="0"/>
        <pt x="439" y="536" on="1"/>
        <pt x="439" y="470" on="0"/>
        <pt x="348" y="381" on="0"/>
      </contour>
      <contour>
        <pt x="282" y="656" on="1"/>
        <pt x="232" y="656" on="0"/>
        <pt x="167" y="586" on="0"/>
        <pt x="167" y="536" on="1"/>
        <pt x="167" y="486" on="0"/>
        <pt x="233" y="416" on="0"/>
        <pt x="283" y="416" on="1"/>
        <pt x="333" y="416" on="0"/>
        <pt x="397" y="485" on="0"/>
        <pt x="397" y="536" on="1"/>
        <pt x="397" y="586" on="0"/>
        <pt x="332" y="656" on="0"/>
      </contour>
    </TTGlyph>
    <TTGlyph name="dieresis" xMin="149" yMin="546" xMax="365" yMax="621">
      <contour>
        <pt x="210" y="546" on="1"/>
        <pt x="149" y="546" on="1"/>
        <pt x="161" y="621" on="1"/>
        <pt x="221" y="621" on="1"/>
      </contour>
      <contour>
        <pt x="354" y="546" on="1"/>
        <pt x="293" y="546" on="1"/>
        <pt x="304" y="621" on="1"/>
        <pt x="365" y="621" on="1"/>
      </contour>
    </TTGlyph>
    <TTGlyph name="divide" xMin="63" yMin="135" xMax="464" yMax="549">
      <contour>
        <pt x="311" y="474" on="1"/>
        <pt x="256" y="474" on="1"/>
        <pt x="267" y="549" on="1"/>
        <pt x="322" y="549" on="1"/>
      </contour>
      <contour>
        <pt x="458" y="322" on="1"/>
        <pt x="63" y="322" on="1"/>
        <pt x="69" y="361" on="1"/>
        <pt x="464" y="361" on="1"/>
      </contour>
      <contour>
        <pt x="261" y="135" on="1"/>
        <pt x="205" y="135" on="1"/>
        <pt x="216" y="210" on="1"/>
        <pt x="272" y="210" on="1"/>
      </contour>
    </TTGlyph>
    <TTGlyph name="divide.tab" xMin="59" yMin="135" xMax="460" yMax="549">
      <contour>
        <pt x="307" y="474" on="1"/>
        <pt x="252" y="474" on="1"/>
        <pt x="263" y="549" on="1"/>
        <pt x="318" y="549" on="1"/>
      </contour>
      <contour>
        <pt x="454" y="322" on="1"/>
        <pt x="59" y="322" on="1"/>
        <pt x="65" y="361" on="1"/>
        <pt x="460" y="361" on="1"/>
      </contour>
      <contour>
        <pt x="257" y="135" on="1"/>
        <pt x="201" y="135" on="1"/>
        <pt x="212" y="210" on="1"/>
        <pt x="268" y="210" on="1"/>
      </contour>
    </TTGlyph>
    <TTGlyph name="dollar" xMin="6" yMin="-126" xMax="456" yMax="763">
      <contour>
        <pt x="143" y="524" on="1"/>
        <pt x="143" y="484" on="0"/>
        <pt x="192" y="422" on="0"/>
        <pt x="241" y="388" on="1"/>
        <pt x="320" y="646" on="1"/>
        <pt x="310" y="647" on="0"/>
        <pt x="292" y="649" on="0"/>
        <pt x="283" y="649" on="1"/>
        <pt x="221" y="649" on="0"/>
        <pt x="143" y="579" on="0"/>
      </contour>
      <contour>
        <pt x="206" y="34" on="1"/>
        <pt x="276" y="34" on="0"/>
        <pt x="365" y="115" on="0"/>
        <pt x="365" y="180" on="1"/>
        <pt x="365" y="223" on="0"/>
        <pt x="314" y="288" on="0"/>
        <pt x="259" y="325" on="1"/>
        <pt x="171" y="36" on="1"/>
        <pt x="179" y="35" on="0"/>
        <pt x="197" y="34" on="0"/>
      </contour>
      <contour>
        <pt x="202" y="-3" on="1"/>
        <pt x="191" y="-3" on="0"/>
        <pt x="169" y="-1" on="0"/>
        <pt x="159" y="0" on="1"/>
        <pt x="121" y="-126" on="1"/>
        <pt x="86" y="-117" on="1"/>
        <pt x="124" y="6" on="1"/>
        <pt x="90" y="13" on="0"/>
        <pt x="29" y="39" on="0"/>
        <pt x="6" y="53" on="1"/>
        <pt x="17" y="96" on="1"/>
        <pt x="43" y="79" on="0"/>
        <pt x="103" y="51" on="0"/>
        <pt x="135" y="43" on="1"/>
        <pt x="228" y="345" on="1"/>
        <pt x="171" y="384" on="0"/>
        <pt x="101" y="466" on="0"/>
        <pt x="101" y="523" on="1"/>
        <pt x="101" y="593" on="0"/>
        <pt x="204" y="686" on="0"/>
        <pt x="285" y="686" on="1"/>
        <pt x="297" y="686" on="0"/>
        <pt x="321" y="684" on="0"/>
        <pt x="331" y="683" on="1"/>
        <pt x="355" y="763" on="1"/>
        <pt x="391" y="754" on="1"/>
        <pt x="367" y="676" on="1"/>
        <pt x="392" y="669" on="0"/>
        <pt x="437" y="650" on="0"/>
        <pt x="456" y="640" on="1"/>
        <pt x="445" y="597" on="1"/>
        <pt x="427" y="609" on="0"/>
        <pt x="380" y="631" on="0"/>
        <pt x="355" y="638" on="1"/>
        <pt x="272" y="367" on="1"/>
        <pt x="338" y="324" on="0"/>
        <pt x="407" y="239" on="0"/>
        <pt x="407" y="182" on="1"/>
        <pt x="407" y="98" on="0"/>
        <pt x="290" y="-3" on="0"/>
      </contour>
    </TTGlyph>
    <TTGlyph name="dollar.tab" xMin="6" yMin="-121" xMax="481" yMax="758">
      <contour>
        <pt x="155" y="523" on="1"/>
        <pt x="155" y="478" on="0"/>
        <pt x="212" y="416" on="0"/>
        <pt x="258" y="387" on="1"/>
        <pt x="337" y="643" on="1"/>
        <pt x="327" y="645" on="0"/>
        <pt x="307" y="647" on="0"/>
        <pt x="297" y="647" on="1"/>
        <pt x="234" y="647" on="0"/>
        <pt x="155" y="579" on="0"/>
      </contour>
      <contour>
        <pt x="227" y="36" on="1"/>
        <pt x="297" y="36" on="0"/>
        <pt x="384" y="116" on="0"/>
        <pt x="384" y="182" on="1"/>
        <pt x="384" y="231" on="0"/>
        <pt x="323" y="296" on="0"/>
        <pt x="276" y="326" on="1"/>
        <pt x="188" y="38" on="1"/>
        <pt x="197" y="37" on="0"/>
        <pt x="217" y="36" on="0"/>
      </contour>
      <contour>
        <pt x="225" y="-2" on="1"/>
        <pt x="212" y="-2" on="0"/>
        <pt x="188" y="0" on="0"/>
        <pt x="176" y="1" on="1"/>
        <pt x="138" y="-121" on="1"/>
        <pt x="103" y="-111" on="1"/>
        <pt x="139" y="8" on="1"/>
        <pt x="99" y="18" on="0"/>
        <pt x="31" y="50" on="0"/>
        <pt x="6" y="66" on="1"/>
        <pt x="21" y="107" on="1"/>
        <pt x="47" y="88" on="0"/>
        <pt x="113" y="55" on="0"/>
        <pt x="152" y="45" on="1"/>
        <pt x="245" y="345" on="1"/>
        <pt x="192" y="379" on="0"/>
        <pt x="110" y="459" on="0"/>
        <pt x="110" y="521" on="1"/>
        <pt x="110" y="593" on="0"/>
        <pt x="214" y="684" on="0"/>
        <pt x="299" y="684" on="1"/>
        <pt x="312" y="684" on="0"/>
        <pt x="337" y="681" on="0"/>
        <pt x="349" y="680" on="1"/>
        <pt x="373" y="758" on="1"/>
        <pt x="408" y="748" on="1"/>
        <pt x="384" y="672" on="1"/>
        <pt x="412" y="664" on="0"/>
        <pt x="462" y="640" on="0"/>
        <pt x="481" y="627" on="1"/>
        <pt x="467" y="586" on="1"/>
        <pt x="448" y="600" on="0"/>
        <pt x="399" y="626" on="0"/>
        <pt x="372" y="635" on="1"/>
        <pt x="289" y="367" on="1"/>
        <pt x="345" y="331" on="0"/>
        <pt x="428" y="251" on="0"/>
        <pt x="428" y="185" on="1"/>
        <pt x="428" y="141" on="0"/>
        <pt x="396" y="71" on="0"/>
        <pt x="342" y="23" on="0"/>
        <pt x="267" y="-2" on="0"/>
      </contour>
    </TTGlyph>
    <TTGlyph name="dotaccent" xMin="218" yMin="543" xMax="295" yMax="621">
      <contour>
        <pt x="283" y="543" on="1"/>
        <pt x="218" y="543" on="1"/>
        <pt x="230" y="621" on="1"/>
        <pt x="295" y="621" on="1"/>
      </contour>
    </TTGlyph>
    <TTGlyph name="dotlessi" xMin="38" yMin="0" xMax="155" yMax="470">
      <contour>
        <pt x="155" y="470" on="1"/>
        <pt x="84" y="0" on="1"/>
        <pt x="38" y="0" on="1"/>
        <pt x="109" y="470" on="1"/>
      </contour>
    </TTGlyph>
    <TTGlyph name="e" xMin="35" yMin="-9" xMax="372" yMax="480">
      <contour>
        <pt x="240" y="440" on="1"/>
        <pt x="191" y="440" on="0"/>
        <pt x="107" y="346" on="0"/>
        <pt x="91" y="270" on="1"/>
        <pt x="323" y="270" on="1"/>
        <pt x="333" y="348" on="0"/>
        <pt x="289" y="440" on="0"/>
      </contour>
      <contour>
        <pt x="331" y="40" on="1"/>
        <pt x="300" y="18" on="0"/>
        <pt x="231" y="-9" on="0"/>
        <pt x="190" y="-9" on="1"/>
        <pt x="118" y="-9" on="0"/>
        <pt x="35" y="96" on="0"/>
        <pt x="35" y="184" on="1"/>
        <pt x="35" y="244" on="0"/>
        <pt x="68" y="353" on="0"/>
        <pt x="124" y="433" on="0"/>
        <pt x="200" y="480" on="0"/>
        <pt x="242" y="480" on="1"/>
        <pt x="307" y="480" on="0"/>
        <pt x="372" y="388" on="0"/>
        <pt x="372" y="317" on="1"/>
        <pt x="372" y="295" on="0"/>
        <pt x="366" y="251" on="0"/>
        <pt x="363" y="233" on="1"/>
        <pt x="85" y="233" on="1"/>
        <pt x="85" y="230" on="0"/>
        <pt x="84" y="223" on="0"/>
        <pt x="84" y="220" on="1"/>
        <pt x="84" y="220" on="0"/>
        <pt x="81" y="196" on="0"/>
        <pt x="81" y="185" on="1"/>
        <pt x="81" y="113" on="0"/>
        <pt x="143" y="33" on="0"/>
        <pt x="193" y="33" on="1"/>
        <pt x="228" y="33" on="0"/>
        <pt x="297" y="60" on="0"/>
        <pt x="331" y="87" on="1"/>
      </contour>
    </TTGlyph>
    <TTGlyph name="eacute" xMin="35" yMin="-9" xMax="409" yMax="679">
      <component glyphName="e" x="0" y="0" flags="0x204"/>
      <component glyphName="acute" x="61" y="3" flags="0x4"/>
    </TTGlyph>
    <TTGlyph name="ebreve" xMin="35" yMin="-9" xMax="381" yMax="655">
      <component glyphName="e" x="0" y="0" flags="0x204"/>
      <component glyphName="breve" x="5" y="3" flags="0x4"/>
    </TTGlyph>
    <TTGlyph name="ecaron" xMin="35" yMin="-9" xMax="388" yMax="678">
      <component glyphName="e" x="0" y="0" flags="0x204"/>
      <component glyphName="caron" x="8" y="3" flags="0x4"/>
    </TTGlyph>
    <TTGlyph name="ecircumflex" xMin="35" yMin="-9" xMax="372" yMax="678">
      <component glyphName="e" x="0" y="0" flags="0x204"/>
      <component glyphName="circumflex" x="8" y="3" flags="0x4"/>
    </TTGlyph>
    <TTGlyph name="edieresis" xMin="35" yMin="-9" xMax="372" yMax="624">
      <component glyphName="e" x="0" y="0" flags="0x204"/>
      <component glyphName="dieresis" x="7" y="3" flags="0x4"/>
    </TTGlyph>
    <TTGlyph name="edotaccent" xMin="35" yMin="-9" xMax="372" yMax="624">
      <component glyphName="e" x="0" y="0" flags="0x204"/>
      <component glyphName="dotaccent" x="8" y="3" flags="0x4"/>
    </TTGlyph>
    <TTGlyph name="egrave" xMin="35" yMin="-9" xMax="372" yMax="680">
      <component glyphName="e" x="0" y="0" flags="0x204"/>
      <component glyphName="grave" x="-50" y="3" flags="0x4"/>
    </TTGlyph>
    <TTGlyph name="eight" xMin="35" yMin="-9" xMax="459" yMax="695">
      <contour>
        <pt x="227" y="-9" on="1"/>
        <pt x="181" y="-9" on="0"/>
        <pt x="110" y="18" on="0"/>
        <pt x="61" y="65" on="0"/>
        <pt x="35" y="128" on="0"/>
        <pt x="35" y="163" on="1"/>
        <pt x="35" y="233" on="0"/>
        <pt x="125" y="336" on="0"/>
        <pt x="200" y="372" on="1"/>
        <pt x="161" y="399" on="0"/>
        <pt x="112" y="475" on="0"/>
        <pt x="112" y="524" on="1"/>
        <pt x="112" y="559" on="0"/>
        <pt x="138" y="621" on="0"/>
        <pt x="186" y="668" on="0"/>
        <pt x="254" y="695" on="0"/>
        <pt x="295" y="695" on="1"/>
        <pt x="370" y="695" on="0"/>
        <pt x="459" y="608" on="0"/>
        <pt x="459" y="541" on="1"/>
        <pt x="459" y="476" on="0"/>
        <pt x="381" y="383" on="0"/>
        <pt x="320" y="352" on="1"/>
        <pt x="369" y="321" on="0"/>
        <pt x="429" y="236" on="0"/>
        <pt x="429" y="180" on="1"/>
        <pt x="429" y="141" on="0"/>
        <pt x="398" y="72" on="0"/>
        <pt x="343" y="21" on="0"/>
        <pt x="269" y="-9" on="0"/>
      </contour>
      <contour>
        <pt x="160" y="525" on="1"/>
        <pt x="160" y="482" on="0"/>
        <pt x="215" y="410" on="0"/>
        <pt x="283" y="373" on="1"/>
        <pt x="346" y="406" on="0"/>
        <pt x="412" y="491" on="0"/>
        <pt x="412" y="541" on="1"/>
        <pt x="412" y="592" on="0"/>
        <pt x="346" y="654" on="0"/>
        <pt x="294" y="654" on="1"/>
        <pt x="229" y="654" on="0"/>
        <pt x="160" y="575" on="0"/>
      </contour>
      <contour>
        <pt x="229" y="31" on="1"/>
        <pt x="291" y="31" on="0"/>
        <pt x="381" y="118" on="0"/>
        <pt x="381" y="179" on="1"/>
        <pt x="381" y="232" on="0"/>
        <pt x="316" y="308" on="0"/>
        <pt x="237" y="349" on="1"/>
        <pt x="160" y="316" on="0"/>
        <pt x="82" y="221" on="0"/>
        <pt x="82" y="166" on="1"/>
        <pt x="82" y="108" on="0"/>
        <pt x="165" y="31" on="0"/>
      </contour>
    </TTGlyph>
    <TTGlyph name="eight.den" xMin="28" yMin="-9" xMax="276" yMax="359">
      <component glyphName="eight.num" x="-50" y="-334" flags="0x4"/>
    </TTGlyph>
    <TTGlyph name="eight.inf" xMin="7" yMin="-159" xMax="255" yMax="209">
      <component glyphName="eight.num" x="-71" y="-484" flags="0x4"/>
    </TTGlyph>
    <TTGlyph name="eight.num" xMin="78" yMin="325" xMax="326" yMax="693">
      <contour>
        <pt x="190" y="325" on="1"/>
        <pt x="136" y="325" on="0"/>
        <pt x="78" y="380" on="0"/>
        <pt x="78" y="417" on="1"/>
        <pt x="78" y="450" on="0"/>
        <pt x="120" y="505" on="0"/>
        <pt x="161" y="523" on="1"/>
        <pt x="141" y="537" on="0"/>
        <pt x="115" y="575" on="0"/>
        <pt x="115" y="602" on="1"/>
        <pt x="115" y="638" on="0"/>
        <pt x="176" y="693" on="0"/>
        <pt x="224" y="693" on="1"/>
        <pt x="271" y="693" on="0"/>
        <pt x="326" y="643" on="0"/>
        <pt x="326" y="608" on="1"/>
        <pt x="326" y="575" on="0"/>
        <pt x="283" y="526" on="0"/>
        <pt x="249" y="510" on="1"/>
        <pt x="275" y="494" on="0"/>
        <pt x="307" y="454" on="0"/>
        <pt x="307" y="425" on="1"/>
        <pt x="307" y="385" on="0"/>
        <pt x="240" y="325" on="0"/>
      </contour>
      <contour>
        <pt x="153" y="602" on="1"/>
        <pt x="153" y="574" on="0"/>
        <pt x="194" y="540" on="0"/>
        <pt x="225" y="523" on="1"/>
        <pt x="253" y="537" on="0"/>
        <pt x="290" y="579" on="0"/>
        <pt x="290" y="604" on="1"/>
        <pt x="290" y="629" on="0"/>
        <pt x="254" y="662" on="0"/>
        <pt x="223" y="662" on="1"/>
        <pt x="190" y="662" on="0"/>
        <pt x="153" y="625" on="0"/>
      </contour>
      <contour>
        <pt x="192" y="356" on="1"/>
        <pt x="225" y="356" on="0"/>
        <pt x="270" y="394" on="0"/>
        <pt x="270" y="424" on="1"/>
        <pt x="270" y="455" on="0"/>
        <pt x="224" y="490" on="0"/>
        <pt x="186" y="509" on="1"/>
        <pt x="185" y="509" on="1"/>
        <pt x="151" y="493" on="0"/>
        <pt x="115" y="448" on="0"/>
        <pt x="115" y="420" on="1"/>
        <pt x="115" y="392" on="0"/>
        <pt x="158" y="356" on="0"/>
      </contour>
    </TTGlyph>
    <TTGlyph name="eight.sup" xMin="88" yMin="418" xMax="336" yMax="786">
      <component glyphName="eight.num" x="10" y="93" flags="0x4"/>
    </TTGlyph>
    <TTGlyph name="eight.tab" xMin="37" yMin="-8" xMax="474" yMax="695">
      <contour>
        <pt x="230" y="-8" on="1"/>
        <pt x="184" y="-8" on="0"/>
        <pt x="112" y="19" on="0"/>
        <pt x="63" y="65" on="0"/>
        <pt x="37" y="127" on="0"/>
        <pt x="37" y="162" on="1"/>
        <pt x="37" y="234" on="0"/>
        <pt x="131" y="342" on="0"/>
        <pt x="206" y="376" on="1"/>
        <pt x="169" y="403" on="0"/>
        <pt x="116" y="476" on="0"/>
        <pt x="116" y="527" on="1"/>
        <pt x="116" y="563" on="0"/>
        <pt x="145" y="625" on="0"/>
        <pt x="196" y="670" on="0"/>
        <pt x="266" y="695" on="0"/>
        <pt x="306" y="695" on="1"/>
        <pt x="379" y="695" on="0"/>
        <pt x="474" y="609" on="0"/>
        <pt x="474" y="543" on="1"/>
        <pt x="474" y="480" on="0"/>
        <pt x="391" y="381" on="0"/>
        <pt x="331" y="348" on="1"/>
        <pt x="375" y="320" on="0"/>
        <pt x="441" y="240" on="0"/>
        <pt x="441" y="182" on="1"/>
        <pt x="441" y="142" on="0"/>
        <pt x="408" y="72" on="0"/>
        <pt x="350" y="21" on="0"/>
        <pt x="273" y="-8" on="0"/>
      </contour>
      <contour>
        <pt x="165" y="528" on="1"/>
        <pt x="165" y="475" on="0"/>
        <pt x="240" y="403" on="0"/>
        <pt x="297" y="369" on="1"/>
        <pt x="354" y="400" on="0"/>
        <pt x="426" y="489" on="0"/>
        <pt x="426" y="543" on="1"/>
        <pt x="426" y="592" on="0"/>
        <pt x="359" y="656" on="0"/>
        <pt x="305" y="656" on="1"/>
        <pt x="238" y="656" on="0"/>
        <pt x="165" y="577" on="0"/>
      </contour>
      <contour>
        <pt x="232" y="32" on="1"/>
        <pt x="264" y="32" on="0"/>
        <pt x="323" y="55" on="0"/>
        <pt x="366" y="94" on="0"/>
        <pt x="392" y="149" on="0"/>
        <pt x="392" y="181" on="1"/>
        <pt x="392" y="240" on="0"/>
        <pt x="311" y="313" on="0"/>
        <pt x="249" y="349" on="1"/>
        <pt x="248" y="350" on="0"/>
        <pt x="244" y="352" on="0"/>
        <pt x="243" y="353" on="1"/>
        <pt x="171" y="324" on="0"/>
        <pt x="85" y="226" on="0"/>
        <pt x="85" y="166" on="1"/>
        <pt x="85" y="107" on="0"/>
        <pt x="166" y="32" on="0"/>
      </contour>
    </TTGlyph>
    <TTGlyph name="ellipsis" xMin="25" yMin="0" xMax="463" yMax="80">
      <contour>
        <pt x="83" y="0" on="1"/>
        <pt x="25" y="0" on="1"/>
        <pt x="37" y="80" on="1"/>
        <pt x="95" y="80" on="1"/>
      </contour>
      <contour>
        <pt x="267" y="0" on="1"/>
        <pt x="209" y="0" on="1"/>
        <pt x="221" y="80" on="1"/>
        <pt x="279" y="80" on="1"/>
      </contour>
      <contour>
        <pt x="451" y="0" on="1"/>
        <pt x="393" y="0" on="1"/>
        <pt x="405" y="80" on="1"/>
        <pt x="463" y="80" on="1"/>
      </contour>
    </TTGlyph>
    <TTGlyph name="emacron" xMin="35" yMin="-9" xMax="379" yMax="612">
      <component glyphName="e" x="0" y="0" flags="0x204"/>
      <component glyphName="macron" x="6" y="3" flags="0x4"/>
    </TTGlyph>
    <TTGlyph name="emdash" xMin="54" yMin="261" xMax="771" yMax="304">
      <contour>
        <pt x="764" y="261" on="1"/>
        <pt x="54" y="261" on="1"/>
        <pt x="60" y="304" on="1"/>
        <pt x="771" y="304" on="1"/>
      </contour>
    </TTGlyph>
    <TTGlyph name="endash" xMin="54" yMin="261" xMax="363" yMax="304">
      <contour>
        <pt x="357" y="261" on="1"/>
        <pt x="54" y="261" on="1"/>
        <pt x="60" y="304" on="1"/>
        <pt x="363" y="304" on="1"/>
      </contour>
    </TTGlyph>
    <TTGlyph name="eogonek" xMin="35" yMin="-162" xMax="372" yMax="480">
      <contour>
        <pt x="250" y="-162" on="1"/>
        <pt x="219" y="-162" on="0"/>
        <pt x="187" y="-134" on="0"/>
        <pt x="187" y="-108" on="1"/>
        <pt x="187" y="-83" on="0"/>
        <pt x="217" y="-39" on="0"/>
        <pt x="242" y="-12" on="1"/>
        <pt x="254" y="2" on="1"/>
        <pt x="238" y="-4" on="0"/>
        <pt x="206" y="-9" on="0"/>
        <pt x="190" y="-9" on="1"/>
        <pt x="118" y="-9" on="0"/>
        <pt x="35" y="96" on="0"/>
        <pt x="35" y="184" on="1"/>
        <pt x="35" y="244" on="0"/>
        <pt x="68" y="353" on="0"/>
        <pt x="124" y="433" on="0"/>
        <pt x="200" y="480" on="0"/>
        <pt x="242" y="480" on="1"/>
        <pt x="307" y="480" on="0"/>
        <pt x="372" y="388" on="0"/>
        <pt x="372" y="317" on="1"/>
        <pt x="372" y="295" on="0"/>
        <pt x="366" y="251" on="0"/>
        <pt x="363" y="233" on="1"/>
        <pt x="84" y="233" on="1"/>
        <pt x="83" y="222" on="0"/>
        <pt x="81" y="196" on="0"/>
        <pt x="81" y="185" on="1"/>
        <pt x="81" y="113" on="0"/>
        <pt x="143" y="33" on="0"/>
        <pt x="193" y="33" on="1"/>
        <pt x="228" y="33" on="0"/>
        <pt x="297" y="60" on="0"/>
        <pt x="331" y="87" on="1"/>
        <pt x="331" y="42" on="1"/>
        <pt x="272" y="-24" on="1"/>
        <pt x="250" y="-49" on="0"/>
        <pt x="229" y="-83" on="0"/>
        <pt x="229" y="-98" on="1"/>
        <pt x="229" y="-112" on="0"/>
        <pt x="246" y="-128" on="0"/>
        <pt x="263" y="-128" on="1"/>
        <pt x="272" y="-128" on="0"/>
        <pt x="293" y="-124" on="0"/>
        <pt x="303" y="-120" on="1"/>
        <pt x="303" y="-152" on="1"/>
        <pt x="290" y="-156" on="0"/>
        <pt x="263" y="-162" on="0"/>
      </contour>
      <contour>
        <pt x="90" y="270" on="1"/>
        <pt x="323" y="270" on="1"/>
        <pt x="333" y="348" on="0"/>
        <pt x="289" y="440" on="0"/>
        <pt x="240" y="440" on="1"/>
        <pt x="189" y="440" on="0"/>
        <pt x="108" y="344" on="0"/>
      </contour>
    </TTGlyph>
    <TTGlyph name="equal" xMin="60" yMin="223" xMax="487" yMax="461">
      <contour>
        <pt x="480" y="419" on="1"/>
        <pt x="90" y="419" on="1"/>
        <pt x="96" y="461" on="1"/>
        <pt x="487" y="461" on="1"/>
      </contour>
      <contour>
        <pt x="450" y="223" on="1"/>
        <pt x="60" y="223" on="1"/>
        <pt x="66" y="265" on="1"/>
        <pt x="457" y="265" on="1"/>
      </contour>
    </TTGlyph>
    <TTGlyph name="equal.tab" xMin="44" yMin="223" xMax="471" yMax="461">
      <contour>
        <pt x="464" y="419" on="1"/>
        <pt x="74" y="419" on="1"/>
        <pt x="80" y="461" on="1"/>
        <pt x="471" y="461" on="1"/>
      </contour>
      <contour>
        <pt x="434" y="223" on="1"/>
        <pt x="44" y="223" on="1"/>
        <pt x="50" y="265" on="1"/>
        <pt x="441" y="265" on="1"/>
      </contour>
    </TTGlyph>
    <TTGlyph name="eth" xMin="35" yMin="-9" xMax="408" yMax="716">
      <contour>
        <pt x="178" y="-9" on="1"/>
        <pt x="120" y="-9" on="0"/>
        <pt x="35" y="84" on="0"/>
        <pt x="35" y="173" on="1"/>
        <pt x="35" y="231" on="0"/>
        <pt x="68" y="333" on="0"/>
        <pt x="123" y="407" on="0"/>
        <pt x="197" y="450" on="0"/>
        <pt x="238" y="450" on="1"/>
        <pt x="279" y="450" on="0"/>
        <pt x="339" y="414" on="0"/>
        <pt x="363" y="388" on="1"/>
        <pt x="363" y="455" on="0"/>
        <pt x="334" y="557" on="0"/>
        <pt x="305" y="594" on="1"/>
        <pt x="252" y="526" on="1"/>
        <pt x="211" y="526" on="1"/>
        <pt x="283" y="619" on="1"/>
        <pt x="264" y="637" on="0"/>
        <pt x="219" y="666" on="0"/>
        <pt x="192" y="677" on="1"/>
        <pt x="206" y="716" on="1"/>
        <pt x="236" y="703" on="0"/>
        <pt x="287" y="671" on="0"/>
        <pt x="308" y="652" on="1"/>
        <pt x="356" y="715" on="1"/>
        <pt x="391" y="705" on="1"/>
        <pt x="331" y="628" on="1"/>
        <pt x="370" y="582" on="0"/>
        <pt x="408" y="462" on="0"/>
        <pt x="408" y="389" on="1"/>
        <pt x="408" y="280" on="0"/>
        <pt x="347" y="97" on="0"/>
        <pt x="293" y="43" on="1"/>
        <pt x="267" y="17" on="0"/>
        <pt x="209" y="-9" on="0"/>
      </contour>
      <contour>
        <pt x="181" y="31" on="1"/>
        <pt x="214" y="31" on="0"/>
        <pt x="275" y="79" on="0"/>
        <pt x="324" y="162" on="0"/>
        <pt x="356" y="273" on="0"/>
        <pt x="360" y="335" on="1"/>
        <pt x="334" y="371" on="0"/>
        <pt x="275" y="411" on="0"/>
        <pt x="238" y="411" on="1"/>
        <pt x="206" y="411" on="0"/>
        <pt x="149" y="374" on="0"/>
        <pt x="107" y="309" on="0"/>
        <pt x="82" y="221" on="0"/>
        <pt x="82" y="171" on="1"/>
        <pt x="82" y="102" on="0"/>
        <pt x="139" y="31" on="0"/>
      </contour>
    </TTGlyph>
    <TTGlyph name="exclam" xMin="48" yMin="0" xMax="208" yMax="690">
      <contour>
        <pt x="208" y="690" on="1"/>
        <pt x="119" y="185" on="1"/>
        <pt x="89" y="179" on="1"/>
        <pt x="152" y="690" on="1"/>
      </contour>
      <contour>
        <pt x="118" y="81" on="1"/>
        <pt x="106" y="0" on="1"/>
        <pt x="48" y="0" on="1"/>
        <pt x="60" y="81" on="1"/>
      </contour>
    </TTGlyph>
    <TTGlyph name="exclam.flat" xMin="48" yMin="0" xMax="208" yMax="690">
      <contour>
        <pt x="208" y="690" on="1"/>
        <pt x="119" y="182" on="1"/>
        <pt x="90" y="182" on="1"/>
        <pt x="152" y="690" on="1"/>
      </contour>
      <contour>
        <pt x="118" y="81" on="1"/>
        <pt x="106" y="0" on="1"/>
        <pt x="48" y="0" on="1"/>
        <pt x="60" y="81" on="1"/>
      </contour>
    </TTGlyph>
    <TTGlyph name="exclamdown" xMin="51" yMin="0" xMax="210" yMax="690">
      <contour>
        <pt x="210" y="690" on="1"/>
        <pt x="198" y="609" on="1"/>
        <pt x="141" y="609" on="1"/>
        <pt x="153" y="690" on="1"/>
      </contour>
      <contour>
        <pt x="169" y="512" on="1"/>
        <pt x="106" y="0" on="1"/>
        <pt x="51" y="0" on="1"/>
        <pt x="139" y="506" on="1"/>
      </contour>
    </TTGlyph>
    <TTGlyph name="exclamdown.flat" xMin="51" yMin="0" xMax="210" yMax="690">
      <contour>
        <pt x="141" y="609" on="1"/>
        <pt x="153" y="690" on="1"/>
        <pt x="210" y="690" on="1"/>
        <pt x="198" y="609" on="1"/>
      </contour>
      <contour>
        <pt x="51" y="0" on="1"/>
        <pt x="140" y="509" on="1"/>
        <pt x="169" y="509" on="1"/>
        <pt x="106" y="0" on="1"/>
      </contour>
    </TTGlyph>
    <TTGlyph name="f" xMin="26" yMin="-183" xMax="301" yMax="712">
      <contour>
        <pt x="301" y="665" on="1"/>
        <pt x="291" y="668" on="0"/>
        <pt x="271" y="671" on="0"/>
        <pt x="259" y="671" on="1"/>
        <pt x="227" y="671" on="0"/>
        <pt x="191" y="630" on="0"/>
        <pt x="186" y="593" on="1"/>
        <pt x="167" y="470" on="1"/>
        <pt x="258" y="470" on="1"/>
        <pt x="258" y="432" on="1"/>
        <pt x="162" y="432" on="1"/>
        <pt x="72" y="-175" on="1"/>
        <pt x="26" y="-183" on="1"/>
        <pt x="117" y="432" on="1"/>
        <pt x="49" y="432" on="1"/>
        <pt x="55" y="470" on="1"/>
        <pt x="122" y="470" on="1"/>
        <pt x="141" y="603" on="1"/>
        <pt x="148" y="655" on="0"/>
        <pt x="209" y="712" on="0"/>
        <pt x="259" y="712" on="1"/>
        <pt x="272" y="712" on="0"/>
        <pt x="293" y="708" on="0"/>
        <pt x="301" y="707" on="1"/>
      </contour>
    </TTGlyph>
    <TTGlyph name="f.flat" xMin="26" yMin="-183" xMax="301" yMax="712">
      <contour>
        <pt x="301" y="665" on="1"/>
        <pt x="291" y="668" on="0"/>
        <pt x="271" y="671" on="0"/>
        <pt x="259" y="671" on="1"/>
        <pt x="227" y="671" on="0"/>
        <pt x="191" y="630" on="0"/>
        <pt x="186" y="593" on="1"/>
        <pt x="167" y="470" on="1"/>
        <pt x="261" y="470" on="1"/>
        <pt x="255" y="432" on="1"/>
        <pt x="162" y="432" on="1"/>
        <pt x="72" y="-175" on="1"/>
        <pt x="26" y="-183" on="1"/>
        <pt x="117" y="432" on="1"/>
        <pt x="49" y="432" on="1"/>
        <pt x="55" y="470" on="1"/>
        <pt x="122" y="470" on="1"/>
        <pt x="141" y="603" on="1"/>
        <pt x="148" y="655" on="0"/>
        <pt x="209" y="712" on="0"/>
        <pt x="259" y="712" on="1"/>
        <pt x="272" y="712" on="0"/>
        <pt x="293" y="708" on="0"/>
        <pt x="301" y="707" on="1"/>
      </contour>
    </TTGlyph>
    <TTGlyph name="f_f" xMin="26" yMin="-183" xMax="546" yMax="712">
      <component glyphName="f" x="0" y="0" flags="0x4"/>
      <component glyphName="f" x="245" y="0" flags="0x4"/>
    </TTGlyph>
    <TTGlyph name="f_f.flat" xMin="26" yMin="-183" xMax="546" yMax="712">
      <component glyphName="f.flat" x="0" y="0" flags="0x4"/>
      <component glyphName="f.flat" x="245" y="0" flags="0x4"/>
    </TTGlyph>
    <TTGlyph name="f_f_i" xMin="26" yMin="-183" xMax="683" yMax="712">
      <component glyphName="f" x="0" y="0" flags="0x4"/>
      <component glyphName="f" x="245" y="0" flags="0x4"/>
      <component glyphName="i" x="490" y="0" flags="0x4"/>
    </TTGlyph>
    <TTGlyph name="f_f_i.flat" xMin="26" yMin="-183" xMax="683" yMax="712">
      <component glyphName="f.flat" x="0" y="0" flags="0x4"/>
      <component glyphName="f.flat" x="245" y="0" flags="0x4"/>
      <component glyphName="i" x="490" y="0" flags="0x4"/>
    </TTGlyph>
    <TTGlyph name="f_f_l" xMin="26" yMin="-183" xMax="680" yMax="715">
      <component glyphName="f" x="0" y="0" flags="0x4"/>
      <component glyphName="f" x="245" y="0" flags="0x4"/>
      <component glyphName="l" x="490" y="0" flags="0x4"/>
    </TTGlyph>
    <TTGlyph name="f_f_l.flat" xMin="26" yMin="-183" xMax="680" yMax="715">
      <component glyphName="f.flat" x="0" y="0" flags="0x4"/>
      <component glyphName="f.flat" x="245" y="0" flags="0x4"/>
      <component glyphName="l" x="490" y="0" flags="0x4"/>
    </TTGlyph>
    <TTGlyph name="fi" xMin="26" yMin="-183" xMax="438" yMax="712">
      <component glyphName="f" x="0" y="0" flags="0x4"/>
      <component glyphName="i" x="245" y="0" flags="0x4"/>
    </TTGlyph>
    <TTGlyph name="fi.flat" xMin="26" yMin="-183" xMax="438" yMax="712">
      <component glyphName="f.flat" x="0" y="0" flags="0x4"/>
      <component glyphName="i" x="245" y="0" flags="0x4"/>
    </TTGlyph>
    <TTGlyph name="five" xMin="6" yMin="-11" xMax="431" yMax="683">
      <contour>
        <pt x="431" y="644" on="1"/>
        <pt x="188" y="644" on="1"/>
        <pt x="137" y="411" on="1"/>
        <pt x="256" y="400" on="0"/>
        <pt x="380" y="291" on="0"/>
        <pt x="380" y="206" on="1"/>
        <pt x="380" y="157" on="0"/>
        <pt x="347" y="77" on="0"/>
        <pt x="289" y="20" on="0"/>
        <pt x="212" y="-11" on="0"/>
        <pt x="169" y="-11" on="1"/>
        <pt x="121" y="-11" on="0"/>
        <pt x="40" y="15" on="0"/>
        <pt x="6" y="36" on="1"/>
        <pt x="18" y="78" on="1"/>
        <pt x="56" y="54" on="0"/>
        <pt x="128" y="29" on="0"/>
        <pt x="170" y="29" on="1"/>
        <pt x="241" y="29" on="0"/>
        <pt x="334" y="129" on="0"/>
        <pt x="334" y="204" on="1"/>
        <pt x="334" y="278" on="0"/>
        <pt x="215" y="367" on="0"/>
        <pt x="87" y="373" on="1"/>
        <pt x="153" y="683" on="1"/>
        <pt x="431" y="683" on="1"/>
      </contour>
    </TTGlyph>
    <TTGlyph name="five.den" xMin="18" yMin="-8" xMax="277" yMax="349">
      <component glyphName="five.num" x="-50" y="-334" flags="0x4"/>
    </TTGlyph>
    <TTGlyph name="five.den_flat" xMin="18" yMin="-8" xMax="279" yMax="349">
      <component glyphName="five.num_flat" x="-50" y="-334" flags="0x4"/>
    </TTGlyph>
    <TTGlyph name="five.flat" xMin="6" yMin="-11" xMax="434" yMax="683">
      <contour>
        <pt x="427" y="644" on="1"/>
        <pt x="188" y="644" on="1"/>
        <pt x="137" y="411" on="1"/>
        <pt x="256" y="400" on="0"/>
        <pt x="380" y="291" on="0"/>
        <pt x="380" y="206" on="1"/>
        <pt x="380" y="157" on="0"/>
        <pt x="347" y="77" on="0"/>
        <pt x="289" y="20" on="0"/>
        <pt x="212" y="-11" on="0"/>
        <pt x="169" y="-11" on="1"/>
        <pt x="121" y="-11" on="0"/>
        <pt x="40" y="15" on="0"/>
        <pt x="6" y="36" on="1"/>
        <pt x="18" y="78" on="1"/>
        <pt x="56" y="54" on="0"/>
        <pt x="128" y="29" on="0"/>
        <pt x="170" y="29" on="1"/>
        <pt x="241" y="29" on="0"/>
        <pt x="334" y="129" on="0"/>
        <pt x="334" y="204" on="1"/>
        <pt x="334" y="278" on="0"/>
        <pt x="215" y="367" on="0"/>
        <pt x="87" y="373" on="1"/>
        <pt x="153" y="683" on="1"/>
        <pt x="434" y="683" on="1"/>
      </contour>
    </TTGlyph>
    <TTGlyph name="five.inf" xMin="-3" yMin="-158" xMax="256" yMax="199">
      <component glyphName="five.num" x="-71" y="-484" flags="0x4"/>
    </TTGlyph>
    <TTGlyph name="five.inf_flat" xMin="-3" yMin="-158" xMax="258" yMax="199">
      <component glyphName="five.num_flat" x="-71" y="-484" flags="0x4"/>
    </TTGlyph>
    <TTGlyph name="five.num" xMin="68" yMin="326" xMax="327" yMax="683">
      <contour>
        <pt x="303" y="436" on="1"/>
        <pt x="303" y="387" on="0"/>
        <pt x="230" y="326" on="0"/>
        <pt x="176" y="326" on="1"/>
        <pt x="145" y="326" on="0"/>
        <pt x="92" y="342" on="0"/>
        <pt x="68" y="354" on="1"/>
        <pt x="82" y="387" on="1"/>
        <pt x="104" y="374" on="0"/>
        <pt x="151" y="359" on="0"/>
        <pt x="178" y="359" on="1"/>
        <pt x="212" y="359" on="0"/>
        <pt x="264" y="398" on="0"/>
        <pt x="264" y="434" on="1"/>
        <pt x="264" y="473" on="0"/>
        <pt x="188" y="515" on="0"/>
        <pt x="112" y="520" on="1"/>
        <pt x="150" y="683" on="1"/>
        <pt x="327" y="683" on="1"/>
        <pt x="327" y="649" on="1"/>
        <pt x="177" y="649" on="1"/>
        <pt x="154" y="549" on="1"/>
        <pt x="223" y="542" on="0"/>
        <pt x="303" y="486" on="0"/>
      </contour>
    </TTGlyph>
    <TTGlyph name="five.num_flat" xMin="68" yMin="326" xMax="329" yMax="683">
      <contour>
        <pt x="303" y="436" on="1"/>
        <pt x="303" y="387" on="0"/>
        <pt x="230" y="326" on="0"/>
        <pt x="176" y="326" on="1"/>
        <pt x="145" y="326" on="0"/>
        <pt x="92" y="342" on="0"/>
        <pt x="68" y="354" on="1"/>
        <pt x="82" y="387" on="1"/>
        <pt x="104" y="374" on="0"/>
        <pt x="151" y="359" on="0"/>
        <pt x="178" y="359" on="1"/>
        <pt x="212" y="359" on="0"/>
        <pt x="264" y="398" on="0"/>
        <pt x="264" y="434" on="1"/>
        <pt x="264" y="473" on="0"/>
        <pt x="188" y="515" on="0"/>
        <pt x="112" y="520" on="1"/>
        <pt x="150" y="683" on="1"/>
        <pt x="329" y="683" on="1"/>
        <pt x="324" y="649" on="1"/>
        <pt x="177" y="649" on="1"/>
        <pt x="154" y="549" on="1"/>
        <pt x="223" y="542" on="0"/>
        <pt x="303" y="486" on="0"/>
      </contour>
    </TTGlyph>
    <TTGlyph name="five.sup" xMin="78" yMin="419" xMax="337" yMax="776">
      <component glyphName="five.num" x="10" y="93" flags="0x4"/>
    </TTGlyph>
    <TTGlyph name="five.sup_flat" xMin="78" yMin="419" xMax="339" yMax="776">
      <component glyphName="five.num_flat" x="10" y="93" flags="0x4"/>
    </TTGlyph>
    <TTGlyph name="five.tab" xMin="21" yMin="-9" xMax="482" yMax="683">
      <contour>
        <pt x="429" y="201" on="1"/>
        <pt x="429" y="154" on="0"/>
        <pt x="394" y="77" on="0"/>
        <pt x="334" y="22" on="0"/>
        <pt x="253" y="-9" on="0"/>
        <pt x="208" y="-9" on="1"/>
        <pt x="152" y="-9" on="0"/>
        <pt x="54" y="26" on="0"/>
        <pt x="21" y="49" on="1"/>
        <pt x="34" y="92" on="1"/>
        <pt x="71" y="65" on="0"/>
        <pt x="158" y="32" on="0"/>
        <pt x="209" y="32" on="1"/>
        <pt x="284" y="32" on="0"/>
        <pt x="380" y="126" on="0"/>
        <pt x="380" y="196" on="1"/>
        <pt x="380" y="273" on="0"/>
        <pt x="245" y="368" on="0"/>
        <pt x="106" y="382" on="1"/>
        <pt x="173" y="683" on="1"/>
        <pt x="482" y="683" on="1"/>
        <pt x="482" y="642" on="1"/>
        <pt x="208" y="642" on="1"/>
        <pt x="159" y="417" on="1"/>
        <pt x="218" y="408" on="0"/>
        <pt x="318" y="374" on="0"/>
        <pt x="389" y="321" on="0"/>
        <pt x="429" y="248" on="0"/>
      </contour>
    </TTGlyph>
    <TTGlyph name="five.tab_flat" xMin="21" yMin="-9" xMax="485" yMax="683">
      <contour>
        <pt x="429" y="201" on="1"/>
        <pt x="429" y="154" on="0"/>
        <pt x="394" y="77" on="0"/>
        <pt x="334" y="22" on="0"/>
        <pt x="253" y="-9" on="0"/>
        <pt x="208" y="-9" on="1"/>
        <pt x="152" y="-9" on="0"/>
        <pt x="54" y="26" on="0"/>
        <pt x="21" y="49" on="1"/>
        <pt x="34" y="92" on="1"/>
        <pt x="71" y="65" on="0"/>
        <pt x="158" y="32" on="0"/>
        <pt x="209" y="32" on="1"/>
        <pt x="284" y="32" on="0"/>
        <pt x="380" y="126" on="0"/>
        <pt x="380" y="196" on="1"/>
        <pt x="380" y="273" on="0"/>
        <pt x="245" y="368" on="0"/>
        <pt x="106" y="382" on="1"/>
        <pt x="173" y="683" on="1"/>
        <pt x="485" y="683" on="1"/>
        <pt x="479" y="642" on="1"/>
        <pt x="208" y="642" on="1"/>
        <pt x="159" y="417" on="1"/>
        <pt x="218" y="408" on="0"/>
        <pt x="318" y="374" on="0"/>
        <pt x="389" y="321" on="0"/>
        <pt x="429" y="248" on="0"/>
      </contour>
    </TTGlyph>
    <TTGlyph name="fiveeighths" xMin="65" yMin="-9" xMax="681" yMax="694">
      <component glyphName="five.num" x="-3" y="0" flags="0x4"/>
      <component glyphName="fraction" x="244" y="0" flags="0x4"/>
      <component glyphName="eight.num" x="355" y="-334" flags="0x4"/>
    </TTGlyph>
    <TTGlyph name="fiveeighths.flat" xMin="65" yMin="-9" xMax="681" yMax="694">
      <component glyphName="five.num_flat" x="-3" y="0" flags="0x4"/>
      <component glyphName="fraction" x="244" y="0" flags="0x4"/>
      <component glyphName="eight.num" x="355" y="-334" flags="0x4"/>
    </TTGlyph>
    <TTGlyph name="fivesixths" xMin="65" yMin="-9" xMax="675" yMax="694">
      <component glyphName="five.num" x="-3" y="0" flags="0x4"/>
      <component glyphName="fraction" x="264" y="0" flags="0x4"/>
      <component glyphName="six.num" x="356" y="-334" flags="0x4"/>
    </TTGlyph>
    <TTGlyph name="fivesixths.flat" xMin="65" yMin="-9" xMax="675" yMax="694">
      <component glyphName="five.num_flat" x="-3" y="0" flags="0x4"/>
      <component glyphName="fraction" x="264" y="0" flags="0x4"/>
      <component glyphName="six.num" x="356" y="-334" flags="0x4"/>
    </TTGlyph>
    <TTGlyph name="fl" xMin="26" yMin="-183" xMax="435" yMax="715">
      <component glyphName="f" x="0" y="0" flags="0x4"/>
      <component glyphName="l" x="245" y="0" flags="0x4"/>
    </TTGlyph>
    <TTGlyph name="fl.flat" xMin="26" yMin="-183" xMax="435" yMax="715">
      <component glyphName="f.flat" x="0" y="0" flags="0x4"/>
      <component glyphName="l" x="245" y="0" flags="0x4"/>
    </TTGlyph>
    <TTGlyph name="florin" xMin="54" yMin="0" xMax="363" yMax="691">
      <contour>
        <pt x="300" y="419" on="1"/>
        <pt x="196" y="419" on="1"/>
        <pt x="98" y="0" on="1"/>
        <pt x="54" y="0" on="1"/>
        <pt x="152" y="419" on="1"/>
        <pt x="81" y="419" on="1"/>
        <pt x="90" y="458" on="1"/>
        <pt x="161" y="458" on="1"/>
        <pt x="188" y="574" on="1"/>
        <pt x="201" y="634" on="0"/>
        <pt x="268" y="691" on="0"/>
        <pt x="314" y="691" on="1"/>
        <pt x="330" y="691" on="0"/>
        <pt x="354" y="687" on="0"/>
        <pt x="363" y="683" on="1"/>
        <pt x="360" y="642" on="1"/>
        <pt x="350" y="647" on="0"/>
        <pt x="326" y="651" on="0"/>
        <pt x="313" y="651" on="1"/>
        <pt x="283" y="651" on="0"/>
        <pt x="241" y="613" on="0"/>
        <pt x="231" y="570" on="1"/>
        <pt x="205" y="458" on="1"/>
        <pt x="302" y="458" on="1"/>
      </contour>
    </TTGlyph>
    <TTGlyph name="four" xMin="24" yMin="0" xMax="468" yMax="688">
      <contour>
        <pt x="468" y="207" on="1"/>
        <pt x="462" y="169" on="1"/>
        <pt x="363" y="169" on="1"/>
        <pt x="337" y="0" on="1"/>
        <pt x="295" y="0" on="1"/>
        <pt x="320" y="169" on="1"/>
        <pt x="24" y="169" on="1"/>
        <pt x="29" y="197" on="1"/>
        <pt x="385" y="688" on="1"/>
        <pt x="441" y="688" on="1"/>
        <pt x="368" y="207" on="1"/>
      </contour>
      <contour>
        <pt x="325" y="207" on="1"/>
        <pt x="390" y="632" on="1"/>
        <pt x="83" y="207" on="1"/>
      </contour>
    </TTGlyph>
    <TTGlyph name="four.alt" xMin="24" yMin="0" xMax="468" yMax="688">
      <contour>
        <pt x="462" y="168" on="1"/>
        <pt x="363" y="168" on="1"/>
        <pt x="337" y="0" on="1"/>
        <pt x="294" y="0" on="1"/>
        <pt x="319" y="168" on="1"/>
        <pt x="24" y="168" on="1"/>
        <pt x="29" y="197" on="1"/>
        <pt x="382" y="688" on="1"/>
        <pt x="425" y="679" on="1"/>
        <pt x="86" y="207" on="1"/>
        <pt x="324" y="207" on="1"/>
        <pt x="355" y="409" on="1"/>
        <pt x="400" y="420" on="1"/>
        <pt x="368" y="207" on="1"/>
        <pt x="468" y="207" on="1"/>
      </contour>
    </TTGlyph>
    <TTGlyph name="four.alt_flat" xMin="24" yMin="0" xMax="468" yMax="683">
      <contour>
        <pt x="462" y="168" on="1"/>
        <pt x="363" y="168" on="1"/>
        <pt x="337" y="0" on="1"/>
        <pt x="294" y="0" on="1"/>
        <pt x="319" y="168" on="1"/>
        <pt x="24" y="168" on="1"/>
        <pt x="29" y="197" on="1"/>
        <pt x="379" y="683" on="1"/>
        <pt x="428" y="683" on="1"/>
        <pt x="86" y="207" on="1"/>
        <pt x="324" y="207" on="1"/>
        <pt x="356" y="414" on="1"/>
        <pt x="399" y="414" on="1"/>
        <pt x="368" y="207" on="1"/>
        <pt x="468" y="207" on="1"/>
      </contour>
    </TTGlyph>
    <TTGlyph name="four.den" xMin="14" yMin="-2" xMax="274" yMax="353">
      <component glyphName="four.num" x="-50" y="-334" flags="0x4"/>
    </TTGlyph>
</ttFont>
